<svg clip-rule="evenodd" fill-rule="evenodd" stroke-linejoin="round" stroke-miterlimit="1.41421" viewBox="0 0 32 32" xmlns="http://www.w3.org/2000/svg" xmlns:xlink="http://www.w3.org/1999/xlink"><clipPath id="a"><path clip-rule="evenodd" d="m0 0h32v32h-32z"/></clipPath><metadata/><path d="m0 0h32v32h-32z" fill="none"/><g clip-path="url(#a)"><path d="m32 8c0-4.418-3.582-8-8-8-4.887 0-11.113 0-16 0-4.418 0-8 3.582-8 8v16c0 4.418 3.582 8 8 8h16c4.418 0 8-3.582 8-8 0-4.887 0-11.113 0-16z"/><path d="m30 8c0-1.591-.632-3.117-1.757-4.243-1.126-1.125-2.652-1.757-4.243-1.757-4.724 0-11.276 0-16 0-1.591 0-3.117.632-4.243 1.757-1.125 1.126-1.757 2.652-1.757 4.243v16c0 1.591.632 3.117 1.757 4.243 1.126 1.125 2.652 1.757 4.243 1.757h16c1.591 0 3.117-.632 4.243-1.757 1.125-1.126 1.757-2.652 1.757-4.243 0-4.724 0-11.276 0-16z" fill="#e8272e"/><path d="m10.483 23.304c-1.305-1.321-1.957-3.295-1.957-5.921v-2.818c0-2.626.665-4.6 1.996-5.922 1.33-1.321 3.169-1.982 5.517-1.982 2.313 0 4.131.661 5.452 1.982 1.322 1.322 1.983 3.296 1.983 5.922v2.818c0 2.608-.674 4.578-2.022 5.908-1.348 1.331-3.187 1.996-5.517 1.996-2.331 0-4.148-.661-5.452-1.983zm9.574-5.974v-2.582c0-3.391-1.34-5.087-4.018-5.087-1.374 0-2.396.417-3.065 1.252-.67.835-1.004 2.113-1.004 3.835v2.582c0 1.653.334 2.879 1.004 3.679.669.8 1.691 1.2 3.065 1.2 2.678 0 4.018-1.626 4.018-4.879z" fill="#fff" fill-rule="nonzero"/></g></svg>