<svg clip-rule="evenodd" fill-rule="evenodd" stroke-linecap="round" stroke-miterlimit="3" viewBox="0 0 32 32" xmlns="http://www.w3.org/2000/svg" xmlns:xlink="http://www.w3.org/1999/xlink"><clipPath id="a"><path clip-rule="evenodd" d="m0 0h32v32h-32z"/></clipPath><clipPath id="b"><path clip-rule="evenodd" d="m10 10h.109c.532 0 1.004.34 1.173.845.295.887.718 2.155.718 2.155s-4.494.749-5.703.951c-.198.032-.398.049-.598.049-.76 0-2.699 0-2.699 0s.449-.449.921-.921c.712-.712 1.561-1.272 2.496-1.646 1.478-.591 3.583-1.433 3.583-1.433z"/></clipPath><metadata/><path d="m0 0h32v32h-32z" fill="none"/><g clip-path="url(#a)"><g fill="none" stroke="#000" stroke-width="4"><path d="m29 30s-1.485-12.378-2.366-19.715c-.362-3.015-2.92-5.285-5.957-5.285-.786 0-1.589 0-2.351 0-2.734 0-5.32 1.243-7.028 3.378-.718.897-1.298 1.622-1.298 1.622l-2 4 6.462 3.231c.864.432 1.241 1.462.861 2.35-.065.15-.132.307-.202.47-1.358 3.169-1.402 6.747-.121 9.949z"/><path d="m10 10 2 3s-.169.337-.367.734c-.379.759-1.196 1.196-2.037 1.09-2.295-.286-6.596-.824-6.596-.824s.449-.449.921-.921c.712-.712 1.561-1.272 2.496-1.646 1.478-.591 3.583-1.433 3.583-1.433z"/><path d="m30 5h-11l4 6h1.486c.987 0 1.952-.292 2.774-.84.821-.547 1.74-1.16 1.74-1.16l-2-1z" stroke-linejoin="round"/></g><path d="m14.906 7c-.056.177-.137.347-.242.504-.321.481-.809 1.213-1.173 1.76-.313.469-.413 1.048-.276 1.594.293 1.176.785 3.142.785 3.142l-2-1-2.1-2.8.1-.2s.58-.725 1.298-1.622c.103-.129.21-.255.319-.378l1.459-.762s.65-.352 1.181-.352z" fill="#333"/><path d="m24 30h-9c-1.243-3.107-1.238-6.57.005-9.668l1.755-1.585 7.386-4.771zm-9.094-23h10.243c.736.822 1.251 1.851 1.444 3l-.593 1-8.64 6.28s-.3.062-2.066.801c-.169-.357-.454-.661-.832-.85l-6.462-3.231 1.9-3.8 2.1 2.8 2 1s-.492-1.966-.785-3.142c-.137-.546-.037-1.125.276-1.594.364-.547.852-1.279 1.173-1.76.105-.157.186-.327.242-.504z" fill="#d4d5d8"/><path d="m11.617 8c1.702-1.903 4.14-3 6.709-3h2.351c1.765 0 3.368.766 4.472 2h-10.321c-.53 0-1.039.211-1.414.586l-.414.414z" fill="#3b6ed4"/><path d="m24.146 13.976 1.511-.976 1.423 1 1.92 16h-5l-3.879-3.879c-1.358-1.358-2.121-3.2-2.121-5.121z" fill="#3b6ed4"/><path d="m26.593 10c.016.094.03.189.041.285l.446 3.715h-1.423c-1.061 0-2.078.421-2.829 1.172-.643.643-1.451 1.451-2.159 2.159-1.097 1.097-2.436 1.925-3.909 2.416l-1.755.585c.037-.094.076-.188.116-.281.07-.163.137-.32.202-.47.213-.499.188-1.043-.029-1.5 1.766-.739 3.209-2.087 4.066-3.801.794-1.588 1.64-3.28 1.64-3.28l1-1z" fill="#333"/><path d="m10 10h.109c.532 0 1.004.34 1.173.845.295.887.718 2.155.718 2.155s-4.494.749-5.703.951c-.198.032-.398.049-.598.049-.76 0-2.699 0-2.699 0s.449-.449.921-.921c.712-.712 1.561-1.272 2.496-1.646 1.478-.591 3.583-1.433 3.583-1.433z" fill="#313131"/><g clip-path="url(#b)"><path d="m8 10s2.532 2.532 3.567 3.567c.277.277.433.653.433 1.046v.262l4 .125v-7h-7z" fill="#5d8be6"/></g><path d="m3 14 3-1h6s-.216.432-.447.894c-.339.678-1.032 1.106-1.789 1.106-.158 0-.308 0-.433 0-.22 0-.44-.018-.658-.054-1.252-.209-5.673-.946-5.673-.946z" fill="#313131"/><path d="m30 5h-11l-2 2c1.226 0 2.346.693 2.894 1.789.533 1.065 1.106 2.211 1.106 2.211h3.789c.79 0 1.562-.234 2.219-.672.871-.581 1.992-1.328 1.992-1.328l-2-1z" fill="#3b6ed4"/><path d="m18 11s-.657-.219-1.356-.452c-.943-.314-1.974.113-2.419 1.002-.131.261-.225.45-.225.45s.656.219 1.354.451c.945.315 1.977-.112 2.422-1.002.13-.261.224-.449.224-.449z"/></g></svg>