<svg clip-rule="evenodd" fill-rule="evenodd" stroke-linecap="round" stroke-linejoin="round" stroke-miterlimit="1.5" viewBox="0 0 32 32" xmlns="http://www.w3.org/2000/svg" xmlns:xlink="http://www.w3.org/1999/xlink"><clipPath id="a"><path clip-rule="evenodd" d="m0 0h32v32h-32z"/></clipPath><metadata/><path d="m0 0h32v32h-32z" fill="none"/><g clip-path="url(#a)"><path d="m12 25h-9c-.552 0-1-.448-1-1 0-3.541 0-15.459 0-19 0-.552.448-1 1-1h26c.552 0 1 .448 1 1v19c0 .552-.448 1-1 1h-9v2s.889 1.334 1.482 2.223c.102.153.112.35.025.513s-.257.264-.441.264c-2.239 0-7.893 0-10.132 0-.184 0-.354-.101-.441-.264s-.077-.36.025-.513c.593-.889 1.482-2.223 1.482-2.223z" fill="none" stroke="#000" stroke-width="4"/><path d="m20 24h-8v3l1 1h6l1-1z" fill="#8c8c8c"/><path d="m20 27h-8s-.889 1.334-1.482 2.223c-.102.153-.112.35-.025.513s.257.264.441.264h10.132c.184 0 .354-.101.441-.264s.077-.36-.025-.513c-.593-.889-1.482-2.223-1.482-2.223z" fill="#bfbfbf"/><path d="m30 5c0-.552-.448-1-1-1-4.355 0-21.645 0-26 0-.552 0-1 .448-1 1v19c0 .552.448 1 1 1h26c.552 0 1-.448 1-1 0-3.541 0-15.459 0-19z" fill="#d9d9d9"/><path d="m3 5h26v16h-26z" fill="#334cec"/><g fill="#8899f4"><path d="m24 7c0-.552-.448-1-1-1s-1 .448-1 1 .448 1 1 1 1-.448 1-1z"/><path d="m24 10c0-.552-.448-1-1-1s-1 .448-1 1 .448 1 1 1 1-.448 1-1z"/><path d="m24 13c0-.552-.448-1-1-1s-1 .448-1 1 .448 1 1 1 1-.448 1-1z"/><path d="m28 7.5c0-.133-.053-.26-.146-.354-.094-.093-.221-.146-.354-.146-.555 0-1.445 0-2 0-.133 0-.26.053-.354.146-.093.094-.146.221-.146.354s.053.26.146.354c.094.093.221.146.354.146h2c.133 0 .26-.053.354-.146.093-.094.146-.221.146-.354z"/><path d="m28 10.5c0-.133-.053-.26-.146-.354-.094-.093-.221-.146-.354-.146-.555 0-1.445 0-2 0-.133 0-.26.053-.354.146-.093.094-.146.221-.146.354s.053.26.146.354c.094.093.221.146.354.146h2c.133 0 .26-.053.354-.146.093-.094.146-.221.146-.354z"/><path d="m28 13.5c0-.133-.053-.26-.146-.354-.094-.093-.221-.146-.354-.146-.555 0-1.445 0-2 0-.133 0-.26.053-.354.146-.093.094-.146.221-.146.354s.053.26.146.354c.094.093.221.146.354.146h2c.133 0 .26-.053.354-.146.093-.094.146-.221.146-.354z"/></g></g></svg>