<svg clip-rule="evenodd" fill-rule="evenodd" stroke-linecap="square" stroke-linejoin="round" stroke-miterlimit="1.5" viewBox="0 0 32 32" xmlns="http://www.w3.org/2000/svg" xmlns:xlink="http://www.w3.org/1999/xlink"><clipPath id="a"><path clip-rule="evenodd" d="m0 0h32v32h-32z"/></clipPath><metadata/><path d="m0 0h32v32h-32z" fill="none"/><g clip-path="url(#a)"><path d="m26.488 27.131c-2.356 1.8-5.298 2.869-8.488 2.869-7.727 0-14-6.273-14-14s6.273-14 14-14c3.19 0 6.132 1.069 8.488 2.869-1.387-.561-2.902-.869-4.488-.869-6.623 0-12 5.377-12 12s5.377 12 12 12c1.586 0 3.101-.308 4.488-.869z" fill="none" stroke="#000" stroke-width="4"/><path d="m26.488 27.131c-2.356 1.8-5.298 2.869-8.488 2.869-7.727 0-14-6.273-14-14s6.273-14 14-14c3.19 0 6.132 1.069 8.488 2.869-1.387-.561-2.902-.869-4.488-.869-6.623 0-12 5.377-12 12s5.377 12 12 12c1.586 0 3.101-.308 4.488-.869z" fill="#fbc546"/></g></svg>