<svg clip-rule="evenodd" fill-rule="evenodd" stroke-linejoin="round" stroke-miterlimit="1.41421" viewBox="0 0 32 32" xmlns="http://www.w3.org/2000/svg" xmlns:xlink="http://www.w3.org/1999/xlink"><clipPath id="a"><path clip-rule="evenodd" d="m0 0h32v32h-32z"/></clipPath><metadata/><path d="m0 0h32v32h-32z" fill="none"/><g clip-path="url(#a)"><path d="m0 0h32v32h-32z"/><path d="m30 2h-28v22l1 .5-1 .5v5h28v-5l-1-.5 1-.5z" fill="#4d4d4d"/><path d="m4 26h2v1h-2z" fill="#808080"/><path d="m4 28h2v1h-2z" fill="#808080"/><path d="m2 24h28v1h-28z" fill="#333"/><g fill="#808080"><path d="m7 26h2v1h-2z"/><path d="m7 28h2v1h-2z"/><path d="m10 26h2v1h-2z"/></g><path d="m25 26h3v3h-3z" fill="#219555"/><circle cx="14.5" cy="27.5" fill="#333" r="1.5"/><circle cx="18.5" cy="27.5" fill="#333" r="1.5"/><circle cx="22.5" cy="27.5" fill="#333" r="1.5"/><path d="m10 28h2v1h-2z" fill="#808080"/><path d="m28 6c0-.53-.211-1.039-.586-1.414s-.884-.586-1.414-.586c-4.52 0-15.48 0-20 0-.53 0-1.039.211-1.414.586s-.586.884-.586 1.414v14c0 .53.211 1.039.586 1.414s.884.586 1.414.586h20c.53 0 1.039-.211 1.414-.586s.586-.884.586-1.414c0-3.463 0-10.537 0-14z"/><path d="m22.612 5.001c.148.006.296.015.443.033.364.045.723.136 1.065.268.55.212 1.056.532 1.482.938.507.483.899 1.084 1.135 1.743.111.311.188.634.229.962.018.148.027.295.033.443.013 1.037.001 2.075.001 3.112-.006.234-.053.46-.158.671-.081.161-.191.307-.323.43-.132.122-.287.221-.454.288-.143.059-.295.095-.449.107-.548.042-1.087-.228-1.382-.691-.096-.152-.165-.322-.202-.498-.016-.076-.024-.152-.03-.23-.027-1.05.035-2.102-.004-3.152-.009-.147-.036-.292-.086-.431-.142-.395-.45-.719-.838-.88-.159-.066-.328-.101-.5-.112-2.356-.088-4.716-.002-7.074-.002-.078-.002-.154-.006-.231-.018-.178-.028-.351-.088-.508-.177-.478-.27-.775-.795-.761-1.344.004-.154.032-.308.083-.454.06-.17.15-.329.265-.468.116-.138.256-.256.413-.344.205-.116.428-.175.662-.193 2.395-.062 4.793-.03 7.189-.001z" fill="#333" fill-rule="nonzero"/></g></svg>