<svg clip-rule="evenodd" fill-rule="evenodd" stroke-linejoin="round" stroke-miterlimit="1.41421" viewBox="0 0 32 32" xmlns="http://www.w3.org/2000/svg"><metadata/><path d="m0 0h32v32h-32z" fill="none"/><path d="m20.131 6c.915.015 1.829.156 2.699.444.583.194 1.146.441 1.679.747 1.062.609 1.997 1.435 2.731 2.416.467.623.853 1.307 1.143 2.03.131.324.24.656.334.993.851 3.185 1.601 6.397 2.401 9.596.111.47.158.951.125 1.434-.048.7-.256 1.386-.604 1.995-.309.54-.726 1.016-1.22 1.392-.664.506-1.461.827-2.29.923-.28.032-.566.044-.847.014-.44-.047-.867-.193-1.244-.426-.173-.106-.334-.231-.482-.37-.226-.215-.41-.463-.563-.734-.498-.955-.942-1.939-1.449-2.89-.128-.229-.28-.441-.46-.631-.379-.399-.866-.688-1.397-.831-.219-.059-.444-.09-.671-.1-2.676-.071-5.356-.071-8.032 0-.227.01-.452.041-.671.1-.531.143-1.018.432-1.397.831-.18.19-.332.402-.46.631-.493.926-.94 1.877-1.41 2.816-.141.269-.315.518-.529.735-.166.169-.352.318-.554.443-.377.233-.805.379-1.245.426-.281.03-.567.018-.847-.014-.785-.091-1.542-.384-2.184-.845-.541-.388-.996-.892-1.326-1.47-.327-.571-.53-1.21-.593-1.865-.034-.35-.028-.704.018-1.053.017-.133.042-.263.068-.394.765-3.249 1.567-6.489 2.429-9.713.103-.368.224-.729.37-1.081.286-.69.659-1.344 1.107-1.942.734-.981 1.669-1.807 2.731-2.416.533-.306 1.096-.553 1.679-.747.84-.278 1.72-.419 2.603-.442 2.785-.045 5.572-.016 8.358-.002z"/><path d="m5.404 26c-.818 0-1.591-.377-2.095-1.022-.503-.645-.682-1.487-.483-2.281.656-2.626 1.588-6.352 2.348-9.395.779-3.116 3.579-5.302 6.791-5.302h8.07c3.212 0 6.012 2.186 6.791 5.302.76 3.043 1.692 6.769 2.348 9.395.199.794.02 1.636-.483 2.281-.504.645-1.277 1.022-2.095 1.022-.001 0-.001 0-.001 0-.365 0-.698-.206-.861-.532-.308-.616-.839-1.679-1.352-2.704-.847-1.694-2.578-2.764-4.472-2.764-2.324 0-5.496 0-7.82 0-1.894 0-3.625 1.07-4.472 2.764-.513 1.025-1.044 2.088-1.352 2.704-.163.326-.496.532-.861.532 0 0 0 0-.001 0z" fill="#333"/><circle cx="21.5" cy="16.5" fill="#199d4e" r="1.5"/><circle cx="24.5" cy="13.5" fill="#e02a33" r="1.5"/><circle cx="18.5" cy="13.5" fill="#334cec" r="1.5"/><circle cx="21.5" cy="10.5" fill="#ef9b00" r="1.5"/><circle cx="10.5" cy="13.5" fill="#ccc" r="3.5"/><circle cx="10.5" cy="13.5" fill="#666" r="2.5"/></svg>