<svg clip-rule="evenodd" fill-rule="evenodd" stroke-linejoin="round" stroke-miterlimit="1.41421" viewBox="0 0 32 32" xmlns="http://www.w3.org/2000/svg" xmlns:xlink="http://www.w3.org/1999/xlink"><clipPath id="a"><path clip-rule="evenodd" d="m0 0h32v32h-32z"/></clipPath><clipPath id="b"><path clip-rule="evenodd" d="m2 6h28v20h-28z"/></clipPath><metadata/><path d="m0 0h32v32h-32z" fill="none"/><g clip-path="url(#a)"><path d="m32 6c0-.53-.211-1.039-.586-1.414s-.884-.586-1.414-.586c-5.746 0-22.254 0-28 0-.53 0-1.039.211-1.414.586s-.586.884-.586 1.414v20c0 .53.211 1.039.586 1.414s.884.586 1.414.586h28c.53 0 1.039-.211 1.414-.586s.586-.884.586-1.414c0-4.52 0-15.48 0-20z"/><path d="m2 6h28v20h-28z" fill="none"/><g clip-path="url(#b)"><path d="m1 22h30v5h-30z" fill="#84222f"/><path d="m1 19h30v4.143h-30z" fill="#cf4260"/><path d="m1 16.5h30v3.786h-30z" fill="#da84b2"/><path d="m1 14h30v3.429h-30z" fill="#fff"/><path d="m1 11h30v3.571h-30z" fill="#b64883"/><path d="m1 8h30v3.714h-30z" fill="#a43d96"/><path d="m1 5h30v3.857h-30z" fill="#811454"/></g></g></svg>