<svg clip-rule="evenodd" fill-rule="evenodd" stroke-linejoin="round" stroke-miterlimit="1.41421" viewBox="0 0 32 32" xmlns="http://www.w3.org/2000/svg"><metadata/><path d="m0 0h32v32h-32z" fill="none"/><path d="m19.221.012.146.022.145.033.142.043.138.054.134.063.129.074.123.082.116.092.109.1.102.108.094.115.084.122.076.127.065.133.056.138.045.141.035.144.024.146.013.148.002.148-.008.148-.02.147-.031.145-2.378 9.515h6.438l.147.005.147.017.145.027.143.038.139.048.136.058.131.068.126.078.119.086.113.095.105.104.098.111.089.117.08.124.071.13.061.134.051.138.041.142.03.145.019.146.009.147-.003.148-.013.147-.024.146-.035.143-.045.141-.056.136-.065.133-.075.127-.084.121-12 16-.093.115-.102.108-.109.1-.117.092-.122.083-.129.074-.134.064-.138.053-.142.044-.144.033-.147.022-.148.011h-.148l-.148-.011-.146-.022-.145-.033-.142-.043-.138-.054-.134-.063-.129-.074-.123-.082-.116-.092-.11-.1-.101-.108-.094-.115-.084-.122-.076-.127-.065-.133-.056-.138-.045-.141-.035-.144-.024-.146-.013-.148-.003-.148.009-.148.02-.147.031-.145 2.378-9.515h-6.438l-.147-.005-.147-.017-.145-.027-.143-.038-.139-.048-.136-.058-.131-.068-.125-.078-.12-.086-.113-.095-.105-.104-.098-.111-.089-.117-.08-.124-.071-.13-.061-.134-.051-.138-.041-.142-.03-.145-.019-.146-.009-.147.003-.148.013-.147.024-.146.035-.143.045-.141.056-.136.065-.133.075-.127.084-.121 12-16 .093-.115.102-.108.109-.1.116-.092.123-.083.129-.074.134-.064.138-.053.142-.044.144-.033.147-.022.148-.011h.148l.148.011zm-12.221 17.988h9l-3 12 12-16h-9l3-12z"/><path d="m19 2-12 16h9l-3 12 12-16h-9z" fill="#fdef24"/></svg>