<svg clip-rule="evenodd" fill-rule="evenodd" stroke-linecap="round" stroke-linejoin="round" stroke-miterlimit="1.5" viewBox="0 0 32 32" xmlns="http://www.w3.org/2000/svg" xmlns:xlink="http://www.w3.org/1999/xlink"><clipPath id="a"><path clip-rule="evenodd" d="m0 0h32v32h-32z"/></clipPath><metadata/><path d="m0 0h32v32h-32z" fill="none"/><g clip-path="url(#a)"><path d="m11.613 11.829c.076-2.614.934-5.225 2.612-7.462 1.044-1.393 1.775-2.367 1.775-2.367s.731.974 1.775 2.367c1.678 2.237 2.536 4.848 2.612 7.462 2.055-1.772 4.726-2.829 7.613-2.829s-.067.367-.176.967c-.52 2.86-1.84 5.434-3.725 7.481 2.015-.091 4.073.409 5.9 1.552h.001c-1.061 2.122-2.921 3.735-5.172 4.485-.479.16-.968.278-1.461.354.401.623.633 1.365.633 2.161s-.937 0-2 0c-1.889 0-3.667-.889-4.8-2.4l-.2-.267v6.667h-2v-6.667l-.2.267c-1.133 1.511-2.911 2.4-4.8 2.4-1.063 0-2 0-2 0s0-.001 0-.002c0-.973.348-1.865.926-2.558-.508-.092-1.011-.226-1.504-.403-2.419-.868-4.378-2.687-5.421-5.036-.001-.001-.001-.001-.001-.001h.001c1.725-.863 3.588-1.22 5.407-1.115-1.622-1.947-2.759-4.314-3.232-6.918-.109-.6-.176-.967-.176-.967 2.887 0 5.558 1.057 7.613 2.829z" fill="none" stroke="#000" stroke-width="4"/><path d="m15 20h2v10h-2z" fill="#7c1414"/><path d="m11.613 11.831c.075-2.614.934-5.227 2.612-7.464 1.044-1.393 1.775-2.367 1.775-2.367s.731.974 1.775 2.367c1.678 2.237 2.537 4.85 2.612 7.464 2.054-1.773 4.725-2.831 7.613-2.831s-.067.367-.176.967c-.52 2.861-1.841 5.436-3.727 7.482 2.015-.092 4.074.408 5.902 1.551h.001c-1.061 2.122-2.921 3.735-5.172 4.485-.48.161-.97.279-1.464.352.403.624.636 1.366.636 2.163s-.937 0-2 0c-1.889 0-3.667-.889-4.8-2.4-.139-.185-.274-.365-.4-.533-.189-.252-.485-.4-.8-.4s-.611.148-.8.4c-.126.168-.261.348-.4.533-1.133 1.511-2.911 2.4-4.8 2.4-1.063 0-2 0-2 0s0-.001 0-.002c0-.974.348-1.866.927-2.559-.509-.091-1.012-.225-1.505-.402-2.419-.868-4.378-2.687-5.421-5.036-.001-.001-.001-.001-.001-.001h.001c1.726-.863 3.59-1.22 5.41-1.114-1.624-1.947-2.762-4.314-3.235-6.919-.109-.6-.176-.967-.176-.967 2.888 0 5.559 1.058 7.613 2.831z" fill="#b11522"/><path d="m17.775 4.367.079.105.076.106.076.106.074.107.074.107.072.108.071.108.069.109.069.109.067.11.066.11.065.111.064.111.062.111.062.112.06.113.059.112.057.114.057.113.055.114.055.114.053.115.052.115.05.116.05.115.048.117.047.116.046.117.045.117.043.117.043.118.041.118.04.118.039.118.038.119.036.119.036.119.034.12.033.119.032.12.031.12.029.121.029.12.027.121.026.121.025.121.023.121.023.121.021.122.021.121.019.122.018.122.016.122.016.122.014.122.014.122.012.122.011.123.01.122.008.123.008.122.006.123.006.122.004.123.096-.083.098-.081.099-.081.099-.079.1-.079.101-.077.102-.076.103-.075.104-.074.104-.073.106-.071.106-.071.107-.069.107-.069.109-.067.109-.066.11-.064.111-.064.111-.062.112-.062.113-.06.114-.058.114-.058.115-.056.116-.055.116-.054.117-.053.118-.051.118-.05.119-.049.12-.047.12-.047.121-.044.121-.044.122-.042.123-.041.123-.04.124-.038.124-.037.125-.036.125-.034.126-.033.126-.031.127-.031.128-.028.128-.028.128-.026.129-.024.129-.023.13-.022.13-.02.131-.019.131-.017.132-.016.132-.014.132-.013.133-.011.133-.01.133-.009.134-.007.134-.005.135-.004.135-.002.135-.001-.176.967-.025.133-.026.134-.027.133-.029.133-.029.132-.031.132-.032.131-.033.131-.034.13-.035.13-.037.129-.037.129-.039.129-.04.128-.04.127-.042.127-.043.127-.045.126-.045.125-.046.125-.047.124-.049.124-.049.123-.05.123-.052.122-.052.122-.054.121-.055.12-.055.12-.057.12-.058.118-.058.119-.06.117-.061.117-.061.116-.063.116-.063.115-.065.115-.066.114-.066.113-.068.112-.068.112-.069.112-.071.11-.071.11-.072.109-.073.109-.074.108-.075.107-.076.107-.077.106-.077.105-.079.104-.079.104-.081.103-.081.102-.082.102-.083.101-.084.1-.084.099-.086.099-.086.098-.087.097-.088.096.094-.004.095-.003.094-.002.095-.001.095-.001.095.001.094.001.095.002.095.003.095.004.095.005.094.006.095.007.095.007.095.008.094.01.095.01.095.011.094.012.095.013.094.013.095.015.094.015.094.017.094.017.094.018.094.019.094.02.094.021.093.022.094.023.093.023.094.025.093.025.093.026.092.028.093.028.092.029.093.03.092.031.092.031.091.033.092.034.091.034.091.035.091.037.091.037.09.038.09.039.09.04.09.041.089.042.09.043.088.044.089.044.088.046.088.047.088.047.088.048.087.05.087.05.086.051.086.052.087.054-.05.099-.052.099-.053.097-.053.097-.055.096-.056.095-.057.095-.059.093-.059.093-.06.092-.062.091-.062.091-.064.089-.065.089-.065.088-.067.087-.068.086-.069.085-.07.084-.07.084-.072.082-.073.082-.074.08-.074.08-.076.079-.076.078-.078.076-.078.076-.08.075-.08.074-.081.073-.082.072-.083.071-.083.07-.085.069-.085.068-.086.067-.088.066-.087.064-.089.064-.09.063-.09.061-.091.061-.092.059-.092.058-.093.058-.095.056-.094.054-.096.054-.096.053-.097.051-.098.051-.098.049-.099.048-.099.047-.101.045-.101.045-.101.043-.102.042-.103.041-.104.039-.104.039-.104.037-.106.035-.09.03-.09.028-.091.028-.091.027-.091.025-.091.025-.091.023-.092.023-.091.021-.092.021-.092.019-.092.019-.093.017-.092.016-.092.016-.093.014.037.059.037.059.035.061.034.06.033.062.032.062.031.063.03.063.029.064.028.065.027.065.025.065.025.067.023.067.022.067.021.068.02.068.018.069.018.069.016.07.015.07.014.071.012.071.011.072.01.072.009.072.007.073.006.073.005.073.003.074.002.074.001.075h-2l-.088-.001-.089-.002-.088-.003-.088-.004-.087-.006-.088-.007-.087-.009-.087-.009-.087-.011-.086-.012-.086-.013-.086-.015-.086-.016-.085-.017-.085-.018-.084-.02-.085-.02-.083-.022-.084-.023-.083-.024-.083-.026-.082-.026-.082-.028-.081-.029-.081-.03-.08-.031-.08-.033-.08-.033-.079-.035-.078-.036-.078-.036-.077-.038-.077-.04-.076-.04-.076-.041-.075-.042-.075-.044-.073-.044-.074-.046-.072-.047-.072-.047-.071-.049-.071-.05-.07-.051-.069-.052-.069-.053-.067-.054-.068-.055-.066-.056-.065-.057-.065-.058-.064-.058-.063-.06-.063-.061-.061-.062-.061-.063-.06-.064-.059-.065-.058-.065-.057-.067-.056-.068-.056-.068-.054-.07-.054-.07-.4-.533-.018-.024-.019-.022-.019-.022-.02-.022-.02-.021-.021-.02-.021-.019-.022-.019-.023-.018-.023-.018-.023-.016-.024-.017-.024-.015-.025-.015-.025-.014-.026-.013-.026-.012-.026-.012-.026-.011-.027-.01-.028-.01-.027-.008-.028-.008-.028-.007-.028-.007-.028-.005-.029-.005-.029-.003-.029-.003-.029-.003-.03-.001h-.029-.029l-.03.001-.029.003-.029.003-.029.003-.029.005-.028.005-.028.007-.028.007-.028.008-.027.008-.028.01-.027.01-.026.011-.026.012-.026.012-.026.013-.025.014-.025.015-.024.015-.024.017-.023.016-.023.018-.023.018-.022.019-.021.019-.021.02-.02.021-.02.022-.019.022-.019.022-.018.024-.4.533-.054.07-.054.07-.056.068-.056.068-.057.067-.058.065-.059.065-.06.064-.061.063-.061.062-.063.061-.063.06-.064.058-.065.058-.065.057-.066.056-.068.055-.067.054-.069.053-.069.052-.07.051-.071.05-.071.049-.072.047-.072.047-.074.046-.073.044-.075.044-.075.042-.076.041-.076.04-.077.04-.077.038-.078.036-.078.036-.079.035-.08.033-.08.033-.08.031-.081.03-.081.029-.082.028-.082.026-.083.026-.083.024-.084.023-.083.022-.085.02-.084.02-.085.018-.085.017-.086.016-.086.015-.086.013-.086.012-.087.011-.087.009-.087.009-.088.007-.087.006-.088.004-.088.003-.089.002-.088.001h-2v-.002l.001-.091.003-.091.005-.09.007-.089.009-.089.011-.088.013-.088.014-.087.017-.087.018-.085.021-.085.022-.085.023-.083.026-.083.027-.082.029-.082.031-.08.032-.08.035-.079.035-.077.037-.077.039-.076.041-.076.042-.074.043-.073.045-.072.047-.071.048-.07.049-.069.051-.068.052-.066.054-.066-.096-.018-.095-.018-.095-.02-.095-.021-.095-.021-.094-.023-.095-.023-.094-.025-.094-.026-.094-.026-.093-.028-.094-.029-.093-.029-.093-.031-.093-.032-.092-.032-.113-.042-.113-.042-.111-.044-.111-.046-.11-.047-.11-.048-.109-.05-.108-.05-.107-.053-.107-.053-.105-.055-.105-.056-.104-.057-.104-.059-.102-.06-.102-.061-.101-.062-.1-.064-.099-.065-.098-.066-.097-.067-.097-.068-.096-.07-.094-.071-.094-.072-.093-.073-.092-.074-.091-.075-.09-.077-.088-.077-.088-.079-.087-.08-.086-.081-.085-.082-.084-.083-.083-.084-.082-.085-.081-.086-.08-.087-.078-.088-.078-.089-.076-.091-.076-.091-.074-.092-.073-.093-.072-.094-.071-.095-.069-.096-.069-.097-.067-.098-.066-.099-.065-.099-.063-.101-.063-.101-.061-.103-.06-.103-.059-.104-.057-.105-.056-.105-.055-.107-.054-.107-.052-.108-.051-.109-.049-.11-.001-.001h.001l.081-.041.081-.039.163-.076.164-.074.164-.07.165-.068.166-.065.166-.062.167-.058.168-.056.168-.054.168-.05.169-.047.17-.045.169-.041.17-.039.171-.036.17-.033.171-.03.171-.027.172-.025.171-.022.171-.019.172-.016.172-.013.171-.011.172-.008.171-.005.172-.002h.171l.171.004.171.006.171.008-.076-.091-.075-.093-.074-.092-.074-.094-.073-.094-.072-.094-.071-.096-.071-.095-.07-.097-.069-.097-.068-.097-.068-.098-.067-.099-.066-.099-.065-.1-.065-.1-.064-.101-.063-.101-.062-.102-.062-.103-.06-.103-.06-.103-.059-.104-.059-.105-.057-.105-.057-.106-.055-.106-.055-.106-.055-.108-.053-.107-.052-.108-.052-.109-.051-.109-.05-.109-.049-.11-.048-.111-.048-.111-.046-.111-.046-.112-.045-.113-.044-.112-.043-.114-.042-.113-.041-.114-.041-.115-.039-.115-.039-.115-.037-.116-.037-.116-.036-.117-.035-.117-.034-.117-.033-.118-.032-.118-.032-.119-.03-.119-.029-.119-.029-.12-.027-.12-.027-.121-.025-.121-.025-.121-.024-.121-.022-.122-.176-.967.135.001.135.002.135.004.134.005.134.007.133.009.133.01.133.011.132.013.132.014.132.016.131.017.131.019.13.02.13.022.129.023.129.024.128.026.128.028.128.028.127.031.126.031.126.033.125.034.125.036.124.037.124.038.123.04.123.041.122.042.121.044.121.044.12.047.12.047.119.049.118.05.118.051.117.053.116.054.116.055.115.056.114.058.114.058.113.06.112.062.111.062.111.064.11.064.109.066.109.067.107.069.107.069.106.071.106.071.104.073.104.074.103.075.102.076.101.077.1.079.099.079.099.081.098.081.096.083.004-.123.006-.122.006-.123.008-.122.008-.123.01-.122.011-.123.012-.122.014-.122.014-.122.016-.122.016-.122.018-.122.019-.122.021-.121.021-.122.023-.121.023-.121.025-.121.026-.121.027-.121.029-.12.029-.121.031-.12.032-.12.033-.119.034-.12.036-.119.036-.119.038-.119.039-.118.04-.118.041-.118.043-.118.043-.117.045-.117.046-.117.047-.116.048-.117.05-.115.05-.116.052-.115.053-.115.055-.114.055-.114.057-.113.057-.114.059-.112.06-.113.062-.112.062-.111.064-.111.065-.111.066-.11.067-.11.069-.109.069-.109.071-.108.072-.108.074-.107.074-.107.076-.106.076-.106.079-.105 1.775-2.367 1.775 2.367zm-1.948 1.196-.069.094-.065.089-.064.091-.063.09-.063.091-.061.092-.06.092-.059.092-.058.092-.057.093-.056.094-.055.093-.054.094-.053.095-.052.095-.051.095-.05.095-.049.096-.048.096-.047.097-.045.097-.045.097-.044.097-.043.098-.042.098-.041.098-.04.098-.038.099-.038.099-.037.1-.036.099-.035.1-.034.1-.033.1-.032.101-.031.1-.03.101-.029.101-.028.102-.027.101-.026.102-.025.102-.024.101-.023.103-.022.102-.021.102-.02.103-.019.103-.018.103-.017.103-.016.103-.016.103-.014.103-.013.103-.012.104-.011.103-.011.104-.009.104-.008.103-.008.104-.006.104-.006.103-.004.104-.143 4.264-3.247-2.772-.081-.067-.081-.067-.083-.066-.083-.065-.084-.064-.084-.063-.085-.062-.086-.061-.087-.061-.087-.059-.088-.059-.089-.057-.089-.057-.09-.055-.09-.055-.091-.053-.092-.053-.092-.052-.093-.05-.094-.05-.094-.049-.095-.048-.095-.046-.096-.046-.096-.044-.097-.044-.097-.042-.098-.042-.099-.04-.099-.04-.099-.038-.1-.037-.101-.036-.101-.035-.101-.034-.102-.033-.102-.031-.103-.031-.103-.029-.013-.004.004.011.033.1.034.1.035.099.036.099.037.098.037.098.038.098.039.097.039.097.041.097.041.096.042.096.042.095.043.095.044.094.045.094.046.094.046.093.047.093.047.092.049.092.049.092.05.091.05.09.051.091.052.089.053.089.053.089.054.089.054.087.056.088.056.087.056.086.058.086.058.086.058.085.06.084.06.084.06.084.061.083.062.082.063.082.063.081.064.081.064.081.065.08 2.97 3.587-4.696-.237-.139-.005-.139-.003h-.139l-.14.002-.139.004-.14.006-.139.009-.14.011-.139.013-.139.015-.14.018-.139.02-.139.022-.138.025-.139.027-.051.01.022.026.062.07.063.068.063.068.065.067.065.066.066.066.067.064.068.064.068.063.07.062.07.061.07.06.072.059.072.059.073.057.074.057.075.056.075.054.076.054.077.053.077.052.078.051.079.05.079.049.08.049.081.047.081.046.082.045.083.044.083.043.084.042.085.041.085.041.085.039.087.037.086.037.088.036.088.035.088.034.09.033.072.025.073.025.073.024.074.023.073.023.074.022.074.021.073.02.074.019.075.019.074.017.074.017.075.016.074.016.075.014 3.41.63-1.413 1.729h.001l.055-.018.054-.018.054-.02.054-.02.054-.021.053-.021.053-.023.053-.023.052-.023.052-.025.052-.025.051-.026.051-.027.05-.028.05-.028.05-.029.049-.03.049-.03.049-.031.047-.032.048-.033.047-.033.047-.034.046-.034.046-.036.045-.035.044-.037.045-.038.043-.037.043-.039.043-.039.042-.04.042-.041.041-.041.04-.042.04-.042.039-.044.039-.043.038-.045.038-.045.037-.046.036-.046.04-.053.405-.539.045-.058.056-.068.057-.066.06-.065.061-.062.063-.06.064-.059.066-.057.068-.054.068-.052.071-.051.072-.048.072-.046.074-.044.076-.042.077-.04.077-.037.078-.035.08-.033.081-.031.082-.028.082-.026.083-.024.084-.021.085-.019.085-.016.087-.015.086-.011.087-.009.088-.006.088-.004.088-.002.088.002.088.004.088.006.087.009.086.011.087.015.085.016.085.019.084.021.083.024.083.026.081.028.08.031.08.032.079.036.078.037.076.04.075.042.074.043.074.047.071.048.071.05.069.053.067.054.066.057.064.059.063.06.061.062.059.064.058.067.056.068.045.058.405.539.04.053.036.046.037.046.038.045.038.045.039.043.039.043.04.043.04.042.041.041.042.041.042.04.043.039.043.039.043.038.045.037.044.037.045.035.046.036.046.034.047.034.047.033.048.033.047.032.049.031.049.03.049.03.049.029.051.028.05.028.051.027.051.026.052.025.052.025.052.023.053.024.053.022.053.021.054.021.054.02.054.02.054.018.055.018.055.017.056.016.055.015.056.015.003.001-.983-1.551 3.101-.48.071-.012.07-.012.071-.014.07-.014.071-.015.07-.015.071-.017.07-.017.071-.018.07-.019.07-.02.071-.021.07-.021.07-.022.069-.023.083-.028.081-.029.081-.029.08-.031.08-.032.079-.032.079-.034.078-.034.078-.036.078-.036.076-.037.077-.038.075-.04.076-.04.075-.04.074-.042.073-.043.073-.043.073-.045.071-.045.072-.046.07-.047.071-.048.069-.048.069-.05.068-.05.068-.051.067-.052.066-.053.066-.053.064-.055.065-.055.063-.056.063-.056.063-.058.061-.058.061-.059.06-.059.06-.061.029-.03-.017-.005-.075-.023-.074-.022-.075-.021-.075-.02-.075-.02-.075-.019-.075-.018-.075-.018-.075-.016-.076-.016-.075-.016-.076-.014-.076-.014-.075-.014-.076-.012-.076-.012-.076-.011-.076-.01-.076-.01-.076-.009-.077-.008-.076-.007-.076-.007-.076-.006-.077-.005-.076-.005-.076-.004-.077-.003-.076-.002-.076-.002-.077-.001-.076-.001-.076.001-.076.001-.077.001-.076.003-4.883.2 3.321-3.634.076-.084.075-.085.074-.085.073-.087.073-.086.072-.088.071-.088.07-.089.07-.089.069-.09.068-.09.067-.091.067-.092.065-.092.065-.093.065-.094.063-.094.062-.095.062-.095.061-.096.06-.096.059-.097.059-.098.057-.098.057-.099.056-.099.055-.1.055-.1.053-.101.053-.101.051-.102.051-.102.05-.103.049-.103.048-.104.048-.105.046-.104.046-.106.044-.106.044-.106.043-.107.042-.107.041-.108.04-.108.039-.109.038-.109.037-.109.023-.069-.013.004-.103.029-.103.031-.102.031-.102.033-.102.034-.1.035-.101.036-.1.037-.099.038-.099.04-.099.04-.098.042-.097.042-.097.044-.096.044-.096.046-.095.046-.095.048-.094.049-.094.049-.093.051-.092.052-.092.052-.091.054-.09.055-.09.055-.089.057-.089.057-.088.059-.087.059-.087.061-.086.061-.085.062-.084.063-.084.064-.083.065-.083.066-.081.067-.081.067-3.248 2.772-.142-4.264-.004-.104-.006-.103-.006-.104-.008-.104-.008-.103-.009-.104-.011-.104-.011-.103-.012-.104-.013-.103-.014-.103-.016-.103-.016-.103-.017-.103-.018-.103-.019-.103-.02-.103-.021-.102-.022-.102-.023-.102-.024-.102-.025-.102-.026-.102-.027-.101-.028-.102-.029-.101-.03-.101-.031-.101-.032-.1-.033-.1-.034-.1-.035-.1-.036-.099-.037-.1-.037-.099-.039-.099-.04-.098-.041-.098-.042-.098-.043-.098-.044-.097-.045-.098-.045-.096-.047-.097-.048-.096-.049-.096-.05-.095-.051-.095-.052-.095-.053-.095-.054-.094-.055-.093-.056-.094-.057-.093-.058-.092-.059-.093-.06-.091-.061-.092-.062-.091-.064-.09-.064-.091-.065-.089-.069-.094-.173-.23z" fill="#c91818"/></g></svg>