<?xml version="1.0" encoding="UTF-8" standalone="no"?><!DOCTYPE svg PUBLIC "-//W3C//DTD SVG 1.1//EN" "http://www.w3.org/Graphics/SVG/1.1/DTD/svg11.dtd"><svg width="100%" height="100%" viewBox="0 0 32 32" version="1.1" xmlns="http://www.w3.org/2000/svg" xmlns:xlink="http://www.w3.org/1999/xlink" xml:space="preserve" xmlns:serif="http://www.serif.com/" style="fill-rule:evenodd;clip-rule:evenodd;stroke-linejoin:round;stroke-miterlimit:1.41421;">
<metadata>
<rdf:RDF xmlns:cc="http://web.resource.org/cc/"
         xmlns:rdf="http://www.w3.org/1999/02/22-rdf-syntax-ns#"
         xmlns:dc = "http://purl.org/dc/elements/1.1/"
         >

     <rdf:Description rdf:about="">
       <dc:title>Mutant Standard S3</dc:title>
     </rdf:Description>

    <cc:work rdf:about="">
        <cc:license rdf:resource="http://creativecommons.org/licenses/by-nc-sa/4.0/"/>
        <cc:attributionName>Dzuk</cc:attributionName>
        <cc:attributionURL>http://mutant.tech/</cc:attributionURL>
    </cc:work>

</rdf:RDF>
</metadata>
<rect id="rave" x="0" y="0" width="32" height="32" style="fill:none;"/><clipPath id="_clip1"><rect x="0" y="0" width="32" height="32"/></clipPath><g clip-path="url(#_clip1)"><g id="outline"><path d="M16.206,0.001l0.206,0.004l0.205,0.007l0.205,0.009l0.204,0.011l0.203,0.015l0.203,0.016l0.202,0.019l0.201,0.022l0.2,0.024l0.2,0.027l0.199,0.029l0.198,0.032l0.198,0.034l0.197,0.036l0.195,0.039l0.195,0.041l0.195,0.044l0.193,0.046l0.192,0.048l0.192,0.05l0.19,0.053l0.19,0.055l0.188,0.058l0.188,0.059l0.186,0.062l0.186,0.064l0.184,0.066l0.184,0.069l0.182,0.07l0.181,0.073l0.181,0.075l0.179,0.077l0.177,0.079l0.177,0.081l0.176,0.084l0.174,0.085l0.173,0.087l0.172,0.09l0.171,0.091l0.169,0.094l0.169,0.095l0.166,0.097l0.166,0.1l0.164,0.101l0.163,0.103l0.162,0.105l0.16,0.107l0.159,0.108l0.158,0.111l0.156,0.112l0.154,0.115l0.153,0.116l0.152,0.117l0.151,0.12l0.148,0.121l0.148,0.123l0.145,0.125l0.145,0.127l0.142,0.128l0.142,0.13l0.139,0.131l0.138,0.133l0.137,0.135l0.135,0.137l0.133,0.138l0.131,0.139l0.13,0.142l0.128,0.142l0.127,0.145l0.125,0.145l0.123,0.148l0.121,0.148l0.12,0.151l0.117,0.152l0.116,0.153l0.115,0.154l0.112,0.156l0.111,0.158l0.108,0.159l0.107,0.16l0.105,0.162l0.103,0.163l0.101,0.164l0.1,0.166l0.097,0.166l0.095,0.169l0.094,0.169l0.091,0.171l0.09,0.172l0.087,0.173l0.085,0.174l0.084,0.176l0.081,0.177l0.079,0.177l0.077,0.179l0.075,0.181l0.073,0.181l0.07,0.182l0.069,0.184l0.066,0.184l0.064,0.186l0.062,0.186l0.059,0.188l0.058,0.188l0.055,0.19l0.053,0.19l0.05,0.192l0.048,0.192l0.046,0.193l0.044,0.195l0.041,0.195l0.039,0.195l0.036,0.197l0.034,0.198l0.032,0.198l0.029,0.199l0.027,0.2l0.024,0.2l0.022,0.202l0.019,0.201l0.016,0.203l0.015,0.203l0.011,0.204l0.009,0.205l0.007,0.205l0.004,0.206l0.001,0.2l0,0.012l-0.001,0.2l-0.004,0.206l-0.007,0.205l-0.009,0.205l-0.011,0.204l-0.015,0.203l-0.016,0.203l-0.019,0.201l-0.022,0.202l-0.024,0.2l-0.027,0.2l-0.029,0.199l-0.032,0.198l-0.034,0.198l-0.036,0.197l-0.039,0.195l-0.041,0.195l-0.044,0.195l-0.046,0.193l-0.048,0.192l-0.05,0.192l-0.053,0.19l-0.055,0.19l-0.058,0.188l-0.059,0.188l-0.062,0.186l-0.064,0.186l-0.066,0.184l-0.069,0.184l-0.07,0.182l-0.073,0.181l-0.075,0.181l-0.077,0.179l-0.079,0.177l-0.081,0.177l-0.084,0.176l-0.085,0.174l-0.087,0.173l-0.09,0.172l-0.091,0.171l-0.094,0.169l-0.095,0.169l-0.097,0.166l-0.1,0.166l-0.101,0.164l-0.103,0.163l-0.105,0.162l-0.107,0.16l-0.108,0.159l-0.111,0.157l-0.112,0.157l-0.115,0.154l-0.116,0.153l-0.117,0.152l-0.12,0.151l-0.121,0.148l-0.123,0.148l-0.125,0.145l-0.127,0.145l-0.128,0.142l-0.13,0.142l-0.131,0.139l-0.133,0.138l-0.135,0.137l-0.137,0.135l-0.138,0.133l-0.139,0.131l-0.142,0.13l-0.142,0.128l-0.145,0.127l-0.145,0.125l-0.148,0.123l-0.148,0.121l-0.151,0.12l-0.152,0.117l-0.153,0.116l-0.154,0.115l-0.157,0.112l-0.157,0.111l-0.159,0.108l-0.16,0.107l-0.162,0.105l-0.163,0.103l-0.164,0.101l-0.166,0.1l-0.166,0.097l-0.169,0.095l-0.169,0.094l-0.171,0.091l-0.172,0.09l-0.173,0.087l-0.174,0.085l-0.176,0.083l-0.177,0.082l-0.177,0.079l-0.179,0.077l-0.181,0.075l-0.181,0.073l-0.182,0.07l-0.184,0.069l-0.184,0.066l-0.186,0.064l-0.186,0.062l-0.188,0.059l-0.188,0.058l-0.19,0.055l-0.19,0.053l-0.192,0.05l-0.192,0.048l-0.193,0.046l-0.195,0.044l-0.195,0.041l-0.195,0.039l-0.197,0.036l-0.198,0.034l-0.198,0.032l-0.199,0.029l-0.2,0.027l-0.2,0.024l-0.202,0.022l-0.201,0.019l-0.203,0.016l-0.203,0.015l-0.204,0.011l-0.205,0.009l-0.205,0.007l-0.206,0.004l-0.2,0.001l-0.012,0l-0.2,-0.001l-0.206,-0.004l-0.205,-0.007l-0.205,-0.009l-0.204,-0.011l-0.203,-0.015l-0.203,-0.016l-0.201,-0.019l-0.202,-0.022l-0.2,-0.024l-0.2,-0.027l-0.199,-0.029l-0.198,-0.032l-0.198,-0.034l-0.197,-0.036l-0.195,-0.039l-0.195,-0.041l-0.195,-0.044l-0.193,-0.046l-0.192,-0.048l-0.192,-0.05l-0.19,-0.053l-0.19,-0.055l-0.188,-0.058l-0.188,-0.059l-0.186,-0.062l-0.186,-0.064l-0.184,-0.066l-0.184,-0.069l-0.182,-0.07l-0.181,-0.073l-0.181,-0.075l-0.179,-0.077l-0.177,-0.079l-0.177,-0.081l-0.176,-0.084l-0.174,-0.085l-0.173,-0.087l-0.172,-0.09l-0.171,-0.091l-0.169,-0.094l-0.169,-0.095l-0.166,-0.097l-0.166,-0.1l-0.164,-0.101l-0.163,-0.103l-0.162,-0.105l-0.16,-0.107l-0.159,-0.108l-0.158,-0.111l-0.156,-0.112l-0.154,-0.115l-0.153,-0.116l-0.152,-0.117l-0.151,-0.12l-0.148,-0.121l-0.148,-0.123l-0.145,-0.125l-0.145,-0.127l-0.143,-0.128l-0.141,-0.13l-0.139,-0.131l-0.138,-0.133l-0.137,-0.135l-0.135,-0.137l-0.133,-0.138l-0.131,-0.139l-0.13,-0.141l-0.128,-0.143l-0.127,-0.145l-0.125,-0.145l-0.123,-0.148l-0.121,-0.148l-0.12,-0.151l-0.117,-0.152l-0.116,-0.153l-0.115,-0.154l-0.112,-0.156l-0.111,-0.158l-0.108,-0.159l-0.107,-0.16l-0.105,-0.162l-0.103,-0.163l-0.101,-0.164l-0.1,-0.166l-0.097,-0.166l-0.095,-0.169l-0.094,-0.169l-0.091,-0.171l-0.09,-0.172l-0.087,-0.173l-0.085,-0.174l-0.084,-0.176l-0.081,-0.177l-0.079,-0.177l-0.077,-0.179l-0.075,-0.181l-0.073,-0.181l-0.07,-0.182l-0.069,-0.184l-0.066,-0.184l-0.064,-0.186l-0.062,-0.186l-0.059,-0.188l-0.058,-0.188l-0.055,-0.19l-0.053,-0.19l-0.05,-0.192l-0.048,-0.192l-0.046,-0.193l-0.044,-0.195l-0.041,-0.195l-0.039,-0.195l-0.036,-0.197l-0.034,-0.198l-0.032,-0.198l-0.029,-0.199l-0.027,-0.2l-0.024,-0.2l-0.022,-0.202l-0.019,-0.201l-0.016,-0.203l-0.015,-0.203l-0.011,-0.204l-0.009,-0.205l-0.007,-0.205l-0.004,-0.206l-0.001,-0.206l0.001,-0.206l0.004,-0.206l0.007,-0.205l0.009,-0.205l0.011,-0.204l0.015,-0.203l0.016,-0.203l0.019,-0.201l0.022,-0.202l0.024,-0.2l0.027,-0.2l0.029,-0.199l0.032,-0.198l0.034,-0.198l0.036,-0.197l0.039,-0.195l0.041,-0.195l0.044,-0.195l0.046,-0.193l0.048,-0.192l0.05,-0.192l0.053,-0.19l0.055,-0.19l0.058,-0.188l0.059,-0.188l0.062,-0.186l0.064,-0.186l0.066,-0.184l0.069,-0.184l0.07,-0.182l0.073,-0.181l0.075,-0.181l0.077,-0.179l0.079,-0.177l0.081,-0.177l0.084,-0.176l0.085,-0.174l0.087,-0.173l0.09,-0.172l0.091,-0.171l0.094,-0.169l0.095,-0.169l0.097,-0.166l0.1,-0.166l0.101,-0.164l0.103,-0.163l0.105,-0.162l0.107,-0.16l0.108,-0.159l0.111,-0.158l0.112,-0.156l0.115,-0.154l0.116,-0.153l0.117,-0.152l0.12,-0.151l0.121,-0.148l0.123,-0.148l0.125,-0.145l0.127,-0.145l0.128,-0.142l0.13,-0.142l0.131,-0.139l0.133,-0.138l0.135,-0.137l0.137,-0.135l0.138,-0.133l0.139,-0.131l0.142,-0.13l0.142,-0.128l0.145,-0.127l0.145,-0.125l0.148,-0.123l0.148,-0.121l0.151,-0.12l0.152,-0.117l0.153,-0.116l0.154,-0.115l0.156,-0.112l0.158,-0.111l0.159,-0.108l0.16,-0.107l0.162,-0.105l0.163,-0.103l0.164,-0.101l0.166,-0.1l0.166,-0.097l0.169,-0.095l0.169,-0.094l0.171,-0.091l0.172,-0.09l0.173,-0.087l0.174,-0.085l0.176,-0.084l0.177,-0.081l0.177,-0.079l0.179,-0.077l0.181,-0.075l0.181,-0.073l0.182,-0.07l0.184,-0.069l0.184,-0.066l0.186,-0.064l0.186,-0.062l0.188,-0.059l0.188,-0.058l0.19,-0.055l0.19,-0.053l0.192,-0.05l0.192,-0.048l0.193,-0.046l0.195,-0.044l0.195,-0.041l0.195,-0.039l0.197,-0.036l0.198,-0.034l0.198,-0.032l0.199,-0.029l0.2,-0.027l0.2,-0.024l0.202,-0.022l0.201,-0.019l0.203,-0.016l0.203,-0.015l0.204,-0.011l0.205,-0.009l0.205,-0.007l0.206,-0.004l0.2,-0.001l0.012,0l0.2,0.001Zm-0.362,4l-0.155,0.003l-0.154,0.005l-0.154,0.007l-0.154,0.008l-0.152,0.011l-0.153,0.013l-0.151,0.014l-0.151,0.016l-0.151,0.019l-0.15,0.02l-0.149,0.021l-0.149,0.024l-0.148,0.026l-0.147,0.027l-0.147,0.029l-0.146,0.031l-0.145,0.032l-0.145,0.035l-0.143,0.036l-0.144,0.038l-0.142,0.039l-0.142,0.041l-0.141,0.043l-0.141,0.045l-0.139,0.046l-0.139,0.048l-0.138,0.05l-0.137,0.051l-0.137,0.053l-0.135,0.054l-0.135,0.056l-0.134,0.058l-0.134,0.059l-0.132,0.061l-0.131,0.062l-0.131,0.064l-0.13,0.066l-0.129,0.067l-0.128,0.068l-0.127,0.07l-0.126,0.072l-0.125,0.073l-0.124,0.074l-0.123,0.076l-0.122,0.077l-0.122,0.079l-0.12,0.08l-0.119,0.082l-0.118,0.083l-0.117,0.084l-0.117,0.086l-0.115,0.087l-0.114,0.089l-0.112,0.089l-0.112,0.091l-0.111,0.093l-0.109,0.094l-0.109,0.095l-0.107,0.096l-0.106,0.098l-0.105,0.098l-0.104,0.1l-0.102,0.102l-0.102,0.102l-0.1,0.104l-0.098,0.105l-0.098,0.106l-0.096,0.107l-0.095,0.109l-0.094,0.109l-0.093,0.111l-0.091,0.112l-0.089,0.112l-0.089,0.114l-0.087,0.115l-0.086,0.116l-0.084,0.118l-0.083,0.118l-0.082,0.119l-0.08,0.12l-0.079,0.122l-0.077,0.122l-0.076,0.123l-0.074,0.124l-0.073,0.125l-0.072,0.126l-0.07,0.127l-0.068,0.128l-0.067,0.129l-0.066,0.13l-0.064,0.131l-0.062,0.131l-0.061,0.132l-0.059,0.134l-0.058,0.134l-0.056,0.135l-0.054,0.135l-0.053,0.137l-0.051,0.137l-0.05,0.138l-0.048,0.139l-0.046,0.139l-0.045,0.141l-0.043,0.141l-0.041,0.142l-0.039,0.142l-0.038,0.144l-0.036,0.143l-0.035,0.145l-0.032,0.145l-0.031,0.146l-0.029,0.147l-0.027,0.147l-0.026,0.148l-0.024,0.149l-0.021,0.149l-0.02,0.15l-0.019,0.151l-0.016,0.151l-0.014,0.151l-0.013,0.153l-0.011,0.152l-0.008,0.154l-0.007,0.154l-0.005,0.154l-0.003,0.155l-0.001,0.156l0.001,0.156l0.003,0.155l0.005,0.154l0.007,0.154l0.008,0.154l0.011,0.152l0.013,0.153l0.014,0.151l0.016,0.151l0.019,0.151l0.02,0.15l0.021,0.149l0.024,0.149l0.026,0.148l0.027,0.147l0.029,0.147l0.031,0.146l0.032,0.145l0.035,0.145l0.036,0.143l0.038,0.144l0.039,0.142l0.041,0.142l0.043,0.141l0.045,0.141l0.046,0.139l0.048,0.139l0.05,0.138l0.051,0.137l0.053,0.137l0.054,0.135l0.056,0.135l0.058,0.134l0.059,0.134l0.061,0.132l0.062,0.131l0.064,0.131l0.066,0.13l0.067,0.129l0.068,0.128l0.07,0.127l0.072,0.126l0.073,0.125l0.074,0.124l0.076,0.123l0.077,0.122l0.079,0.122l0.08,0.12l0.082,0.119l0.083,0.118l0.084,0.117l0.086,0.117l0.087,0.115l0.089,0.114l0.089,0.112l0.091,0.112l0.093,0.111l0.094,0.109l0.095,0.109l0.096,0.107l0.098,0.106l0.098,0.105l0.1,0.104l0.102,0.102l0.102,0.102l0.104,0.1l0.105,0.098l0.106,0.098l0.107,0.096l0.109,0.095l0.109,0.094l0.111,0.092l0.112,0.092l0.112,0.089l0.114,0.089l0.115,0.087l0.117,0.086l0.117,0.084l0.118,0.083l0.119,0.082l0.12,0.08l0.122,0.079l0.122,0.077l0.123,0.076l0.124,0.074l0.125,0.073l0.126,0.072l0.127,0.07l0.128,0.068l0.129,0.067l0.13,0.066l0.131,0.064l0.131,0.062l0.132,0.061l0.134,0.059l0.134,0.058l0.135,0.056l0.135,0.054l0.137,0.053l0.137,0.051l0.138,0.05l0.139,0.048l0.14,0.046l0.14,0.045l0.141,0.043l0.142,0.041l0.142,0.039l0.144,0.038l0.143,0.036l0.145,0.035l0.145,0.032l0.146,0.031l0.147,0.029l0.147,0.027l0.148,0.026l0.149,0.024l0.149,0.021l0.15,0.02l0.151,0.019l0.151,0.016l0.151,0.014l0.153,0.013l0.152,0.011l0.154,0.008l0.154,0.007l0.154,0.005l0.155,0.003l0.156,0.001l0.156,-0.001l0.155,-0.003l0.154,-0.005l0.154,-0.007l0.154,-0.008l0.152,-0.011l0.153,-0.013l0.151,-0.014l0.151,-0.016l0.151,-0.019l0.15,-0.02l0.149,-0.021l0.149,-0.024l0.148,-0.026l0.147,-0.027l0.147,-0.029l0.146,-0.031l0.145,-0.032l0.145,-0.035l0.144,-0.036l0.143,-0.038l0.142,-0.039l0.142,-0.041l0.141,-0.043l0.14,-0.045l0.14,-0.046l0.139,-0.048l0.138,-0.05l0.137,-0.051l0.137,-0.053l0.135,-0.054l0.135,-0.056l0.134,-0.058l0.134,-0.059l0.132,-0.061l0.131,-0.062l0.131,-0.064l0.13,-0.066l0.129,-0.067l0.128,-0.068l0.127,-0.07l0.126,-0.072l0.125,-0.073l0.124,-0.074l0.123,-0.076l0.122,-0.077l0.122,-0.079l0.12,-0.08l0.119,-0.082l0.118,-0.083l0.117,-0.084l0.117,-0.086l0.115,-0.087l0.114,-0.089l0.112,-0.089l0.112,-0.091l0.111,-0.093l0.109,-0.094l0.109,-0.095l0.107,-0.096l0.106,-0.098l0.105,-0.098l0.104,-0.1l0.102,-0.102l0.102,-0.102l0.1,-0.104l0.098,-0.105l0.098,-0.106l0.096,-0.107l0.095,-0.109l0.094,-0.109l0.093,-0.111l0.091,-0.112l0.089,-0.112l0.089,-0.114l0.087,-0.115l0.086,-0.116l0.084,-0.118l0.083,-0.118l0.082,-0.119l0.08,-0.12l0.079,-0.122l0.077,-0.122l0.076,-0.123l0.074,-0.124l0.073,-0.125l0.072,-0.126l0.07,-0.127l0.068,-0.128l0.067,-0.129l0.066,-0.13l0.064,-0.131l0.062,-0.131l0.061,-0.132l0.059,-0.134l0.058,-0.134l0.056,-0.135l0.054,-0.135l0.053,-0.137l0.051,-0.137l0.05,-0.138l0.048,-0.139l0.046,-0.139l0.045,-0.141l0.043,-0.141l0.041,-0.142l0.039,-0.142l0.038,-0.144l0.036,-0.143l0.035,-0.145l0.032,-0.145l0.031,-0.146l0.029,-0.147l0.027,-0.147l0.026,-0.148l0.024,-0.149l0.021,-0.149l0.02,-0.15l0.019,-0.151l0.016,-0.151l0.014,-0.151l0.013,-0.153l0.011,-0.152l0.008,-0.154l0.007,-0.154l0.005,-0.154l0.003,-0.155l0.001,-0.156l-0.001,-0.156l-0.003,-0.155l-0.005,-0.154l-0.007,-0.154l-0.008,-0.154l-0.011,-0.152l-0.013,-0.153l-0.014,-0.151l-0.016,-0.151l-0.019,-0.151l-0.02,-0.15l-0.021,-0.149l-0.024,-0.149l-0.026,-0.148l-0.027,-0.147l-0.029,-0.147l-0.031,-0.146l-0.032,-0.145l-0.035,-0.145l-0.036,-0.143l-0.038,-0.144l-0.039,-0.142l-0.041,-0.142l-0.043,-0.141l-0.045,-0.141l-0.046,-0.139l-0.048,-0.139l-0.05,-0.138l-0.051,-0.137l-0.053,-0.137l-0.054,-0.135l-0.056,-0.135l-0.058,-0.134l-0.059,-0.134l-0.061,-0.132l-0.062,-0.131l-0.064,-0.131l-0.066,-0.13l-0.067,-0.129l-0.068,-0.128l-0.07,-0.127l-0.072,-0.126l-0.073,-0.125l-0.074,-0.124l-0.076,-0.123l-0.077,-0.122l-0.079,-0.122l-0.08,-0.12l-0.082,-0.119l-0.083,-0.118l-0.084,-0.117l-0.086,-0.117l-0.087,-0.115l-0.089,-0.114l-0.089,-0.112l-0.091,-0.112l-0.093,-0.111l-0.094,-0.109l-0.095,-0.109l-0.096,-0.107l-0.098,-0.106l-0.098,-0.105l-0.1,-0.104l-0.102,-0.102l-0.102,-0.102l-0.104,-0.1l-0.105,-0.098l-0.106,-0.098l-0.107,-0.096l-0.109,-0.095l-0.109,-0.094l-0.111,-0.093l-0.112,-0.091l-0.112,-0.089l-0.114,-0.089l-0.115,-0.087l-0.117,-0.086l-0.117,-0.084l-0.118,-0.083l-0.119,-0.082l-0.12,-0.08l-0.122,-0.079l-0.122,-0.077l-0.123,-0.076l-0.124,-0.074l-0.125,-0.073l-0.126,-0.072l-0.127,-0.07l-0.128,-0.068l-0.129,-0.067l-0.13,-0.066l-0.131,-0.064l-0.131,-0.062l-0.132,-0.061l-0.134,-0.059l-0.134,-0.058l-0.135,-0.056l-0.135,-0.054l-0.137,-0.053l-0.137,-0.051l-0.138,-0.05l-0.139,-0.048l-0.139,-0.046l-0.141,-0.045l-0.141,-0.043l-0.142,-0.041l-0.142,-0.039l-0.144,-0.038l-0.143,-0.036l-0.145,-0.035l-0.145,-0.032l-0.146,-0.031l-0.147,-0.029l-0.147,-0.027l-0.148,-0.026l-0.149,-0.024l-0.149,-0.021l-0.15,-0.02l-0.151,-0.019l-0.151,-0.016l-0.151,-0.014l-0.153,-0.013l-0.152,-0.011l-0.154,-0.008l-0.154,-0.007l-0.154,-0.005l-0.155,-0.003l-0.156,-0.001l-0.156,0.001Z"/></g><g id="emoji"><path d="M30,16c0,-7.732 -6.268,-14 -14,-14c0,0 0,0 0,0c-7.732,0 -14,6.268 -14,14c0,0 0,0 0,0c0,7.732 6.268,14 14,14c0,0 0,0 0,0c7.732,0 14,-6.268 14,-14c0,0 0,0 0,0Z" style="fill:#ffee50;"/><path d="M9.656,20.077l0.06,0.116l0.059,0.11l0.061,0.11l0.062,0.108l0.065,0.106l0.066,0.106l0.067,0.103l0.07,0.103l0.071,0.101l0.072,0.1l0.075,0.098l0.076,0.096l0.077,0.096l0.079,0.093l0.08,0.093l0.082,0.09l0.084,0.09l0.084,0.087l0.087,0.086l0.087,0.085l0.089,0.083l0.091,0.081l0.091,0.08l0.093,0.078l0.095,0.077l0.095,0.075l0.097,0.073l0.098,0.071l0.099,0.07l0.1,0.068l0.102,0.066l0.102,0.065l0.104,0.063l0.105,0.061l0.106,0.059l0.106,0.058l0.108,0.055l0.109,0.054l0.109,0.052l0.111,0.05l0.112,0.049l0.112,0.046l0.113,0.044l0.114,0.043l0.115,0.04l0.116,0.039l0.116,0.037l0.117,0.034l0.118,0.033l0.118,0.031l0.12,0.028l0.119,0.027l0.121,0.025l0.121,0.022l0.121,0.021l0.122,0.018l0.123,0.016l0.123,0.014l0.124,0.012l0.124,0.01l0.125,0.008l0.125,0.006l0.125,0.003l0.126,0.001l0.126,-0.001l0.125,-0.003l0.125,-0.006l0.125,-0.008l0.124,-0.01l0.124,-0.012l0.123,-0.014l0.123,-0.016l0.122,-0.018l0.121,-0.021l0.121,-0.022l0.121,-0.025l0.119,-0.027l0.12,-0.028l0.118,-0.031l0.118,-0.033l0.117,-0.034l0.116,-0.037l0.116,-0.039l0.115,-0.04l0.114,-0.043l0.113,-0.044l0.112,-0.046l0.112,-0.049l0.111,-0.05l0.109,-0.052l0.109,-0.054l0.108,-0.055l0.106,-0.058l0.106,-0.059l0.105,-0.061l0.104,-0.063l0.102,-0.065l0.102,-0.066l0.1,-0.068l0.099,-0.07l0.098,-0.071l0.097,-0.073l0.095,-0.075l0.095,-0.077l0.093,-0.078l0.091,-0.08l0.091,-0.081l0.089,-0.083l0.087,-0.085l0.087,-0.086l0.084,-0.087l0.084,-0.09l0.082,-0.09l0.08,-0.093l0.079,-0.093l0.077,-0.096l0.076,-0.096l0.075,-0.098l0.072,-0.1l0.071,-0.101l0.07,-0.103l0.067,-0.103l0.066,-0.106l0.065,-0.106l0.062,-0.108l0.061,-0.11l0.059,-0.11l0.06,-0.116l1.038,-2.077l1.618,0l0.083,0.003l0.082,0.011l0.08,0.017l0.08,0.023l0.077,0.03l0.074,0.037l0.071,0.042l0.067,0.048l0.063,0.053l0.059,0.059l0.053,0.063l0.048,0.067l0.042,0.071l0.037,0.074l0.03,0.077l0.023,0.08l0.017,0.08l0.011,0.082l0.003,0.083l-0.003,0.083l-0.011,0.082l-0.017,0.08l-0.023,0.08l-0.03,0.077l-0.037,0.074l-0.042,0.071l-0.048,0.067l-0.053,0.063l-0.059,0.059l-0.063,0.053l-0.067,0.048l-0.071,0.042l-0.074,0.037l-0.077,0.03l-0.08,0.023l-0.08,0.017l-0.082,0.011l-0.083,0.003l-0.382,0l-0.49,0.979l-0.071,0.14l-0.075,0.141l-0.078,0.141l-0.081,0.138l-0.082,0.137l-0.085,0.135l-0.087,0.133l-0.089,0.131l-0.091,0.13l-0.093,0.127l-0.095,0.126l-0.098,0.124l-0.099,0.123l-0.101,0.12l-0.103,0.118l-0.105,0.117l-0.107,0.114l-0.109,0.112l-0.111,0.111l-0.112,0.108l-0.114,0.107l-0.116,0.104l-0.118,0.102l-0.119,0.1l-0.121,0.099l-0.122,0.096l-0.124,0.093l-0.126,0.092l-0.127,0.089l-0.129,0.088l-0.13,0.085l-0.131,0.082l-0.133,0.081l-0.134,0.078l-0.136,0.076l-0.136,0.074l-0.138,0.071l-0.14,0.069l-0.14,0.067l-0.142,0.064l-0.143,0.062l-0.144,0.059l-0.145,0.057l-0.147,0.055l-0.147,0.052l-0.148,0.049l-0.149,0.047l-0.15,0.045l-0.152,0.042l-0.152,0.039l-0.152,0.037l-0.154,0.034l-0.155,0.032l-0.155,0.029l-0.156,0.026l-0.156,0.023l-0.158,0.021l-0.158,0.018l-0.158,0.016l-0.159,0.012l-0.16,0.01l-0.16,0.007l-0.161,0.005l-0.156,0.001l-0.01,0l-0.156,-0.001l-0.161,-0.005l-0.16,-0.007l-0.16,-0.01l-0.159,-0.012l-0.158,-0.016l-0.158,-0.018l-0.158,-0.021l-0.156,-0.023l-0.156,-0.026l-0.155,-0.029l-0.155,-0.032l-0.154,-0.034l-0.152,-0.037l-0.152,-0.039l-0.152,-0.042l-0.15,-0.045l-0.149,-0.047l-0.148,-0.049l-0.147,-0.052l-0.147,-0.055l-0.145,-0.057l-0.144,-0.059l-0.143,-0.062l-0.142,-0.064l-0.14,-0.067l-0.14,-0.069l-0.138,-0.071l-0.136,-0.074l-0.136,-0.076l-0.134,-0.078l-0.133,-0.081l-0.131,-0.082l-0.13,-0.085l-0.129,-0.088l-0.127,-0.089l-0.126,-0.092l-0.124,-0.093l-0.122,-0.096l-0.121,-0.099l-0.119,-0.1l-0.118,-0.102l-0.116,-0.104l-0.114,-0.107l-0.112,-0.108l-0.111,-0.111l-0.109,-0.112l-0.107,-0.114l-0.105,-0.117l-0.103,-0.118l-0.101,-0.12l-0.099,-0.123l-0.098,-0.124l-0.095,-0.126l-0.093,-0.127l-0.091,-0.13l-0.089,-0.131l-0.087,-0.133l-0.085,-0.135l-0.082,-0.137l-0.081,-0.138l-0.078,-0.141l-0.075,-0.141l-0.071,-0.14l-0.49,-0.979l-0.382,0l-0.083,-0.003l-0.082,-0.011l-0.08,-0.017l-0.08,-0.023l-0.077,-0.03l-0.074,-0.037l-0.071,-0.042l-0.067,-0.048l-0.063,-0.053l-0.059,-0.059l-0.053,-0.063l-0.048,-0.067l-0.042,-0.071l-0.037,-0.074l-0.03,-0.077l-0.023,-0.08l-0.017,-0.08l-0.011,-0.082l-0.003,-0.083l0.003,-0.083l0.011,-0.082l0.017,-0.08l0.023,-0.08l0.03,-0.077l0.037,-0.074l0.042,-0.071l0.048,-0.067l0.053,-0.063l0.059,-0.059l0.063,-0.053l0.067,-0.048l0.071,-0.042l0.074,-0.037l0.077,-0.03l0.08,-0.023l0.08,-0.017l0.082,-0.011l0.083,-0.003l1.618,0l1.038,2.077Z" style="fill:#7c7007;"/></g><ellipse cx="10" cy="12.5" rx="2" ry="3.5"/><ellipse cx="22" cy="12.5" rx="2" ry="3.5"/></g></svg>