<svg clip-rule="evenodd" fill-rule="evenodd" stroke-linecap="round" stroke-linejoin="round" stroke-miterlimit="1.5" viewBox="0 0 32 32" xmlns="http://www.w3.org/2000/svg"><metadata/><path d="m0 0h32v32h-32z" fill="none"/><path d="m16 28s-6.877-6.877-11.751-11.751c-2.623-2.623-2.623-6.875 0-9.498l.002-.002c1.26-1.26 2.968-1.967 4.749-1.967s3.489.707 4.749 1.967c1.247 1.247 2.251 2.251 2.251 2.251s1.004-1.004 2.251-2.251c1.26-1.26 2.968-1.967 4.749-1.967s3.489.707 4.749 1.967c.001.001.001.001.002.002 2.623 2.623 2.623 6.875 0 9.498-4.874 4.874-11.751 11.751-11.751 11.751z" fill="none" stroke="#000" stroke-width="4"/><path d="m16 27.396s-6.557-6.557-11.205-11.205c-2.501-2.501-2.501-6.556 0-9.057 0 0 .001-.001.002-.002 1.201-1.201 2.83-1.876 4.528-1.876 1.699 0 3.327.675 4.528 1.876 1.19 1.189 2.147 2.147 2.147 2.147s.957-.958 2.147-2.147c1.201-1.201 2.829-1.876 4.528-1.876 1.698 0 3.327.675 4.528 1.876.001.001.002.002.002.002 2.501 2.501 2.501 6.556 0 9.057-4.648 4.648-11.205 11.205-11.205 11.205z" fill="#e82731"/><path d="m22.675 5.256v.834c0 2.652-1.054 5.196-2.929 7.071-1.08 1.08-2.288 2.289-3.31 3.31-1.5 1.5-2.343 3.535-2.343 5.657v3.361l-9.298-9.298c-2.501-2.501-2.501-6.556 0-9.057 0 0 .001-.001.002-.002 1.201-1.201 2.83-1.876 4.528-1.876 1.699 0 3.327.675 4.528 1.876 1.19 1.189 2.147 2.147 2.147 2.147s.957-.958 2.147-2.147c1.201-1.201 2.829-1.876 4.528-1.876z" fill="#ff7780"/><path d="m9.083 4.782.084.002.083.003.083.003.083.005.083.005.082.007.083.008.082.008.082.01.082.011.082.011.081.013.081.014.082.014.08.016.081.017.08.017.08.019.08.019.08.021.079.021.079.023.078.023.079.024.078.026.077.026.077.027.077.028.077.029.076.03.076.031.076.032.075.033.074.033.075.035.073.035.074.037.073.037.072.038.073.039.071.04.071.041.071.042.07.042.07.044.069.044.069.045.068.046.068.047.067.048.067.049.066.049.065.051.065.051.064.052.064.053.063.053.063.055.062.055.061.056.061.057.06.058.059.059 2.251 2.251 2.251-2.251.059-.059.06-.058.061-.057.061-.056.062-.055.063-.055.063-.053.064-.053.064-.052.065-.051.065-.051.066-.049.067-.049.067-.048.068-.047.068-.046.069-.045.069-.044.07-.044.07-.042.071-.042.071-.041.071-.04.073-.039.072-.038.073-.037.074-.037.073-.035.075-.035.074-.033.075-.033.076-.032.076-.031.076-.03.077-.029.077-.028.077-.027.077-.026.078-.026.079-.024.078-.023.079-.023.079-.021.08-.021.08-.019.08-.019.08-.017.081-.017.08-.016.082-.014.081-.014.081-.013.082-.011.082-.011.082-.01.082-.008.083-.008.082-.007.083-.005.083-.005.083-.003.083-.003.084-.002h.083.083l.084.002.083.003.083.003.083.005.083.005.082.007.083.008.082.008.082.01.082.011.082.011.081.013.082.014.081.014.08.016.081.017.08.017.08.019.08.019.08.021.079.021.079.023.078.023.079.024.078.026.077.026.077.027.077.028.077.029.076.03.076.031.076.032.075.033.074.033.075.035.074.035.073.037.073.037.073.038.072.039.071.04.071.041.071.042.07.042.07.044.069.044.069.045.068.046.068.047.067.048.067.049.066.049.065.051.065.051.064.052.064.053.063.053.063.055.062.055.061.056.061.057.06.058.061.061.061.062.06.062.059.063.058.064.057.064.057.064.055.065.054.066.053.066.053.067.051.067.051.068.049.068.049.069.047.069.047.07.045.07.045.07.044.071.042.071.042.072.041.072.04.073.039.073.038.073.037.074.036.074.035.074.034.075.033.075.032.075.031.076.031.076.029.076.028.076.028.077.026.077.025.078.025.077.024.078.022.078.022.078.02.078.02.079.019.079.018.079.016.079.016.079.015.08.014.079.013.08.012.08.011.08.01.08.009.08.008.08.008.081.006.08.005.08.004.081.004.08.002.081.002.08v.081.081l-.002.08-.002.081-.004.08-.004.081-.005.08-.006.08-.008.081-.008.08-.009.08-.01.08-.011.08-.012.08-.013.08-.014.079-.015.08-.016.079-.016.079-.018.079-.019.079-.02.079-.02.078-.022.078-.022.078-.024.078-.024.077-.026.078-.026.077-.028.077-.028.076-.029.076-.031.076-.031.076-.032.075-.033.075-.034.075-.035.074-.036.074-.037.074-.038.073-.039.073-.04.073-.041.072-.042.072-.042.071-.044.071-.045.07-.045.07-.047.07-.047.069-.049.069-.049.068-.051.068-.051.067-.053.067-.053.066-.054.066-.055.065-.057.064-.057.064-.058.064-.059.063-.06.062-.061.062-11.751 11.751-11.751-11.751-.061-.062-.06-.062-.059-.063-.058-.064-.057-.064-.057-.064-.055-.065-.054-.066-.053-.066-.053-.067-.051-.067-.051-.068-.049-.068-.049-.069-.047-.069-.047-.07-.045-.07-.045-.07-.044-.071-.042-.071-.042-.072-.041-.072-.04-.073-.039-.073-.038-.073-.037-.074-.036-.074-.035-.074-.034-.075-.033-.075-.032-.075-.031-.076-.031-.076-.029-.076-.028-.076-.028-.077-.026-.077-.026-.078-.024-.077-.024-.078-.022-.078-.022-.078-.02-.078-.02-.079-.019-.079-.018-.079-.016-.079-.016-.079-.015-.08-.014-.079-.013-.08-.012-.08-.011-.08-.01-.08-.009-.08-.008-.08-.008-.081-.006-.08-.005-.08-.004-.081-.004-.08-.002-.081-.002-.08v-.081-.081l.002-.08.002-.081.004-.08.004-.081.005-.08.006-.08.008-.081.008-.08.009-.08.01-.08.011-.08.012-.08.013-.08.014-.079.015-.08.016-.079.016-.079.018-.079.019-.079.02-.079.02-.078.022-.078.022-.078.024-.078.025-.077.025-.078.026-.077.028-.077.028-.076.029-.076.031-.076.031-.076.032-.075.033-.075.034-.075.035-.074.036-.074.037-.074.038-.073.039-.073.04-.073.041-.072.042-.072.042-.071.044-.071.045-.07.045-.07.047-.07.047-.069.049-.069.049-.068.051-.068.051-.067.053-.067.053-.066.054-.066.055-.065.057-.064.057-.064.058-.064.059-.063.06-.062.061-.062.002-.002.059-.059.06-.058.061-.057.061-.056.062-.055.063-.055.063-.053.064-.053.064-.052.065-.051.065-.051.066-.049.067-.049.067-.048.068-.047.068-.046.069-.045.069-.044.07-.044.07-.042.071-.042.071-.041.071-.04.072-.039.073-.038.073-.037.073-.037.074-.035.075-.035.074-.033.075-.033.076-.032.076-.031.076-.03.077-.029.077-.028.077-.027.077-.026.078-.026.079-.024.078-.023.079-.023.079-.021.08-.021.08-.019.08-.019.08-.017.081-.017.08-.016.081-.014.082-.014.081-.013.082-.011.082-.011.082-.01.082-.008.083-.008.082-.007.083-.005.083-.005.083-.003.083-.003.084-.002h.083.083zm-.142 2-.058.001-.059.002-.058.003-.058.003-.058.004-.058.005-.058.005-.058.006-.058.007-.057.007-.057.009-.058.008-.057.01-.057.01-.056.011-.057.012-.056.012-.056.013-.056.014-.056.014-.056.016-.055.015-.056.017-.054.017-.055.018-.055.018-.054.019-.054.02-.054.02-.053.021-.054.022-.053.022-.052.023-.053.024-.052.024-.052.025-.052.026-.051.026-.051.026-.05.028-.051.028-.05.029-.049.029-.05.03-.049.03-.048.031-.048.032-.048.033-.048.033-.047.033-.047.034-.046.035-.046.035-.046.036-.045.037-.044.037-.045.038-.044.038-.043.039-.043.039-.043.04-.042.041-.043.042-.044.045-.043.044-.041.045-.041.044-.041.046-.039.045-.039.046-.038.046-.038.047-.036.047-.037.047-.035.047-.035.048-.034.048-.033.049-.033.049-.032.049-.031.049-.03.05-.03.05-.03.05-.028.05-.028.051-.027.051-.027.051-.026.052-.025.052-.024.052-.024.052-.024.053-.022.052-.022.053-.021.054-.021.053-.019.054-.02.053-.018.054-.018.055-.017.054-.017.054-.016.055-.015.055-.014.055-.014.055-.013.056-.013.055-.011.056-.012.055-.01.056-.01.056-.009.056-.008.056-.008.057-.007.056-.007.056-.005.057-.006.056-.004.057-.004.057-.003.056-.002.057-.002.057-.001.056v.057.057l.001.056.002.057.002.057.003.056.004.057.004.057.006.056.005.057.007.056.007.056.008.057.008.056.009.056.01.056.01.056.012.055.011.056.013.055.013.056.014.055.014.055.015.055.016.055.017.054.017.054.018.055.018.054.019.053.02.054.021.053.021.054.022.053.022.052.024.053.024.052.024.052.025.052.026.052.027.051.027.051.028.051.028.05.03.05.03.05.03.05.031.049.032.049.033.049.033.049.034.048.035.048.035.047.037.047.036.047.038.047.038.046.039.046.039.045.041.046.041.044.041.045.043.044.048.048 10.332 10.333 10.332-10.333.048-.048.043-.044.041-.045.041-.044.041-.046.039-.045.039-.046.038-.046.038-.047.036-.047.037-.047.035-.047.035-.048.034-.048.033-.049.033-.049.032-.049.031-.049.03-.05.03-.05.03-.05.028-.05.028-.051.027-.051.027-.052.026-.051.025-.052.024-.052.024-.052.024-.053.022-.052.022-.053.021-.054.021-.053.02-.054.019-.053.018-.054.018-.055.017-.054.017-.055.016-.054.015-.055.014-.055.014-.055.013-.056.013-.055.012-.056.011-.055.01-.056.01-.056.009-.056.008-.056.008-.057.007-.056.007-.056.005-.057.006-.056.004-.057.004-.057.003-.056.002-.057.002-.057.001-.056v-.057-.057l-.001-.056-.002-.057-.002-.057-.003-.056-.004-.057-.004-.057-.006-.056-.005-.057-.007-.056-.007-.056-.008-.057-.008-.056-.009-.056-.01-.056-.01-.056-.012-.055-.011-.056-.013-.055-.013-.056-.014-.055-.014-.055-.015-.055-.016-.055-.017-.054-.017-.054-.018-.055-.018-.054-.019-.053-.02-.054-.021-.053-.021-.054-.022-.053-.022-.052-.024-.053-.024-.052-.024-.052-.025-.052-.026-.052-.027-.051-.027-.051-.028-.051-.028-.05-.03-.05-.03-.05-.03-.05-.031-.049-.032-.049-.033-.049-.033-.049-.034-.048-.035-.048-.035-.047-.037-.047-.036-.047-.038-.047-.038-.046-.039-.046-.039-.045-.041-.046-.041-.044-.041-.045-.043-.044-.044-.045-.043-.042-.042-.041-.043-.04-.043-.039-.043-.039-.044-.038-.045-.038-.044-.037-.045-.037-.046-.036-.046-.035-.046-.035-.047-.034-.047-.033-.048-.033-.048-.033-.048-.032-.048-.031-.049-.03-.05-.03-.049-.029-.05-.029-.051-.028-.05-.028-.051-.026-.051-.026-.052-.026-.052-.025-.052-.024-.053-.024-.052-.023-.053-.022-.054-.022-.053-.021-.054-.02-.054-.02-.054-.019-.055-.018-.055-.018-.054-.017-.056-.017-.055-.015-.056-.016-.056-.014-.056-.014-.056-.013-.056-.012-.057-.012-.056-.011-.057-.01-.057-.01-.058-.008-.057-.009-.057-.007-.058-.007-.058-.006-.058-.005-.058-.005-.058-.004-.058-.003-.058-.003-.059-.002-.058-.001h-.059-.059l-.058.001-.059.002-.058.003-.058.003-.058.004-.058.005-.058.005-.058.006-.058.007-.057.007-.057.009-.058.008-.057.01-.057.01-.056.011-.057.012-.056.012-.056.013-.056.014-.056.014-.056.016-.055.015-.056.017-.055.017-.054.018-.055.018-.054.019-.054.02-.054.02-.053.021-.054.022-.053.022-.052.023-.053.024-.052.024-.052.025-.052.026-.051.026-.051.026-.05.028-.051.028-.05.029-.049.029-.05.03-.049.03-.048.031-.048.032-.048.033-.048.033-.047.033-.047.034-.046.035-.046.035-.046.036-.045.037-.045.037-.044.038-.044.038-.043.039-.043.039-.043.04-.042.041-.046.046-3.661 3.66-3.661-3.66-.046-.046-.042-.041-.043-.04-.043-.039-.043-.039-.044-.038-.044-.038-.045-.037-.045-.037-.046-.036-.046-.035-.046-.035-.047-.034-.047-.033-.048-.033-.048-.033-.048-.032-.048-.031-.049-.03-.05-.03-.049-.029-.05-.029-.051-.028-.05-.028-.051-.026-.051-.026-.052-.026-.052-.025-.052-.024-.053-.024-.052-.023-.053-.022-.054-.022-.053-.021-.054-.02-.054-.02-.054-.019-.055-.018-.054-.018-.055-.017-.056-.017-.055-.015-.056-.016-.056-.014-.056-.014-.056-.013-.056-.012-.057-.012-.056-.011-.057-.01-.057-.01-.058-.008-.057-.009-.057-.007-.058-.007-.058-.006-.058-.005-.058-.005-.058-.004-.058-.003-.058-.003-.059-.002-.058-.001h-.059-.059z" fill="#e82731"/></svg>