<svg clip-rule="evenodd" fill-rule="evenodd" stroke-linecap="round" stroke-linejoin="round" stroke-miterlimit="1.5" viewBox="0 0 32 32" xmlns="http://www.w3.org/2000/svg"><metadata/><g fill="none"><path d="m0 0h32v32h-32z"/><path d="m14 15 5.5-2.5 2.5-8.5 2.5 8.5 5.5 2.5-5.5 2.5-2.5 8.5-2.5-8.5z" stroke="#000" stroke-width="4"/><path d="m4 23 3.5-1.5 1.5-5.5 1.5 5.5 3.5 1.5-3.5 1.5-1.5 5.5-1.5-5.5z" stroke="#000" stroke-width="4"/><path d="m2 7 2-1 1-4 1 4 2 1-2 1-1 4-1-4z" stroke="#000" stroke-width="4"/></g><path d="m14 15 5.5-2.5 2.5-8.5 2.5 8.5 5.5 2.5-5.5 2.5-2.5 8.5-2.5-8.5z" fill="#fdef24"/><path d="m4 23 3.5-1.5 1.5-5.5 1.5 5.5 3.5 1.5-3.5 1.5-1.5 5.5-1.5-5.5z" fill="#fdef24"/><path d="m2 7 2-1 1-4 1 4 2 1-2 1-1 4-1-4z" fill="#fdef24"/></svg>