<svg clip-rule="evenodd" fill-rule="evenodd" stroke-linejoin="round" stroke-miterlimit="1.41421" viewBox="0 0 32 32" xmlns="http://www.w3.org/2000/svg"><metadata/><path d="m0 0v32h32v-32z" fill="none"/><path d="m16 12.576c-1.485 0-2.906.622-3.914 1.713v.002c-.528.573-1.086 1.177-1.611 1.746-.001.001-.002.001-.002.002-.251.272-.594.423-.961.426-.002 0-.003 0-.004 0-.367.003-.716-.145-.969-.41-1.483-1.557-3.092-3.242-3.092-3.242l-2.894 2.759v2s1.609 1.687 3.092 3.242c1.014 1.065 2.427 1.664 3.898 1.651 1.47-.012 2.872-.633 3.869-1.713.528-.571 1.087-1.177 1.615-1.75.253-.272.603-.426.973-.426.371 0 .722.155.975.428.528.573 1.085 1.177 1.613 1.748.997 1.08 2.4 1.702 3.871 1.713 1.471.012 2.882-.587 3.896-1.651 1.483-1.555 3.092-3.242 3.092-3.242v-2l-2.894-2.759s-1.609 1.685-3.092 3.242c-.253.265-.602.413-.969.41-.001 0-.002 0-.004 0-.367-.003-.71-.154-.961-.426 0-.001-.001-.001-.002-.002-.525-.569-1.083-1.174-1.611-1.746 0-.001 0-.001 0-.002-1.008-1.091-2.429-1.713-3.914-1.713z" fill="none" stroke="#000" stroke-width="4"/><g fill-rule="nonzero"><path d="m16 14.576c-1.485 0-6.121 3.886-6.488 3.889-.002 0-.003 0-.004 0-.367.003-4.061-3.652-4.061-3.652l-2.894.759v2s1.609 1.687 3.092 3.242c1.014 1.065 2.427 1.664 3.898 1.651 1.47-.012 2.872-.633 3.869-1.713.528-.571 1.087-1.177 1.615-1.75.253-.272.603-.426.973-.426.371 0 .722.155.975.428.528.573 1.085 1.177 1.613 1.748.997 1.08 2.4 1.702 3.871 1.713 1.471.012 2.882-.587 3.896-1.651 1.483-1.555 3.092-3.242 3.092-3.242v-2l-2.894-.759s-3.694 3.655-4.061 3.652c-.001 0-.002 0-.004 0-.367-.003-5.003-3.889-6.488-3.889z" fill="#747474"/><path d="m16 12.576c-1.485 0-2.906.622-3.914 1.713v.002c-.528.573-1.086 1.177-1.611 1.746-.001.001-.002.001-.002.002-.251.272-.594.423-.961.426-.002 0-.003 0-.004 0-.367.003-.716-.145-.969-.41-1.483-1.557-3.092-3.242-3.092-3.242l-2.894 2.759s1.609 1.687 3.092 3.242c1.014 1.065 2.427 1.664 3.898 1.651 1.47-.012 2.872-.633 3.869-1.713.528-.571 1.087-1.177 1.615-1.75.253-.272.603-.426.973-.426.371 0 .722.155.975.428.528.573 1.085 1.177 1.613 1.748.997 1.08 2.4 1.702 3.871 1.713 1.471.012 2.882-.587 3.896-1.651 1.483-1.555 3.092-3.242 3.092-3.242l-2.894-2.759s-1.609 1.685-3.092 3.242c-.253.265-.602.413-.969.41-.001 0-.002 0-.004 0-.367-.003-.71-.154-.961-.426 0-.001-.001-.001-.002-.002-.525-.569-1.083-1.174-1.611-1.746 0-.001 0-.001 0-.002-1.008-1.091-2.429-1.713-3.914-1.713z" fill="#fff"/></g></svg>