<svg xmlns="http://www.w3.org/2000/svg" viewBox="0 0 410.15 163.08"><title>desperateprayer-2</title><g id="Layer_2" data-name="Layer 2"><g id="Layer_1-2" data-name="Layer 1"><path d="M16.72,1.08Q28.9,1.08,35,9.93q6.24,8.66,6.23,25.8T35,61.54q-6.13,8.85-18.31,8.84H1.56V1.08ZM11.3,61.36h5.42q7.76,0,11.28-6.23,3.51-6,3.51-19.4T28,16.33q-3.53-6.22-11.28-6.22H11.3Z" fill="#fff"/><path d="M84.84,1.08v9H57.59V30H80.87v9H57.59V61.36H85.21v9H47.85V1.08Z" fill="#fff"/><path d="M118.05,11.91C116.67,10,114.53,9,111.65,9a8.4,8.4,0,0,0-6.59,2.62A8.77,8.77,0,0,0,103,17.69a10,10,0,0,0,3.61,7.85,76.59,76.59,0,0,0,9.48,5.68q8.12,4.34,11.19,7.67a19.76,19.76,0,0,1,5.32,14.17q0,8.85-5.32,13.72-5.15,4.68-14.53,4.69-9.12,0-14.44-5.78-5.42-6-5.41-16.6h9.74q0,6.85,2.08,10,2.43,3.34,8,3.34c3.43,0,6-.84,7.67-2.52a9.3,9.3,0,0,0,2.43-6.86,11.62,11.62,0,0,0-3.6-8.66q-2.08-2.26-9-6-7.85-3.88-11-6.68a18.13,18.13,0,0,1-6-14.07A17.1,17.1,0,0,1,97.93,5.32Q103.07,0,111.65,0q8.75,0,13.62,5.77,4.79,5.52,4.78,15.16h-9.74C120.31,16.84,119.55,13.84,118.05,11.91Z" fill="#fff"/><path d="M157.3,1.08q9.57,0,15.16,5.78T178.06,22q0,9.47-5.6,15.16T157.3,43h-7V70.38h-9.75V1.08Zm-7,32.85h6.13a11.71,11.71,0,0,0,8.67-3.25A11.72,11.72,0,0,0,168.31,22a11.75,11.75,0,0,0-3.24-8.67,11.75,11.75,0,0,0-8.67-3.24h-6.13Z" fill="#fff"/><path d="M223.45,1.08v9H196.2V30h23.28v9H196.2V61.36h27.61v9H186.45V1.08Z" fill="#fff"/><path d="M250.61,1.08q9.39,0,14.89,5,5.69,5.06,5.68,14.16,0,8.13-4.69,13.09a17.72,17.72,0,0,1-7.58,4.6l12.63,32.48H261.08l-11.19-31h-5.78v31h-9.74V1.08Zm-6.5,29.24h5.42q6,0,8.93-2.44t3-7.67c0-3.43-1-6-3-7.58s-5-2.52-8.93-2.52h-5.42Z" fill="#fff"/><path d="M301.86,1.08l17.33,69.3h-9.93l-4.6-19.13H289l-4.6,19.13h-9.93l17.33-69.3ZM290.67,42.23H303l-6.14-23.46Z" fill="#fff"/><path d="M364.31,1.08v9H348.07V70.38h-9.75V10.11H322.08v-9Z" fill="#fff"/><path d="M408.25,1.08v9H381V30h23.28v9H381V61.36h27.61v9H371.26V1.08Z" fill="#fff"/><path d="M157.31,90.56q9.56,0,15.15,5.78t5.6,15.16q0,9.47-5.6,15.16t-15.15,5.77h-7v27.43h-9.75V90.56Zm-7,32.85h6.13a11.92,11.92,0,1,0,0-23.83h-6.13Z" fill="#fff"/><path d="M204.41,90.56q9.38,0,14.89,5,5.69,5.06,5.68,14.17,0,8.13-4.69,13.09a17.78,17.78,0,0,1-7.58,4.6l12.63,32.48H214.88l-11.19-31h-5.78v31h-9.74V90.56Zm-6.5,29.24h5.42c4,0,6.94-.81,8.93-2.44s3-4.24,3-7.67-1-6-3-7.58-5-2.53-8.93-2.53h-5.42Z" fill="#fff"/><path d="M255.66,90.56,273,159.86h-9.93l-4.6-19.13h-15.7l-4.6,19.13h-9.93l17.33-69.3Zm-11.19,41.15h12.28l-6.14-23.46Z" fill="#fff"/><path d="M286.16,90.56,297,119.8l10.83-29.24h9.93L301.86,129.9v30h-9.74v-30L276.24,90.56Z" fill="#fff"/><path d="M362.05,90.56v9H334.8v19.86h23.28v9H334.8v22.38h27.61v9H325.06V90.56Z" fill="#fff"/><path d="M389.21,90.56q9.39,0,14.89,5,5.68,5.06,5.69,14.17,0,8.13-4.69,13.09a17.85,17.85,0,0,1-7.58,4.6l12.63,32.48H399.68l-11.19-31h-5.77v31H373V90.56Zm-6.49,29.24h5.41q6,0,8.93-2.44t3-7.67c0-3.43-1-6-3-7.58s-5-2.53-8.93-2.53h-5.41Z" fill="#fff"/><path d="M111.22,115.06A52.91,52.91,0,0,0,114.74,96V92.43h-9.11V96a44.47,44.47,0,0,1-88.94,0V92.43H7.57V96a52.93,52.93,0,0,0,3.6,19.27L0,121.78l4.6,7.87,10.59-6.19a54.7,54.7,0,0,0,10.13,12.31l-7.56,10.51,7.4,5.33,7.42-10.33a52.81,52.81,0,0,0,13.29,6.05L42.72,161l8.88,2.05,3.2-13.9a52.61,52.61,0,0,0,12.91,0L70.94,163,79.82,161l-3.19-13.69a53,53,0,0,0,13.3-6.12l7.44,10.37,7.41-5.32-7.61-10.6a54.13,54.13,0,0,0,10.06-12.31L118,129.61l4.63-7.85Z" fill="#fff"/></g></g></svg>