<svg xmlns="http://www.w3.org/2000/svg" viewBox="0 0 330.28 157.67"><title>desperateprayer-1</title><g id="Layer_2" data-name="Layer 2"><g id="Layer_1-2" data-name="Layer 1"><path d="M18.65.86q9.65,0,14.51,7T38.09,28.3q0,13.59-4.93,20.45t-14.51,7h-12V.86ZM14.36,48.6h4.29q6.15,0,8.94-4.93T30.37,28.3q0-10.57-2.78-15.36T18.65,8H14.36Z" fill="#fff"/><path d="M72.62.86V8H51V23.73H69.47v7.15H51V48.6H72.9v7.15H43.31V.86Z" fill="#fff"/><path d="M98.92,9.44a5.83,5.83,0,0,0-5.08-2.29,6.62,6.62,0,0,0-5.21,2.07A7,7,0,0,0,87,14a7.92,7.92,0,0,0,2.86,6.22,60,60,0,0,0,7.5,4.5q6.43,3.43,8.87,6.08A15.61,15.61,0,0,1,110.42,42q0,7-4.21,10.86T94.7,56.61q-7.22,0-11.44-4.58T79,38.88h7.71c0,3.63.55,6.27,1.65,7.94q1.93,2.64,6.36,2.64c2.72,0,4.74-.67,6.08-2A7.38,7.38,0,0,0,102.71,42a9.22,9.22,0,0,0-2.86-6.86c-1.1-1.19-3.48-2.77-7.15-4.72A42.19,42.19,0,0,1,84,25.16,14.36,14.36,0,0,1,79.26,14,13.52,13.52,0,0,1,83,4.22Q87.06,0,93.84,0c4.63,0,8.22,1.53,10.8,4.57s3.78,6.91,3.78,12H100.7Q100.7,11.72,98.92,9.44Z" fill="#fff"/><path d="M130,.86q7.58,0,12,4.57t4.43,12q0,7.5-4.43,12T130,34h-5.58V55.75h-7.72V.86Zm-5.58,26h4.86a9.29,9.29,0,0,0,6.87-2.58,9.28,9.28,0,0,0,2.57-6.86,9.28,9.28,0,0,0-2.57-6.86A9.28,9.28,0,0,0,129.29,8h-4.86Z" fill="#fff"/><path d="M182.4.86V8H160.81V23.73h18.45v7.15H160.81V48.6h21.88v7.15H153.1V.86Z" fill="#fff"/><path d="M203.91.86q7.44,0,11.8,3.93T220.21,16a14.49,14.49,0,0,1-3.72,10.37,14,14,0,0,1-6,3.64l10,25.73h-8.3l-8.86-24.59h-4.57V55.75h-7.72V.86ZM198.77,24h4.29c3.14,0,5.5-.65,7.07-1.93s2.36-3.36,2.36-6.08-.79-4.72-2.36-6-3.93-2-7.07-2h-4.29Z" fill="#fff"/><path d="M244.51.86l13.72,54.89h-7.86L246.73,40.6H234.29l-3.64,15.15h-7.87L236.51.86Zm-8.86,32.59h9.72l-4.86-18.58Z" fill="#fff"/><path d="M294,.86V8H281.11V55.75h-7.72V8H260.52V.86Z" fill="#fff"/><path d="M328.78.86V8H307.19V23.73h18.44v7.15H307.19V48.6h21.88v7.15h-29.6V.86Z" fill="#fff"/><path d="M130,71.73q7.58,0,12,4.58t4.43,12q0,7.51-4.43,12t-12,4.58h-5.58v21.72h-7.72V71.73Zm-5.58,26h4.86a9.44,9.44,0,1,0,0-18.87h-4.86Z" fill="#fff"/><path d="M167.32,71.73q7.43,0,11.79,3.93t4.51,11.22q0,6.44-3.72,10.37a14.09,14.09,0,0,1-6,3.64l10,25.73h-8.29L166.75,102h-4.58v24.58h-7.72V71.73Zm-5.15,23.16h4.29c3.15,0,5.5-.64,7.08-1.93s2.36-3.36,2.36-6.08-.79-4.71-2.36-6-3.93-2-7.08-2h-4.29Z" fill="#fff"/><path d="M207.92,71.73l13.72,54.89h-7.86l-3.65-15.15H197.69l-3.64,15.15h-7.86l13.72-54.89Zm-8.87,32.59h9.72l-4.86-18.58Z" fill="#fff"/><path d="M232.07,71.73l8.58,23.16,8.58-23.16h7.86L244.51,102.9v23.72h-7.72V102.9L224.21,71.73Z" fill="#fff"/><path d="M292.18,71.73v7.15H270.6V94.6H289v7.15H270.6v17.73h21.87v7.14H262.88V71.73Z" fill="#fff"/><path d="M313.7,71.73c4.95,0,8.89,1.31,11.79,3.93s4.5,6.41,4.5,11.22q0,6.44-3.71,10.37a14.09,14.09,0,0,1-6,3.64l10,25.73H322L313.13,102h-4.58v24.58h-7.72V71.73Zm-5.15,23.16h4.29q4.73,0,7.08-1.93t2.35-6.08q0-4.06-2.35-6t-7.08-2h-4.29Z" fill="#fff"/><path d="M88.09,91.14A41.79,41.79,0,0,0,90.89,76V73.21H83.67V76a35.23,35.23,0,0,1-70.45,0V73.21H6V76A42,42,0,0,0,8.85,91.29L0,96.47l3.64,6.23L12,97.79a43,43,0,0,0,8,9.75l-6,8.33,5.86,4.22,5.88-8.18a42,42,0,0,0,10.52,4.79l-2.49,10.85,7,1.63,2.53-11a41.69,41.69,0,0,0,10.23,0l2.56,11,7-1.64L60.7,116.66a42.26,42.26,0,0,0,10.53-4.84L77.12,120,83,115.81l-6-8.39a43.24,43.24,0,0,0,8-9.76l8.5,5,3.67-6.22Z" fill="#fff"/><path d="M7.24,147l3.06,7v-7h1.42v10.48H10.49l-3.08-6.93v6.93H6V147Z" fill="#fff"/><path d="M20.67,148.28a10.45,10.45,0,0,1,0,8,2.72,2.72,0,0,1-2.54,1.42,2.71,2.71,0,0,1-2.53-1.42,10.33,10.33,0,0,1,0-8,2.72,2.72,0,0,1,2.53-1.41A2.73,2.73,0,0,1,20.67,148.28Zm-3.91.89a10.25,10.25,0,0,0,0,6.2,1.46,1.46,0,0,0,1.37.94,1.51,1.51,0,0,0,1.4-.94,8,8,0,0,0,.46-3.1,7.52,7.52,0,0,0-.48-3.1,1.48,1.48,0,0,0-2.75,0Z" fill="#fff"/><path d="M30.61,152v1.2H24.38V152Z" fill="#fff"/><path d="M39.4,148.28a10.45,10.45,0,0,1,0,8,3,3,0,0,1-5.08,0,10.45,10.45,0,0,1,0-8,3,3,0,0,1,5.08,0Zm-3.92.89a10.25,10.25,0,0,0,0,6.2,1.47,1.47,0,0,0,1.38.94,1.5,1.5,0,0,0,1.39-.94,10.57,10.57,0,0,0,0-6.2,1.48,1.48,0,0,0-2.76,0Z" fill="#fff"/><path d="M44.69,147l3.06,7v-7h1.41v10.48H47.94l-3.09-6.93v6.93H43.43V147Z" fill="#fff"/><path d="M58.46,147v1.36H54.34v3h3.52v1.36H54.34v3.38h4.17v1.37H52.86V147Z" fill="#fff"/><path d="M76.38,147v1.36H75v7.75h1.37v1.37H72.17v-1.37h1.37v-7.75H72.17V147Z" fill="#fff"/><path d="M84.58,148.67a1.09,1.09,0,0,0-1-.44,1.26,1.26,0,0,0-1,.4,1.31,1.31,0,0,0-.31.91,1.51,1.51,0,0,0,.55,1.19,10.79,10.79,0,0,0,1.43.86A6.38,6.38,0,0,1,86,152.75a2.94,2.94,0,0,1,.8,2.14A2.65,2.65,0,0,1,86,157a3.16,3.16,0,0,1-2.2.71,2.83,2.83,0,0,1-2.18-.87,3.58,3.58,0,0,1-.82-2.51h1.47a2.8,2.8,0,0,0,.32,1.51,1.39,1.39,0,0,0,1.21.51,1.59,1.59,0,0,0,1.16-.38,1.41,1.41,0,0,0,.37-1,1.76,1.76,0,0,0-.54-1.31,5.63,5.63,0,0,0-1.37-.9,7.86,7.86,0,0,1-1.66-1,2.76,2.76,0,0,1-.9-2.13,2.55,2.55,0,0,1,.71-1.87,2.7,2.7,0,0,1,2.07-.8,2.55,2.55,0,0,1,2.06.87,3.38,3.38,0,0,1,.72,2.29H84.92A2.24,2.24,0,0,0,84.58,148.67Z" fill="#fff"/><path d="M101.35,147v9.11h3.55v1.37h-5V147Z" fill="#fff"/><path d="M113.82,147v1.36h-1.36v7.75h1.36v1.37h-4.2v-1.37H111v-7.75h-1.36V147Z" fill="#fff"/><path d="M122,148.67a1.09,1.09,0,0,0-1-.44,1.24,1.24,0,0,0-1,.4,1.31,1.31,0,0,0-.32.91,1.54,1.54,0,0,0,.55,1.19,12.45,12.45,0,0,0,1.43.86,6.21,6.21,0,0,1,1.69,1.16,3,3,0,0,1,.81,2.14,2.65,2.65,0,0,1-.81,2.07,3.14,3.14,0,0,1-2.19.71,2.85,2.85,0,0,1-2.19-.87,3.62,3.62,0,0,1-.81-2.51h1.47a2.81,2.81,0,0,0,.31,1.51,1.41,1.41,0,0,0,1.22.51,1.6,1.6,0,0,0,1.16-.38,1.45,1.45,0,0,0,.37-1,1.77,1.77,0,0,0-.55-1.31,5.51,5.51,0,0,0-1.36-.9,8,8,0,0,1-1.67-1,2.76,2.76,0,0,1-.9-2.13,2.59,2.59,0,0,1,.71-1.87,2.73,2.73,0,0,1,2.07-.8,2.54,2.54,0,0,1,2.06.87,3.33,3.33,0,0,1,.73,2.29h-1.48A2.18,2.18,0,0,0,122,148.67Z" fill="#fff"/><path d="M133.69,147v1.36h-2.46v9.12h-1.47v-9.12H127.3V147Z" fill="#fff"/><path d="M142.71,147v1.36h-4.12v3h3.52v1.36h-3.52v3.38h4.18v1.37h-5.65V147Z" fill="#fff"/><path d="M147.66,147l3.06,7v-7h1.42v10.48h-1.23l-3.08-6.93v6.93h-1.42V147Z" fill="#fff"/><path d="M160.63,147v1.36h-1.37v7.75h1.37v1.37h-4.2v-1.37h1.36v-7.75h-1.36V147Z" fill="#fff"/><path d="M166.39,147l3.06,7v-7h1.41v10.48h-1.22l-3.09-6.93v6.93h-1.42V147Z" fill="#fff"/><path d="M179,150.3a3.62,3.62,0,0,0-.44-1.51,1.24,1.24,0,0,0-1.14-.56,1.47,1.47,0,0,0-1.41,1.05,11.66,11.66,0,0,0,0,6,1.47,1.47,0,0,0,1.41,1.05c1,0,1.47-.69,1.47-2.08v-.92h-1.64v-1.37h3.12v5.57h-1l-.11-.77a2.18,2.18,0,0,1-1.81.93,2.72,2.72,0,0,1-2.57-1.51,11,11,0,0,1,0-7.78,2.72,2.72,0,0,1,2.57-1.51,2.67,2.67,0,0,1,2.21.91,4.76,4.76,0,0,1,.84,2.52Z" fill="#fff"/><path d="M187.51,155.65v1.86h-1.85v-1.86Z" fill="#fff"/><path d="M204.92,147a3.12,3.12,0,0,1,2.77,1.34,8.48,8.48,0,0,1,0,7.8,3.14,3.14,0,0,1-2.77,1.34h-2.29V147Zm-.81,9.11h.81a1.8,1.8,0,0,0,1.71-.94,8.39,8.39,0,0,0,0-5.87,1.82,1.82,0,0,0-1.71-.94h-.81Z" fill="#fff"/><path d="M217.26,148.28a10.45,10.45,0,0,1,0,8,3,3,0,0,1-5.07,0,10.33,10.33,0,0,1,0-8,3,3,0,0,1,5.07,0Zm-3.91.89a10.25,10.25,0,0,0,0,6.2,1.46,1.46,0,0,0,1.37.94,1.51,1.51,0,0,0,1.4-.94,8,8,0,0,0,.46-3.1,7.52,7.52,0,0,0-.48-3.1,1.48,1.48,0,0,0-2.75,0Z" fill="#fff"/><path d="M235.52,147v1.36h-1.36v7.75h1.36v1.37h-4.2v-1.37h1.36v-7.75h-1.36V147Z" fill="#fff"/><path d="M246,147v1.36h-2.46v9.12H242.1v-9.12h-2.46V147Z" fill="#fff"/><path d="M259.92,147l1.64,4.42,1.63-4.42h1.51L262.29,153v4.53h-1.47V153l-2.4-5.95Z" fill="#fff"/><path d="M273.43,148.28a10.45,10.45,0,0,1,0,8,3,3,0,0,1-5.08,0,10.45,10.45,0,0,1,0-8,3,3,0,0,1,5.08,0Zm-3.92.89a10.46,10.46,0,0,0,0,6.2,1.49,1.49,0,0,0,2.77,0,7.76,7.76,0,0,0,.47-3.1,7.52,7.52,0,0,0-.48-3.1,1.48,1.48,0,0,0-2.76,0Z" fill="#fff"/><path d="M278.73,147v7.48a2.16,2.16,0,0,0,.34,1.33,1.46,1.46,0,0,0,2.15,0,2.16,2.16,0,0,0,.34-1.33V147H283v7.48a3.35,3.35,0,0,1-.77,2.34,3.16,3.16,0,0,1-4.25,0,3.35,3.35,0,0,1-.77-2.34V147Z" fill="#fff"/><path d="M289.61,147a3.26,3.26,0,0,1,2.26.75,2.72,2.72,0,0,1,.86,2.14,2.78,2.78,0,0,1-.71,2,2.83,2.83,0,0,1-1.15.7l1.91,4.91H291.2l-1.69-4.7h-.88v4.7h-1.47V147Zm-1,4.42h.82a2.07,2.07,0,0,0,1.35-.37,1.43,1.43,0,0,0,.45-1.16,1.37,1.37,0,0,0-.45-1.14,2,2,0,0,0-1.35-.39h-.82Z" fill="#fff"/><path d="M299.89,148.67a1.09,1.09,0,0,0-1-.44,1.23,1.23,0,0,0-1,.4,1.31,1.31,0,0,0-.32.91,1.51,1.51,0,0,0,.55,1.19,11.56,11.56,0,0,0,1.43.86,6.38,6.38,0,0,1,1.69,1.16,3,3,0,0,1,.81,2.14,2.65,2.65,0,0,1-.81,2.07,3.15,3.15,0,0,1-2.19.71,2.85,2.85,0,0,1-2.19-.87,3.63,3.63,0,0,1-.82-2.51h1.48a2.81,2.81,0,0,0,.31,1.51,1.41,1.41,0,0,0,1.22.51,1.62,1.62,0,0,0,1.16-.38,1.45,1.45,0,0,0,.36-1,1.76,1.76,0,0,0-.54-1.31,5.63,5.63,0,0,0-1.37-.9,8.14,8.14,0,0,1-1.66-1,2.76,2.76,0,0,1-.9-2.13,2.59,2.59,0,0,1,.71-1.87,2.73,2.73,0,0,1,2.07-.8,2.55,2.55,0,0,1,2.06.87,3.38,3.38,0,0,1,.73,2.29h-1.48A2.18,2.18,0,0,0,299.89,148.67Z" fill="#fff"/><path d="M311.22,147v1.36H307.1v3h3.52v1.36H307.1v3.38h4.17v1.37h-5.65V147Z" fill="#fff"/><path d="M316.66,147v9.11h3.55v1.37h-5V147Z" fill="#fff"/><path d="M329.94,147v1.36h-4.07v3h3.41v1.37h-3.41v4.8H324.4V147Z" fill="#fff"/></g></g></svg>