<svg xmlns="http://www.w3.org/2000/svg" viewBox="0 0 259.38 233.6"><title>kaijuu-2</title><g id="Layer_2" data-name="Layer 2"><g id="Layer_1-2" data-name="Layer 1"><path d="M24.93,7.58Q27.92,0,30.56,0q1.95,0,1.95,2.07a12.75,12.75,0,0,1-.57,3.79,43.61,43.61,0,0,1-.23,4.48,67.29,67.29,0,0,1-3,9.19,21,21,0,0,1,5.06-.69,14.34,14.34,0,0,1,11.14,4.83q5.63,6.66,5.63,18.15,0,19.07-8.85,31-6.54,8.26-13.55,8.27-4.83,0-4.83-4a14.81,14.81,0,0,1,.35-3.1,42.85,42.85,0,0,1-6.09-13.56l.46-.34A25.83,25.83,0,0,0,29.18,67.9q11.26-18,11.26-32.51A12.58,12.58,0,0,0,39,30.22a5.54,5.54,0,0,0-4.83-2.88,14.35,14.35,0,0,0-8.5,2.88q-2.41,7-6,16.31a30.13,30.13,0,0,0,9.19-8.27l.57.34A70,70,0,0,1,17.35,58c-1.46,3.75-3.1,5.63-4.94,5.63a3,3,0,0,1-2.87-2.18,16,16,0,0,1-1.27-6.09q0-5.06,5.17-19A23,23,0,0,1,8.62,37Q0,37,0,32.74q0-2.87,4.83-5.28A97,97,0,0,1,19,22.06,142.75,142.75,0,0,1,24.93,7.58ZM76.52,47.45a83,83,0,0,0-15-25.28q-3.34-3.9-3.34-5.51c0-1.53.65-2.3,2-2.3q4.25,0,13.32,7.35,17,13.45,17,23.79a17.46,17.46,0,0,1-2.65,9q-2.52,3.43-4.71,3.44a12,12,0,0,1-4.94-1.37Q73,58,65.26,59.86l-.35-.46A36.65,36.65,0,0,0,76.52,47.45Z" fill="#fff"/><path d="M56.35,90.42q-2.64,0-6.43-2.42c-3.07-2.06-4.6-3.79-4.6-5.17s.65-2.18,2-2.18a7.47,7.47,0,0,1,2.52.46,70,70,0,0,0,13.33-5A42.65,42.65,0,0,1,68,63q2.07-3.1,4.48-3.1c1.84,0,3.86,2.26,6.09,6.78q7.92.92,7.92,6.77,0,4.38-2.87,6.55a51.79,51.79,0,0,1-11.49,6.32q-4,6.56-6.43,18.15a34.39,34.39,0,0,1,10-2.75,24.43,24.43,0,0,0,2.19-5.06c-1.38-1.68-2.07-2.87-2.07-3.56,0-1.76.61-2.64,1.84-2.64q2.17,0,6.55,3.44,2.3,2,3.21,6.78a31.94,31.94,0,0,1,18.73,7.58,21.06,21.06,0,0,1,7.93,17q0,13-16.2,25.16-14,9.08-20.34,9.07c-1.07,0-1.61-.45-1.61-1.37s.65-1.77,2-2.53A54.66,54.66,0,0,0,91.51,143q8.61-10.92,8.62-19.54,0-11.82-15.4-15.39-7.47,12.75-15,23.21a6.68,6.68,0,0,0,1.72,2.41,37.09,37.09,0,0,0,6.09-9.54l.58.23c-.77,4.68-1.69,9.19-2.76,13.56a20.55,20.55,0,0,1,.34,3.1c0,2.61-1.41,3.91-4.25,3.91q-3.78,0-8.84-6.43Q51.07,150.72,43,150.73q-5.52,0-5.52-8.27c-2-3-3-5.51-3-7.58q0-11.72,22.41-26.66a128.81,128.81,0,0,1,3-18.49A12.37,12.37,0,0,1,56.35,90.42Zm.81,27.8q-13.09,11.72-13.1,19.19c0,1.6.65,2.41,1.95,2.41q3.45,0,12.76-9.88A39.87,39.87,0,0,1,57.16,118.22Zm15.62-8.73a33,33,0,0,0-8,2.53,52.2,52.2,0,0,0,.92,10.11A79.41,79.41,0,0,0,72.78,109.49Z" fill="#fff"/><path d="M127.3,73.53q-4,15.51-7.81,26.88a31,31,0,0,1,.57,5.52q0,3.55-5.74,3.56-7.47,0-13.21-8.27A52.09,52.09,0,0,1,93.64,79q-.81-8.83-.8-20-2.07-3.9-2.07-6a2.53,2.53,0,0,1,2.87-2.87q4.24,0,8.16,9.76A66,66,0,0,1,104,71.69q1.48,12,8.16,19.3,6.77-4.14,14.59-17.69ZM146.83,61q-5.28-2.41-5.28-4.83c0-1.61,1.07-2.41,3.21-2.41q5.64,0,15.28,7.35,12.18,11.49,12.18,20.57c0,4.59-.53,7.89-1.61,9.88q-2.4,3.33-4.71,3.33a4.19,4.19,0,0,1-3.1-1.27q-6.2,2.53-13.55,5.4l-.35-.57q7.69-7.47,9.88-14.25Q155.33,73.19,146.83,61Z" fill="#fff"/><path d="M133.87,119.37q7.24,8.61,7.24,13.67,0,3.11-1.84,11.49a132.75,132.75,0,0,0-2.64,24q0,18.5,7.35,32.63,3,4.94,3,6.66c0,1.53-.65,2.3-1.95,2.3s-3-.8-4.94-2.41q-15.29-12.3-15.28-33.55,0-15.85,3-44.69-4.94-9.19-4.94-10.92c0-1.83,1-2.75,3.1-2.75A11.54,11.54,0,0,1,133.87,119.37ZM172,131.2a6.81,6.81,0,0,1,2.19,5.52c0,1.91-1,2.87-3,2.87s-4.79-1.34-8.16-4a1.09,1.09,0,0,0-.92,1.15,7.63,7.63,0,0,0,1.61,4.82,7.59,7.59,0,0,1,1.27,3.91q0,3.11-3.68,3.1a10.36,10.36,0,0,1-5.74-1.49,33.74,33.74,0,0,1-6.21-6.21c-1.45-.76-2.18-1.57-2.18-2.41q0-2.41,5.86-2.41a9.73,9.73,0,0,1,4.59,1.49q1.6-7.82,7.82-7.81A14.48,14.48,0,0,1,172,131.2Z" fill="#fff"/><path d="M156.92,176.38a4,4,0,0,1,2.76,1,16.32,16.32,0,0,1,3.45,3.9,17.49,17.49,0,0,1,2.41,8.05q.35,4.59.35,7.58a51.28,51.28,0,0,1,22.51-16.43,36.38,36.38,0,0,0-1-6.78q-4.94-.69-4.94-1.84a1.89,1.89,0,0,1,.8-1.61c.69-.84,1.27-1.53,1.73-2.06a6,6,0,0,1,5.17-2.88q3.33,0,5.28,3.57a28.35,28.35,0,0,1,2.3,10.22q6.9.59,10.57,4.6a19.69,19.69,0,0,1,5.51,13.78,27.15,27.15,0,0,1-6.54,17.93q-5.87,6.09-13,6.09c-.69,0-1.45,0-2.29-.12a52.33,52.33,0,0,1-5.75,7.7q-6.09,4.47-8.73,4.48c-1.07,0-1.61-.5-1.61-1.5a3.23,3.23,0,0,1,.81-1.95,28.29,28.29,0,0,0,7-10.8,12,12,0,0,1-4.71-4.48,22.16,22.16,0,0,1-3.1-11.14c0-1.3.58-2,1.72-2,.85,0,1.42.5,1.73,1.5q1.38,3.55,7.24,7a111.49,111.49,0,0,0,2.06-22.75q-13.32,6.19-20.68,22.86a52,52,0,0,1-2.75,10.11,2.87,2.87,0,0,1-3,1.72q-3.57,0-5.74-3.9a33.31,33.31,0,0,1-2.3-12.75q0-3.57,2.18-19a40.2,40.2,0,0,1-1.72-7.7C154.63,177.23,155.39,176.38,156.92,176.38Zm44,29.65a19.66,19.66,0,0,0,3.1-9.77q0-7.12-6.09-9.54,0,14.72-2.07,23.56A11.23,11.23,0,0,0,200.93,206Z" fill="#fff"/><path d="M211.47,152.11q21.14-11.84,29.64-11.83,9.76,0,14.71,8.62,3.56,7.46,3.56,18.72,0,20.57-13.56,33.32-11,10-16.43,10-1.83,0-1.83-1.26c0-.77.76-1.84,2.29-3.22a62,62,0,0,0,16.78-43.19,41.56,41.56,0,0,0-1-10.8,5.32,5.32,0,0,0-5.28-3.79q-6,0-17.69,12.52-5.3,4.94-8.74,5.05A6.13,6.13,0,0,1,208.6,163a33.1,33.1,0,0,1-2.76-5.06,15.85,15.85,0,0,1-1.15-5.63c0-2,.69-3,2.07-3A5.67,5.67,0,0,1,211.47,152.11ZM217.33,136a46.4,46.4,0,0,0,13.1-8.85q-8.73-4.83-8.73-10.22c0-1.31.57-2,1.72-2a9,9,0,0,1,4.14,1.61,59.67,59.67,0,0,0,13.09,1.61,9.08,9.08,0,0,1,6.09,3.45c2.22,2.52,3.33,4.48,3.33,5.86q0,4.93-5.4,4.94a16,16,0,0,1-3.79-.69,213.33,213.33,0,0,1-23.43,4.82Z" fill="#fff"/></g></g></svg>