<svg xmlns="http://www.w3.org/2000/svg" viewBox="0 0 301.27 152.56"><title>kaijuu-1</title><g id="Layer_2" data-name="Layer 2"><g id="Layer_1-2" data-name="Layer 1"><path d="M52,134.63H50.9A6.48,6.48,0,0,1,46,132.45L14.26,96.63H14v31.5a6.5,6.5,0,0,1-6.5,6.5h-1a6.5,6.5,0,0,1-6.5-6.5V24.43a6.5,6.5,0,0,1,6.5-6.5h1a6.5,6.5,0,0,1,6.5,6.5v67.5h.29L44.33,58a6.47,6.47,0,0,1,4.87-2.2h0a6.5,6.5,0,0,1,4.73,11L36.73,85a12.66,12.66,0,0,0,0,17.34l20,21.3A6.5,6.5,0,0,1,52,134.63Z" fill="#fff"/><path d="M67.64,46.18a5.51,5.51,0,0,1,2.88-4.88A51.08,51.08,0,0,1,94.8,35.62q28.52,0,28.52,29.94v45.2a5.56,5.56,0,0,1-5.56,5.56h-2.71a5.56,5.56,0,0,1-5.56-5.56v-6.63h-.36q-8.19,14-24.16,14-11.49,0-18.25-6.2T59.94,95.22q0-22.11,26.17-25.74l18.25-2.56a5.58,5.58,0,0,0,4.73-6.38q-2.15-13.66-15.57-13.66a38.7,38.7,0,0,0-17.83,4.26,5.55,5.55,0,0,1-8-5ZM91,79.25q-9.7,1.27-13.37,4.85T74,94.08a11.75,11.75,0,0,0,4,9.19q4,3.57,10.55,3.57a19.55,19.55,0,0,0,15-6.42q5.93-6.42,5.92-16.11v-1.2a5.56,5.56,0,0,0-6.3-5.51Z" fill="#fff"/><path d="M140,28a8.64,8.64,0,0,1,8.77-8.77,8.89,8.89,0,0,1,6.38,2.5A8.33,8.33,0,0,1,157.7,28a8.16,8.16,0,0,1-2.6,6.17,8.94,8.94,0,0,1-6.38,2.46,8.6,8.6,0,0,1-6.28-2.46A8.32,8.32,0,0,1,140,28Zm1.64,99.67V62.77a7,7,0,0,1,7-7h0a7,7,0,0,1,7,7v64.88a7,7,0,0,1-7,7h0A7,7,0,0,1,141.59,127.65Z" fill="#fff"/><path d="M190,112.35q0,19.19-8,29.7t-22.56,10.51a23.63,23.63,0,0,1-6.45-.9,5.8,5.8,0,0,1-4.18-5.56h0a5.8,5.8,0,0,1,7.09-5.63,15.47,15.47,0,0,0,3.47.4q16.6,0,16.61-26.45V42.35a5.78,5.78,0,0,1,5.78-5.78h2.41A5.78,5.78,0,0,1,190,42.35ZM174.42,7.57A8.55,8.55,0,0,1,183.12,0a8.81,8.81,0,0,1,6.41,2.5,8.38,8.38,0,0,1,2.57,6.27,8.18,8.18,0,0,1-2.6,6.13,8.9,8.9,0,0,1-6.38,2.49,8.48,8.48,0,0,1-6.06-2.31A9,9,0,0,1,174.42,7.57Z" fill="#fff"/><path d="M264.2,111.92H264a6.92,6.92,0,0,1-6.92-6.91V99.52h-.28q-7.92,14.25-24.31,14.25-28,0-28-33.5V40a6.91,6.91,0,0,1,6.91-6.92h0A6.92,6.92,0,0,1,218.29,40V78.2q0,24,18.39,24a18.33,18.33,0,0,0,14.76-6.74q5.63-6.73,5.63-17V40A6.92,6.92,0,0,1,264,33.07h.21A6.92,6.92,0,0,1,271.12,40v65A6.92,6.92,0,0,1,264.2,111.92Z" fill="#fff"/><path d="M282.81,109.11a8.82,8.82,0,0,1,2.64-6.49,9.24,9.24,0,0,1,15.82,6.49,8.79,8.79,0,0,1-2.63,6.38,9,9,0,0,1-6.7,2.67,8.75,8.75,0,0,1-6.53-2.67A8.84,8.84,0,0,1,282.81,109.11Z" fill="#fff"/><path d="M255.08,21.26l-36.23,1.08a4.79,4.79,0,0,1-4.66-4.88h0a4.78,4.78,0,0,1,4.36-5.14l36.24-1.08a4.78,4.78,0,0,1,4.65,4.88h0A4.78,4.78,0,0,1,255.08,21.26Z" fill="#fff"/></g></g></svg>