<svg xmlns="http://www.w3.org/2000/svg" viewBox="0 0 460.74 101.89"><title>larkspur-alpha</title><g id="Layer_2" data-name="Layer 2"><g id="Layer_1-2" data-name="Layer 1"><path d="M77.32,33.74c6.63,9,5.65,21.67,4.73,27.48A3.35,3.35,0,0,1,78.25,64c-5.82-.85-18.19-3.69-24.81-12.71C44.57,39.23,28,5.44,34.57.6S68.46,21.67,77.32,33.74Z" fill="#fff"/><path d="M53,63c11-2,22,4.42,26.78,7.79a3.35,3.35,0,0,1,.84,4.64c-3.32,4.86-11.28,14.73-22.3,16.74C43.57,94.88,5.93,95,4.46,86.94S38.25,65.71,53,63Z" fill="#fff"/><path d="M38.51,41.5c7.42,2.93,11.62,10.94,13.27,14.8a2.37,2.37,0,0,1-1.24,3.12c-3.83,1.69-12.37,4.67-19.79,1.74C20.82,57.23-2,43.13.14,37.71S28.58,37.58,38.51,41.5Z" fill="#fff"/><path d="M93.55,75.07h5.64a2.57,2.57,0,0,0,2.91-2.9V17.33a1.47,1.47,0,0,0-1.66-1.66H95.71V12.35h4.73a55.79,55.79,0,0,0,11.28-1V72.17a2.57,2.57,0,0,0,2.91,2.9h5.64v3.32H93.55Z" fill="#fff"/><path d="M147.63,48.11q0-6.31-1.49-9.21a5.07,5.07,0,0,0-4.56-3,4.71,4.71,0,0,0-3.49,1.33,4.41,4.41,0,0,0-1.33,3.23,6,6,0,0,1,1,3.57,5.45,5.45,0,0,1-1.25,3.65A4.15,4.15,0,0,1,133.2,49a4.76,4.76,0,0,1-3.74-1.49,5.82,5.82,0,0,1-1.32-4,9.34,9.34,0,0,1,2.57-6.14q3.9-4.8,11.53-4.81,7.38,0,11.28,4,3.73,3.9,3.74,11.37v23c0,2.32.52,3.49,1.57,3.49,1.66,0,2.8-2.44,3.4-7.3h3.32q0,12.27-8.54,12.27-6.06,0-8.38-4.72-3.24,4.73-10.12,4.72a13.16,13.16,0,0,1-6.89-1.65,10.6,10.6,0,0,1-5.31-9.38q0-7.54,5.56-11.7a33.19,33.19,0,0,1,15.76-6Zm0,5.8a20.43,20.43,0,0,0-9.37,5.65,10.32,10.32,0,0,0-2.33,7A9.89,9.89,0,0,0,137.76,73a6.06,6.06,0,0,0,4.65,2.24q2.9,0,5.22-4.23Z" fill="#fff"/><path d="M166.37,75.07h2.49a2.57,2.57,0,0,0,2.9-2.9V38.57a1.46,1.46,0,0,0-1.66-1.66h-3V33.59h3a55.83,55.83,0,0,0,11.29-1v7q3.9-7,10.7-7a11.53,11.53,0,0,1,8.63,3.32,9.63,9.63,0,0,1,2.74,7,5.64,5.64,0,0,1-1.5,4.06,4.76,4.76,0,0,1-3.4,1.33,5,5,0,0,1-3.4-1.33,4.64,4.64,0,0,1-1.49-3.4,5.68,5.68,0,0,1,1.57-4.06,3.39,3.39,0,0,0-.49-1.91,3.8,3.8,0,0,0-3.16-1.66q-5.72,0-10.2,9.87V72.17a2.56,2.56,0,0,0,2.9,2.9h4.15v3.32H166.37Z" fill="#fff"/><path d="M205.52,75.07A2.2,2.2,0,0,0,208,72.58V17.33a1.47,1.47,0,0,0-1.66-1.66h-2.24V12.35h2.24a55.79,55.79,0,0,0,11.28-1v45.3L229.33,42a6.48,6.48,0,0,0,1.33-3.24c0-1.21-.64-1.82-1.91-1.82H226V33.59h15.27v3.32h-1.83c-1.6,0-3.21,1.07-4.81,3.23l-6.89,9.21L237.38,72c.88,2,2.24,3.07,4.06,3.07h.91v3.32H224.77V75.07h.41c1.38,0,2.07-.55,2.07-1.66a10,10,0,0,0-.91-3.23l-4.89-13.44-3.82,4.81v11a2.2,2.2,0,0,0,2.49,2.49h1v3.32H203.53V75.07Z" fill="#fff"/><path d="M246.49,62.13a17.78,17.78,0,0,0,3.65,8.46q4.65,5.47,9.29,5.48a9.33,9.33,0,0,0,6.39-2,8.1,8.1,0,0,0,2.57-5.9q0-5.22-5.47-7.38l-9.71-3.65q-8.88-3.24-8.88-12.61a11.1,11.1,0,0,1,4.07-8.63q3.81-3.31,10.78-3.32A13.77,13.77,0,0,1,267.07,35a6.72,6.72,0,0,0,2.49,1.24c.55,0,.88-.88,1-2.65h3.32l.91,14.93h-3.32q-2.07-6.23-4.89-9-3.74-3.57-6.89-3.57a6.32,6.32,0,0,0-6.55,6.47c0,3,1.57,5.2,4.73,6.64l9.12,3.4q10.22,3.31,10.21,14.19a12,12,0,0,1-5.31,10.12q-3.74,2.65-11.53,2.65a16.3,16.3,0,0,1-9.21-2.57,6.39,6.39,0,0,0-2.66-1.24c-.44,0-.72.94-.83,2.82h-3.32l-1.16-16.26Z" fill="#fff"/><path d="M278.67,87.35H280a2.2,2.2,0,0,0,2.49-2.49V38.57a1.47,1.47,0,0,0-1.66-1.66h-2.16V33.59h2.16a46.4,46.4,0,0,0,10.62-1v5.89q4-5.9,10.2-5.89A14,14,0,0,1,312.27,37q5.22,5.48,5.23,17.26T312.27,71.5a14,14,0,0,1-10.62,4.4,11.8,11.8,0,0,1-9.54-4.4V84.86a2.2,2.2,0,0,0,2.49,2.49h3.32v3.32H278.67Zm13.44-30.78q0,7.31,1.91,11.28c1.49,3.16,3.43,4.73,5.81,4.73s4.31-1.57,5.8-4.73q1.9-4.39,1.91-13.6t-1.91-13.61c-1.49-3.15-3.43-4.73-5.8-4.73s-4.32,1.58-5.81,4.73c-1.28,2.65-1.91,6.42-1.91,11.28Z" fill="#fff"/><path d="M317.73,33.59h2.66a55.79,55.79,0,0,0,11.28-1V67.27a8,8,0,0,0,1.5,5.06,4.65,4.65,0,0,0,4,2.08c1.93,0,3.76-1.58,5.47-4.73V38.57A1.46,1.46,0,0,0,341,36.91h-2.65V33.59H341a55.83,55.83,0,0,0,11.29-1v40a2.2,2.2,0,0,0,2.49,2.49h1.66v3.32H343.29V74.08a10.91,10.91,0,0,1-9.46,5.3,11.59,11.59,0,0,1-7.72-2.73,11.27,11.27,0,0,1-4.06-9V38.57a1.47,1.47,0,0,0-1.66-1.66h-2.66Z" fill="#fff"/><path d="M358.37,75.07h2.49a2.57,2.57,0,0,0,2.91-2.9V38.57a1.47,1.47,0,0,0-1.66-1.66h-3V33.59h3a55.79,55.79,0,0,0,11.28-1v7q3.9-7,10.7-7a11.5,11.5,0,0,1,8.63,3.32,9.59,9.59,0,0,1,2.74,7A5.68,5.68,0,0,1,394,46.94a4.77,4.77,0,0,1-3.4,1.33,5,5,0,0,1-3.41-1.33,4.68,4.68,0,0,1-1.49-3.4,5.65,5.65,0,0,1,1.58-4.06,3.39,3.39,0,0,0-.5-1.91,3.78,3.78,0,0,0-3.15-1.66q-5.73,0-10.21,9.87V72.17a2.57,2.57,0,0,0,2.9,2.9h4.15v3.32H358.37Z" fill="#fff"/><path d="M445.31,47.44a137.31,137.31,0,0,0,7.55-12.86,3.26,3.26,0,0,1,2.9-2q4.65,0,4.65,3.32a5.1,5.1,0,0,1-.66,2,119,119,0,0,1-8.63,14q-2.49,3.73-4.9,7.55,0,5.47.25,10.29c.33,2.88,1.58,4.32,3.73,4.32s4.46-1.33,6.89-4a2.87,2.87,0,0,1,2-1.32c1.11,0,1.66.44,1.66,1.32a5.68,5.68,0,0,1-1.33,2.57q-6,6.72-12.86,6.72a8.67,8.67,0,0,1-5.47-1.49c-2.44-1.82-4-4.76-4.73-8.79Q427,79.39,418.93,79.38q-14.35,0-14.36-16.17,0-9.3,8.22-20.33,8.7-10.29,18.83-10.29Q444.48,32.59,445.31,47.44ZM436,63.87q-.25-9-.25-14,0-13.93-4.56-13.94-5.23,0-11.7,10.29a42,42,0,0,0-4.81,19.41q0,10.45,5,10.46Q425.31,76.07,436,63.87Z" fill="#fff"/><path d="M99.71,90.65a.85.85,0,0,1-.25.65.62.62,0,0,1-.57.25.87.87,0,0,1-.66-.25.85.85,0,0,1-.08-.65.38.38,0,0,0-.08-.41c-.06-.11-.22-.17-.49-.17a2,2,0,0,0-1.15.41,5.53,5.53,0,0,0-1.32,1.81v5.34a.68.68,0,0,0,.17.49,1,1,0,0,0,.57.16h.66v.5H92.57v-.5h.65a.81.81,0,0,0,.58-.16.67.67,0,0,0,.16-.49V90.81a1,1,0,0,0-.16-.57.8.8,0,0,0-.58-.17H92.9v-.49h.24a5.14,5.14,0,0,0,.91-.08,2,2,0,0,0,.82-.33h.24V91.3a5.19,5.19,0,0,1,1.23-1.47A3.29,3.29,0,0,1,98,89.42a2,2,0,0,1,1.23.33A1.15,1.15,0,0,1,99.71,90.65Z" fill="#fff"/><path d="M109.82,96.72a2.18,2.18,0,0,1-.41,1.56,1.32,1.32,0,0,1-1.06.5,1.51,1.51,0,0,1-.91-.25,1.53,1.53,0,0,1-.49-.82,5.17,5.17,0,0,1-1.07.82,2.92,2.92,0,0,1-1.48.33,3.09,3.09,0,0,1-2.13-.66,2.11,2.11,0,0,1-.74-1.64,3.2,3.2,0,0,1,1.07-2.46q1.07-1,4.35-1.32v-1a2.76,2.76,0,0,0-.33-1.4c-.22-.33-.71-.49-1.48-.49s-1.34.14-1.56.41a1.07,1.07,0,0,0-.16,1,.7.7,0,0,1,0,.66.67.67,0,0,1-.66.33.75.75,0,0,1-.57-.25.79.79,0,0,1-.17-.57,1.85,1.85,0,0,1,.83-1.4,3.46,3.46,0,0,1,2.21-.65,3.59,3.59,0,0,1,2.22.57,2.21,2.21,0,0,1,.82,1.81v5.42a1.71,1.71,0,0,0,.08.73.66.66,0,0,0,.49.17.59.59,0,0,0,.58-.41,2.31,2.31,0,0,0,.16-1Zm-2.87.41V93.28c-1.75.21-2.85.57-3.28,1.06a2.83,2.83,0,0,0-.74,2,2.32,2.32,0,0,0,.41,1.4,1.41,1.41,0,0,0,1.23.57,2.6,2.6,0,0,0,1.15-.24A4.29,4.29,0,0,0,107,97.13Z" fill="#fff"/><path d="M117.64,91.8v-.33a1,1,0,0,0,.16-.33c.06-.22,0-.49-.33-.82a1.94,1.94,0,0,0-1.39-.41,2.51,2.51,0,0,0-2.14,1.15,5.46,5.46,0,0,0-.82,3.2,5,5,0,0,0,.74,2.87,2.7,2.7,0,0,0,2.46,1.15,2.52,2.52,0,0,0,1.89-.74,4.68,4.68,0,0,0,1.15-1.72l.41.16A4.77,4.77,0,0,1,118.54,98a3.32,3.32,0,0,1-2.46.9A4,4,0,0,1,113,97.71a5,5,0,0,1-1.15-3.53A5,5,0,0,1,113,90.73a4.17,4.17,0,0,1,3.2-1.31,2.89,2.89,0,0,1,2.14.74,2.28,2.28,0,0,1,.82,1.47.73.73,0,0,1-.25.66.65.65,0,0,1-.57.25.83.83,0,0,1-.58-.25A.66.66,0,0,1,117.64,91.8Z" fill="#fff"/><path d="M125.7,98.78h-3.78v-.5h.58a.79.79,0,0,0,.57-.16.68.68,0,0,0,.17-.49V90.81a1,1,0,0,0-.17-.57.79.79,0,0,0-.57-.17h-.58v-.49h.33a3.38,3.38,0,0,0,1.07-.16,4.64,4.64,0,0,0,.9-.41h.16v8.62a.68.68,0,0,0,.17.49,1,1,0,0,0,.57.16h.58ZM125,85.56a1,1,0,0,1-.33.74,1,1,0,0,1-.74.33,1,1,0,0,1-.74-.33,1,1,0,0,1-.32-.74,1,1,0,0,1,.32-.74,1.24,1.24,0,0,1,.74-.25,1.22,1.22,0,0,1,.74.25A1,1,0,0,1,125,85.56Z" fill="#fff"/><path d="M127.68,98.78v-.5h.42a.79.79,0,0,0,.57-.16.67.67,0,0,0,.16-.49V90.57a.81.81,0,0,0-.08-.41.43.43,0,0,0-.33-.09h-.65v-.49h.57a3.29,3.29,0,0,0,.74-.08,2,2,0,0,0,.74-.33H130v1.89a5.92,5.92,0,0,1,1.48-1.23,3.09,3.09,0,0,1,1.56-.41,2.58,2.58,0,0,1,2,.74,3.22,3.22,0,0,1,.66,2.21v5.26a.67.67,0,0,0,.16.49,1,1,0,0,0,.58.16h.41v.5h-3.45v-.5h.41a.81.81,0,0,0,.58-.16.67.67,0,0,0,.16-.49v-5.5a2.65,2.65,0,0,0-.41-1.56,1.5,1.5,0,0,0-1.23-.5,3.06,3.06,0,0,0-1.56.5A4.18,4.18,0,0,0,130,92v5.67a.68.68,0,0,0,.17.49,1,1,0,0,0,.57.16h.41v.5Z" fill="#fff"/><path d="M144.86,97.05a3.08,3.08,0,0,1,1.8.66,2,2,0,0,1,.58,1.48,2.3,2.3,0,0,1-1.07,2,5.43,5.43,0,0,1-3.2.73,5,5,0,0,1-2.79-.73,1.87,1.87,0,0,1-1.07-1.56,2,2,0,0,1,.41-1.15,2.66,2.66,0,0,1,1.32-.91A3,3,0,0,1,140,97a.91.91,0,0,1-.24-.66,1.39,1.39,0,0,1,.33-.9,1.94,1.94,0,0,1,.82-.58,4.55,4.55,0,0,1-.91-1,2.25,2.25,0,0,1-.32-1.23A3,3,0,0,1,143,89.5a4.41,4.41,0,0,1,1.23.16,2.23,2.23,0,0,1,1.07.58c.38-.28.71-.49,1-.66a2.71,2.71,0,0,1,.82-.16.65.65,0,0,1,.58.24,1.31,1.31,0,0,1,.16.58.66.66,0,0,1-.16.49.39.39,0,0,1-.41.25.55.55,0,0,1-.41-.17.52.52,0,0,1-.25-.33c-.05-.16-.19-.24-.41-.24a1.82,1.82,0,0,0-.57.33,2.09,2.09,0,0,1,.49.9,4.14,4.14,0,0,1,.16,1.15,3,3,0,0,1-.82,1.89,3,3,0,0,1-2.46,1,2.36,2.36,0,0,1-.9-.16,1.86,1.86,0,0,1-.66-.25,1.26,1.26,0,0,0-.49.41.83.83,0,0,0-.17.41.65.65,0,0,0,.17.49.66.66,0,0,0,.49.17q1.07.16,1.89.24C143.9,96.91,144.42,97,144.86,97.05Zm-3.37.66a2.79,2.79,0,0,0-1.07.74,2.6,2.6,0,0,0-.24,1.15,1.6,1.6,0,0,0,.74,1.23,3.58,3.58,0,0,0,2.21.57,4.56,4.56,0,0,0,2.22-.49,1.36,1.36,0,0,0,.82-1.31,1.45,1.45,0,0,0-.25-.91.78.78,0,0,0-.57-.41L143.54,98C142.89,97.9,142.2,97.82,141.49,97.71Zm-.65-5.09a2.41,2.41,0,0,0,.57,1.64A1.87,1.87,0,0,0,143,95a2,2,0,0,0,1.56-.66,2.53,2.53,0,0,0,.57-1.72,2.82,2.82,0,0,0-.65-2.05A2,2,0,0,0,143,90a2.07,2.07,0,0,0-1.56.58A2.87,2.87,0,0,0,140.84,92.62Z" fill="#fff"/><path d="M160.73,98.86a3.26,3.26,0,0,1-2.54-1.23,4.93,4.93,0,0,1-1.07-3.45,5,5,0,0,1,1.15-3.45A3.6,3.6,0,0,1,161,89.5a3.19,3.19,0,0,1,1.31.25,2.56,2.56,0,0,1,1.15.9V86.22a1.33,1.33,0,0,0-.16-.74.63.63,0,0,0-.58-.25h-.65v-.49h.9a2.19,2.19,0,0,0,.82-.17,3.23,3.23,0,0,0,.82-.49v13a.82.82,0,0,0,.17.58.66.66,0,0,0,.49.16h.57v.49h-.49a5.73,5.73,0,0,0-.82.08,8.77,8.77,0,0,0-.9.42h-.17V97.22a2.81,2.81,0,0,1-1.15,1.14A2.51,2.51,0,0,1,160.73,98.86Zm2.71-7.47a2,2,0,0,0-1.07-1,3.36,3.36,0,0,0-1.31-.24,2.25,2.25,0,0,0-2,1.14,5.84,5.84,0,0,0-.66,3,5,5,0,0,0,.66,2.88,2.15,2.15,0,0,0,1.89,1,2,2,0,0,0,1.48-.57,3.61,3.61,0,0,0,1-1.73Z" fill="#fff"/><path d="M169.37,94.18a4.61,4.61,0,0,0,.82,3.12,3,3,0,0,0,2.3,1,2.85,2.85,0,0,0,1.8-.65,3.87,3.87,0,0,0,1.07-1.48l.41.16A4.33,4.33,0,0,1,174.62,98a3.12,3.12,0,0,1-2.3.9,4.23,4.23,0,0,1-3.12-1.23,5,5,0,0,1-1.15-3.53,5.1,5.1,0,0,1,1.15-3.45,3.75,3.75,0,0,1,3-1.31,3.86,3.86,0,0,1,2.71,1.06,5,5,0,0,1,1.15,3.7Zm5.25-.49a4.25,4.25,0,0,0-.65-2.8,2.12,2.12,0,0,0-1.81-.9,2.55,2.55,0,0,0-2,1,4.15,4.15,0,0,0-.74,2.71Z" fill="#fff"/><path d="M187.44,90.07h-.16a1.11,1.11,0,0,0-.82.33,2.79,2.79,0,0,0-.49.82l-3.2,7.64h-.5l-3.2-8a1.1,1.1,0,0,0-.33-.57,1,1,0,0,0-.57-.17h-.41v-.49h3.53v.49H181c-.33,0-.52.09-.58.25a1.55,1.55,0,0,0,.09.82l2.3,5.83h.16l2.38-5.75a1.06,1.06,0,0,0,0-.82.67.67,0,0,0-.66-.33h-.16v-.49h2.95Z" fill="#fff"/><path d="M190.66,94.18a4.67,4.67,0,0,0,.82,3.12,3,3,0,0,0,2.3,1,2.87,2.87,0,0,0,1.81-.65,3.84,3.84,0,0,0,1.06-1.48l.42.16A4.44,4.44,0,0,1,195.92,98a3.14,3.14,0,0,1-2.3.9,4.23,4.23,0,0,1-3.12-1.23,5,5,0,0,1-1.15-3.53,5,5,0,0,1,1.15-3.45,3.72,3.72,0,0,1,2.95-1.31,3.84,3.84,0,0,1,2.71,1.06,4.91,4.91,0,0,1,1.15,3.7Zm5.26-.49a4.31,4.31,0,0,0-.66-2.8,2.12,2.12,0,0,0-1.81-.9,2.56,2.56,0,0,0-2,1,4.21,4.21,0,0,0-.74,2.71Z" fill="#fff"/><path d="M203.4,98.78h-3.77v-.5h.57a.82.82,0,0,0,.58-.16.72.72,0,0,0,.16-.49V85.89a.73.73,0,0,0-.16-.5.82.82,0,0,0-.58-.16h-.57v-.49h.49a2.37,2.37,0,0,0,.9-.17,4.51,4.51,0,0,0,.9-.49h.17V97.63a.67.67,0,0,0,.16.49,1,1,0,0,0,.58.16h.57Z" fill="#fff"/><path d="M214.25,94.18A4.7,4.7,0,0,1,213,97.54a3.89,3.89,0,0,1-3,1.4,4,4,0,0,1-3.12-1.4,4.88,4.88,0,0,1-1.15-3.36,5,5,0,0,1,1.15-3.29A3.89,3.89,0,0,1,210,89.42a3.73,3.73,0,0,1,3.11,1.47A5.21,5.21,0,0,1,214.25,94.18Zm-7.22.08a4.83,4.83,0,0,0,.82,3.12A2.72,2.72,0,0,0,210,98.45a2.53,2.53,0,0,0,2.13-1.15,5.11,5.11,0,0,0,.82-3A5.21,5.21,0,0,0,212,91a2.48,2.48,0,0,0-2-1.07A2.63,2.63,0,0,0,207.93,91,5.21,5.21,0,0,0,207,94.26Z" fill="#fff"/><path d="M219.69,101.32h.57v.49h-3.77v-.49H217a.79.79,0,0,0,.57-.16.82.82,0,0,0,.17-.58V90.89a1,1,0,0,0-.17-.57.79.79,0,0,0-.57-.16h-.49v-.5h.74a2.72,2.72,0,0,0,.73-.08,1.66,1.66,0,0,0,.74-.33h.17v1.89a4.22,4.22,0,0,1,1.23-1.23,3.19,3.19,0,0,1,1.56-.41,3.48,3.48,0,0,1,2.71,1.07,6.22,6.22,0,0,1-.08,7.06,3.6,3.6,0,0,1-2.71,1.23,3.68,3.68,0,0,1-2.71-1.15v2.87a.66.66,0,0,0,.24.58A1,1,0,0,0,219.69,101.32Zm-.82-4.68a2.59,2.59,0,0,0,1,1.23,2.68,2.68,0,0,0,1.48.41,2.42,2.42,0,0,0,2-1.06,4.83,4.83,0,0,0,.82-3.12,5.62,5.62,0,0,0-.66-3,1.92,1.92,0,0,0-1.8-1,2.68,2.68,0,0,0-1.48.41A3.49,3.49,0,0,0,218.87,92Z" fill="#fff"/><path d="M241.29,98.78h-3.61v-.5h.49a.68.68,0,0,0,.5-.16c.11-.06.16-.19.16-.41V91.55a1.41,1.41,0,0,0-.41-1.15,1.46,1.46,0,0,0-1.07-.33,3.27,3.27,0,0,0-1.31.33A2.44,2.44,0,0,0,235,91.63v6.08c0,.22.06.35.17.41a.66.66,0,0,0,.49.16h.49v.5h-3.45v-.5h.5a.66.66,0,0,0,.49-.16c.11-.06.16-.19.16-.41V91.55a1.38,1.38,0,0,0-.41-1.15,1.45,1.45,0,0,0-1.06-.33,3.31,3.31,0,0,0-1.32.33A2.33,2.33,0,0,0,230,91.72v6c0,.22.05.35.16.41a.66.66,0,0,0,.49.16h.49v.5h-3.44v-.5h.49a.66.66,0,0,0,.49-.16c.11-.06.17-.19.17-.41V90.57a.8.8,0,0,0-.09-.41.42.42,0,0,0-.32-.09h-.66v-.49h.57a4.47,4.47,0,0,0,.82-.08,1.86,1.86,0,0,0,.66-.25H230v1.4a5.67,5.67,0,0,1,1.23-1,4,4,0,0,1,1.39-.24,2.64,2.64,0,0,1,1.32.33,1.77,1.77,0,0,1,.9,1,5.77,5.77,0,0,1,1.23-1,3.12,3.12,0,0,1,1.56-.33,2.51,2.51,0,0,1,1.72.57,1.87,1.87,0,0,1,.66,1.48v6.24c0,.22.05.35.16.41a.68.68,0,0,0,.5.16h.65Z" fill="#fff"/><path d="M244.84,94.18a4.61,4.61,0,0,0,.82,3.12,3,3,0,0,0,2.3,1,2.87,2.87,0,0,0,1.81-.65,4,4,0,0,0,1.06-1.48l.41.16A4.23,4.23,0,0,1,250.09,98a3.1,3.1,0,0,1-2.3.9,4.22,4.22,0,0,1-3.11-1.23,5,5,0,0,1-1.15-3.53,5,5,0,0,1,1.15-3.45,3.72,3.72,0,0,1,2.95-1.31,3.86,3.86,0,0,1,2.71,1.06,4.91,4.91,0,0,1,1.15,3.7Zm5.25-.49a4.25,4.25,0,0,0-.65-2.8,2.12,2.12,0,0,0-1.81-.9,2.55,2.55,0,0,0-2,1,4.21,4.21,0,0,0-.74,2.71Z" fill="#fff"/><path d="M253.8,98.78v-.5h.41a.81.81,0,0,0,.58-.16.67.67,0,0,0,.16-.49V90.57a.93.93,0,0,0-.08-.41.43.43,0,0,0-.33-.09h-.65v-.49h.57a3.36,3.36,0,0,0,.74-.08,2,2,0,0,0,.74-.33h.16v1.89a5.92,5.92,0,0,1,1.48-1.23,3.09,3.09,0,0,1,1.56-.41,2.58,2.58,0,0,1,2.05.74,3.22,3.22,0,0,1,.66,2.21v5.26a.67.67,0,0,0,.16.49,1,1,0,0,0,.58.16H263v.5h-3.45v-.5H260a.82.82,0,0,0,.58-.16.72.72,0,0,0,.16-.49v-5.5a2.65,2.65,0,0,0-.41-1.56,1.53,1.53,0,0,0-1.23-.5,3,3,0,0,0-1.56.5A4.18,4.18,0,0,0,256.1,92v5.67a.68.68,0,0,0,.17.49,1,1,0,0,0,.57.16h.41v.5Z" fill="#fff"/><path d="M270.65,97.05a1.91,1.91,0,0,1-.66,1.31,2.3,2.3,0,0,1-1.56.5,2.13,2.13,0,0,1-1.56-.66,3.35,3.35,0,0,1-.57-2.3V90.07h-1.73v-.49h.74a1,1,0,0,0,1.07-.66,5.35,5.35,0,0,0,.49-1.88l.08-.66h.5v3.2h2.62v.49h-2.62v6.16c0,.82.13,1.34.41,1.56a1.39,1.39,0,0,0,.9.33,1.77,1.77,0,0,0,1-.33,1.39,1.39,0,0,0,.49-.9Z" fill="#fff"/></g></g></svg>