<svg xmlns="http://www.w3.org/2000/svg" viewBox="0 0 457.14 96.04"><title>larkspur-beta</title><g id="Layer_2" data-name="Layer 2"><g id="Layer_1-2" data-name="Layer 1"><path d="M93.4,53.69c0,11.55-8.55,21.47-12.87,25.74a3.46,3.46,0,0,1-4.86,0c-4.32-4.27-12.86-14.19-12.86-25.74C62.81,38.23,69.65,0,78.1,0S93.4,38.23,93.4,53.69Z" fill="#fff"/><path d="M55.26,63.16C65.65,68.22,70.82,80.25,72.77,86a3.45,3.45,0,0,1-2.13,4.37c-5.73,2-18.39,5.35-28.78.29C28,83.9-3.4,61,.3,53.4S41.37,56.39,55.26,63.16Z" fill="#fff"/><path d="M56.38,36.42c4.38,7,3,16.2,2,20.41a2.46,2.46,0,0,1-2.93,1.85C51.21,57.74,42.29,55,37.91,48c-5.85-9.33-16.22-35-11.12-38.2S50.52,27.09,56.38,36.42Z" fill="#fff"/><path d="M20.43,81.8c4.35.16,8,3.51,9.52,5.19a1.29,1.29,0,0,1-.07,1.83c-1.66,1.57-5.51,4.66-9.86,4.5C14.2,93.12-.11,90,0,86.84S14.61,81.59,20.43,81.8Z" fill="#fff"/><path d="M107,70.66h5.33a2.42,2.42,0,0,0,2.74-2.74V16.14a1.39,1.39,0,0,0-1.57-1.57h-4.46V11.44h4.46a52.91,52.91,0,0,0,10.66-.94V67.92a2.42,2.42,0,0,0,2.74,2.74h5.33v3.13H107Z" fill="#fff"/><path d="M158.08,45.2q0-6-1.41-8.69a4.78,4.78,0,0,0-4.31-2.83,4.45,4.45,0,0,0-3.29,1.26A4.16,4.16,0,0,0,147.82,38a5.68,5.68,0,0,1,.94,3.37,5.22,5.22,0,0,1-1.17,3.45,4,4,0,0,1-3.14,1.25,4.46,4.46,0,0,1-3.52-1.41,5.43,5.43,0,0,1-1.26-3.76,8.81,8.81,0,0,1,2.43-5.79q3.69-4.55,10.89-4.55,7,0,10.65,3.76T167.17,45v21.7c0,2.19.49,3.29,1.49,3.29q2.34,0,3.21-6.89H175q0,11.6-8.07,11.59-5.72,0-7.91-4.46-3,4.45-9.55,4.46A12.33,12.33,0,0,1,143,73.16a10,10,0,0,1-5-8.85q0-7.12,5.25-11a31.39,31.39,0,0,1,14.88-5.72Zm0,5.48A19.28,19.28,0,0,0,149.23,56,9.76,9.76,0,0,0,147,62.67a9.32,9.32,0,0,0,1.72,6,5.71,5.71,0,0,0,4.39,2.11c1.82,0,3.47-1.33,4.93-4Z" fill="#fff"/><path d="M175.77,70.66h2.35a2.42,2.42,0,0,0,2.74-2.74V36.19a1.38,1.38,0,0,0-1.56-1.56h-2.82V31.49h2.82A52.88,52.88,0,0,0,190,30.55v6.58q3.68-6.59,10.11-6.58a10.87,10.87,0,0,1,8.14,3.13,9.11,9.11,0,0,1,2.59,6.58,5.35,5.35,0,0,1-1.41,3.84,4.51,4.51,0,0,1-3.21,1.26A4.69,4.69,0,0,1,203,44.1a4.42,4.42,0,0,1-1.41-3.21A5.39,5.39,0,0,1,203,37.05a3.13,3.13,0,0,0-.47-1.8,3.58,3.58,0,0,0-3-1.57q-5.42,0-9.64,9.33V67.92a2.42,2.42,0,0,0,2.74,2.74h3.92v3.13H175.77Z" fill="#fff"/><path d="M212.73,70.66a2.08,2.08,0,0,0,2.35-2.35V16.14a1.38,1.38,0,0,0-1.56-1.57H211.4V11.44h2.12a52.88,52.88,0,0,0,10.65-.94V53.27l11-13.87a6,6,0,0,0,1.26-3c0-1.15-.6-1.72-1.8-1.72h-2.59V31.49h14.41v3.14h-1.72c-1.52,0-3,1-4.54,3l-6.51,8.69,9.09,21.39q1.26,2.89,3.84,2.9h.86v3.13H230.9V70.66h.4c1.3,0,1.95-.52,1.95-1.57a9.28,9.28,0,0,0-.86-3l-4.62-12.69-3.6,4.54V68.31a2.08,2.08,0,0,0,2.35,2.35h.94v3.13H210.85V70.66Z" fill="#fff"/><path d="M251.42,58.44a16.91,16.91,0,0,0,3.44,8q4.39,5.16,8.78,5.17a8.8,8.8,0,0,0,6-1.88,7.7,7.7,0,0,0,2.43-5.56q0-4.94-5.17-7l-9.17-3.44q-8.38-3.06-8.38-11.91a10.48,10.48,0,0,1,3.84-8.15q3.6-3.12,10.18-3.13a13,13,0,0,1,7.44,2.27A6.38,6.38,0,0,0,273.19,34c.52,0,.84-.84.94-2.51h3.13l.87,14.1H275q-2-5.87-4.62-8.54c-2.35-2.24-4.52-3.37-6.5-3.37a6,6,0,0,0-6.19,6.11c0,2.83,1.49,4.91,4.47,6.27l8.61,3.21q9.64,3.13,9.64,13.4a11.34,11.34,0,0,1-5,9.55q-3.52,2.5-10.89,2.51a15.46,15.46,0,0,1-8.7-2.43,6,6,0,0,0-2.5-1.17c-.42,0-.68.89-.79,2.66h-3.13l-1.1-15.35Z" fill="#fff"/><path d="M281.8,82.25h1.25a2.07,2.07,0,0,0,2.35-2.35V36.19a1.38,1.38,0,0,0-1.57-1.56h-2V31.49h2a43.92,43.92,0,0,0,10-.94v5.56c2.5-3.7,5.72-5.56,9.63-5.56a13.2,13.2,0,0,1,10,4.15q4.94,5.17,4.93,16.3t-4.93,16.29a13.16,13.16,0,0,1-10,4.15,11.11,11.11,0,0,1-9-4.15V79.9a2.07,2.07,0,0,0,2.35,2.35H300v3.13H281.8Zm12.69-29.06q0,6.9,1.8,10.65c1.41,3,3.23,4.47,5.48,4.47s4.07-1.49,5.48-4.47q1.8-4.16,1.8-12.84t-1.8-12.85q-2.12-4.47-5.48-4.47c-2.25,0-4.07,1.49-5.48,4.47q-1.8,3.76-1.8,10.65Z" fill="#fff"/><path d="M318.68,31.49h2.5a52.91,52.91,0,0,0,10.66-.94V63.29a7.53,7.53,0,0,0,1.41,4.78A4.4,4.4,0,0,0,337,70c1.82,0,3.55-1.49,5.17-4.47V36.19a1.39,1.39,0,0,0-1.57-1.56H338.1V31.49h2.51a52.88,52.88,0,0,0,10.65-.94V68.31a2.08,2.08,0,0,0,2.35,2.35h1.57v3.13H342.8V69.72a10.3,10.3,0,0,1-8.93,5,10.86,10.86,0,0,1-7.28-2.59,10.62,10.62,0,0,1-3.84-8.45V36.19a1.38,1.38,0,0,0-1.57-1.56h-2.5Z" fill="#fff"/><path d="M357.05,70.66h2.35a2.43,2.43,0,0,0,2.74-2.74V36.19a1.38,1.38,0,0,0-1.57-1.56h-2.82V31.49h2.82a52.81,52.81,0,0,0,10.65-.94v6.58q3.69-6.59,10.11-6.58a10.91,10.91,0,0,1,8.15,3.13,9.1,9.1,0,0,1,2.58,6.58,5.35,5.35,0,0,1-1.41,3.84,4.51,4.51,0,0,1-3.21,1.26,4.68,4.68,0,0,1-3.21-1.26,4.42,4.42,0,0,1-1.41-3.21,5.35,5.35,0,0,1,1.49-3.84,3.21,3.21,0,0,0-.47-1.8,3.61,3.61,0,0,0-3-1.57q-5.4,0-9.64,9.33V67.92A2.43,2.43,0,0,0,374,70.66h3.91v3.13H357.05Z" fill="#fff"/><path d="M425.26,21.39q6.89-10.89,17.39-10.89a14.32,14.32,0,0,1,10,3.6,13.68,13.68,0,0,1,4.54,10.42q0,10.74-12.22,16.06a20.38,20.38,0,0,1,5,13.78q0,9.48-5.63,15.36a20.47,20.47,0,0,1-14.1,5q-9.26,0-16.14-9.4-2.19,6.74-3.76,13.39a4,4,0,0,1-4.23,3.22q-3.76,0-3.76-2.9a13.39,13.39,0,0,1,.94-4.15Q419.3,30,425.26,21.39ZM437,42.46q-6.11,0-6.11-3.61,0-3,5.4-3.05a10.4,10.4,0,0,1,6.27,2.27q8.22-4.55,8.23-11a9.94,9.94,0,0,0-2.12-6.74,10.2,10.2,0,0,0-7.52-3.05c-3.91,0-7.26,1.72-10,5.17q-7,8.15-15.83,39.16,7.68,10,14.26,10,5.71,0,9.63-5.41,3.06-4.55,3.06-13.55,0-6.73-2.27-10.57A12.39,12.39,0,0,1,437,42.46Z" fill="#fff"/><path d="M113.45,85.43a.88.88,0,0,1-.23.62.63.63,0,0,1-.54.23.85.85,0,0,1-.62-.23.79.79,0,0,1-.08-.62.36.36,0,0,0-.08-.39c-.05-.11-.21-.16-.46-.16a1.84,1.84,0,0,0-1.09.39A5.1,5.1,0,0,0,109.11,87v5a.65.65,0,0,0,.15.47,1,1,0,0,0,.55.15h.62v.47h-3.72v-.47h.62a.76.76,0,0,0,.54-.15A.65.65,0,0,0,108,92V85.58a1,1,0,0,0-.15-.54.71.71,0,0,0-.54-.16H107v-.46h.23a4.46,4.46,0,0,0,.85-.08,1.71,1.71,0,0,0,.78-.31h.23v2a4.67,4.67,0,0,1,1.16-1.4,3.13,3.13,0,0,1,1.55-.39,1.9,1.9,0,0,1,1.17.31A1.12,1.12,0,0,1,113.45,85.43Z" fill="#fff"/><path d="M123,91.16a2.07,2.07,0,0,1-.39,1.47,1.25,1.25,0,0,1-1,.47,1.18,1.18,0,0,1-1.31-1,5,5,0,0,1-1,.78,2.87,2.87,0,0,1-1.4.31,2.93,2.93,0,0,1-2-.62,2,2,0,0,1-.7-1.55,3.05,3.05,0,0,1,1-2.33c.67-.62,2-1,4.11-1.24v-.93a2.68,2.68,0,0,0-.31-1.32c-.21-.31-.68-.46-1.4-.46s-1.27.13-1.47.39a1,1,0,0,0-.16.93.62.62,0,0,1,0,.62.63.63,0,0,1-.62.31.73.73,0,0,1-.54-.24.76.76,0,0,1-.16-.54,1.74,1.74,0,0,1,.78-1.32,3.27,3.27,0,0,1,2.09-.62,3.35,3.35,0,0,1,2.1.55,2.07,2.07,0,0,1,.77,1.7v5.12a1.53,1.53,0,0,0,.08.69.6.6,0,0,0,.46.16.56.56,0,0,0,.55-.39,2.24,2.24,0,0,0,.15-.93Zm-2.71.39V87.91c-1.66.2-2.69.54-3.1,1a2.68,2.68,0,0,0-.7,1.86,2.19,2.19,0,0,0,.39,1.32,1.32,1.32,0,0,0,1.16.54,2.32,2.32,0,0,0,1.08-.23A4,4,0,0,0,120.29,91.55Z" fill="#fff"/><path d="M130.38,86.51V86.2a.8.8,0,0,0,.15-.31c.05-.21-.05-.46-.31-.77a1.83,1.83,0,0,0-1.32-.39,2.37,2.37,0,0,0-2,1.08,5.13,5.13,0,0,0-.78,3,4.73,4.73,0,0,0,.7,2.71,2.56,2.56,0,0,0,2.33,1.08,2.44,2.44,0,0,0,1.78-.69A4.5,4.5,0,0,0,132,90.31l.39.15a4.43,4.43,0,0,1-1.16,1.94,3.15,3.15,0,0,1-2.33.85A3.8,3.8,0,0,1,126,92.09a4.67,4.67,0,0,1-1.09-3.33A4.74,4.74,0,0,1,126,85.5a4,4,0,0,1,3-1.24,2.73,2.73,0,0,1,2,.7,2.14,2.14,0,0,1,.78,1.4.72.72,0,0,1-.23.62.63.63,0,0,1-.55.23.78.78,0,0,1-.54-.23A.66.66,0,0,1,130.38,86.51Z" fill="#fff"/><path d="M138,93.1h-3.57v-.47H135a.8.8,0,0,0,.55-.15.65.65,0,0,0,.15-.47V85.58a1,1,0,0,0-.15-.54.75.75,0,0,0-.55-.16h-.54v-.46h.31a3,3,0,0,0,1-.16,4.39,4.39,0,0,0,.85-.38h.16V92a.65.65,0,0,0,.15.47,1,1,0,0,0,.54.15H138Zm-.7-12.48a1,1,0,1,1-1.71-.7,1.18,1.18,0,0,1,1.4,0A1,1,0,0,1,137.29,80.62Z" fill="#fff"/><path d="M139.86,93.1v-.47h.39a.76.76,0,0,0,.54-.15A.61.61,0,0,0,141,92V85.35a.87.87,0,0,0-.08-.39.46.46,0,0,0-.31-.08h-.62v-.46h.54a3,3,0,0,0,.7-.08,1.64,1.64,0,0,0,.7-.31H142v1.78a5.74,5.74,0,0,1,1.4-1.16,2.94,2.94,0,0,1,1.47-.39,2.5,2.5,0,0,1,1.94.7,3.09,3.09,0,0,1,.62,2.09v5a.65.65,0,0,0,.15.47,1,1,0,0,0,.54.15h.39v.47h-3.25v-.47h.38a.8.8,0,0,0,.55-.15.65.65,0,0,0,.15-.47V86.82a2.47,2.47,0,0,0-.39-1.47,1.41,1.41,0,0,0-1.16-.47,2.9,2.9,0,0,0-1.47.47A4,4,0,0,0,142,86.67V92a.61.61,0,0,0,.16.47,1,1,0,0,0,.54.15h.39v.47Z" fill="#fff"/><path d="M156.07,91.47a2.93,2.93,0,0,1,1.71.62,1.9,1.9,0,0,1,.54,1.4,2.15,2.15,0,0,1-1,1.86,5.13,5.13,0,0,1-3,.69,4.79,4.79,0,0,1-2.63-.69,1.78,1.78,0,0,1-1-1.48,1.84,1.84,0,0,1,.39-1.08,2.49,2.49,0,0,1,1.24-.85,3.1,3.1,0,0,1-.78-.55.85.85,0,0,1-.23-.62,1.31,1.31,0,0,1,.31-.85,1.75,1.75,0,0,1,.77-.54,4.78,4.78,0,0,1-.85-.93,2.11,2.11,0,0,1-.31-1.16,3,3,0,0,1,.78-2.1,3,3,0,0,1,2.32-.85,3.92,3.92,0,0,1,1.16.16,2.06,2.06,0,0,1,1,.54c.36-.26.67-.47.93-.62a2.4,2.4,0,0,1,.78-.16.59.59,0,0,1,.54.24,1.26,1.26,0,0,1,.16.54.64.64,0,0,1-.16.46.36.36,0,0,1-.39.24.53.53,0,0,1-.38-.16.46.46,0,0,1-.24-.31.36.36,0,0,0-.39-.23,2,2,0,0,0-.54.31,1.93,1.93,0,0,1,.47.85,4,4,0,0,1,.15,1.09,2.92,2.92,0,0,1-3.1,2.71,2.15,2.15,0,0,1-.85-.16,1.71,1.71,0,0,1-.62-.23,1.15,1.15,0,0,0-.47.39.74.74,0,0,0-.15.39.64.64,0,0,0,.15.46.67.67,0,0,0,.47.16c.67.1,1.27.18,1.78.23S155.66,91.42,156.07,91.47Zm-3.17.62a2.66,2.66,0,0,0-1,.7,2.32,2.32,0,0,0-.23,1.08,1.52,1.52,0,0,0,.69,1.17,3.42,3.42,0,0,0,2.1.54,4.33,4.33,0,0,0,2.09-.47,1.28,1.28,0,0,0,.77-1.24,1.36,1.36,0,0,0-.23-.85.73.73,0,0,0-.54-.39c-.88-.15-1.45-.25-1.71-.31C154.21,92.27,153.57,92.19,152.9,92.09Zm-.62-4.8a2.29,2.29,0,0,0,.54,1.55,1.77,1.77,0,0,0,1.47.69,1.83,1.83,0,0,0,1.47-.62,2.32,2.32,0,0,0,.55-1.62,2.66,2.66,0,0,0-.62-1.94,1.9,1.9,0,0,0-1.4-.54,2,2,0,0,0-1.47.54A2.73,2.73,0,0,0,152.28,87.29Z" fill="#fff"/><path d="M171.06,93.18a3.07,3.07,0,0,1-2.4-1.17,4.63,4.63,0,0,1-1-3.25,4.74,4.74,0,0,1,1.09-3.26,3.39,3.39,0,0,1,2.56-1.16,3.26,3.26,0,0,1,1.24.23,2.59,2.59,0,0,1,1.08.86V81.24a1.32,1.32,0,0,0-.15-.7.63.63,0,0,0-.55-.23h-.62v-.46h.86a2.17,2.17,0,0,0,.77-.16,3,3,0,0,0,.78-.47V91.47a.76.76,0,0,0,.15.54.61.61,0,0,0,.47.16h.54v.46h-.47a5.15,5.15,0,0,0-.77.08,8.63,8.63,0,0,0-.85.39h-.16V91.63a2.8,2.8,0,0,1-1.08,1.08A2.42,2.42,0,0,1,171.06,93.18Zm2.56-7.06a2,2,0,0,0-1-.93,3.19,3.19,0,0,0-1.24-.23,2.13,2.13,0,0,0-1.86,1.09,5.5,5.5,0,0,0-.62,2.86,4.73,4.73,0,0,0,.62,2.72,2,2,0,0,0,1.79.93,1.86,1.86,0,0,0,1.39-.55,3.34,3.34,0,0,0,.93-1.62Z" fill="#fff"/><path d="M179.22,88.76A4.36,4.36,0,0,0,180,91.7a2.81,2.81,0,0,0,2.17.93,2.65,2.65,0,0,0,1.71-.62,3.67,3.67,0,0,0,1-1.39l.39.15a4.07,4.07,0,0,1-1.08,1.63,3,3,0,0,1-2.17.85,4,4,0,0,1-2.95-1.16A4.72,4.72,0,0,1,178,88.76a4.79,4.79,0,0,1,1.08-3.26,3.55,3.55,0,0,1,2.79-1.24,3.66,3.66,0,0,1,2.56,1,4.63,4.63,0,0,1,1.08,3.49Zm5-.47a4,4,0,0,0-.62-2.63,2,2,0,0,0-1.71-.85,2.44,2.44,0,0,0-1.94.93,4,4,0,0,0-.69,2.55Z" fill="#fff"/><path d="M196.28,84.88h-.15a1.1,1.1,0,0,0-.78.31,2.66,2.66,0,0,0-.46.78l-3,7.21h-.46l-3-7.6a1.13,1.13,0,0,0-.31-.54.94.94,0,0,0-.55-.16h-.38v-.46h3.33v.46h-.31q-.47,0-.54.24a1.44,1.44,0,0,0,.07.77l2.17,5.5H192L194.27,86a1.05,1.05,0,0,0,0-.78.64.64,0,0,0-.62-.31h-.16v-.46h2.79Z" fill="#fff"/><path d="M199.32,88.76a4.41,4.41,0,0,0,.77,2.94,2.83,2.83,0,0,0,2.17.93A2.65,2.65,0,0,0,204,92a3.82,3.82,0,0,0,1-1.39l.38.15a4,4,0,0,1-1.08,1.63,2.93,2.93,0,0,1-2.17.85,4,4,0,0,1-3-1.16,4.72,4.72,0,0,1-1.08-3.33,4.79,4.79,0,0,1,1.08-3.26A3.58,3.58,0,0,1,202,84.26a3.63,3.63,0,0,1,2.56,1,4.59,4.59,0,0,1,1.09,3.49Zm5-.47a4,4,0,0,0-.62-2.63,2,2,0,0,0-1.71-.85,2.4,2.4,0,0,0-1.93.93,3.92,3.92,0,0,0-.7,2.55Z" fill="#fff"/><path d="M211.35,93.1h-3.57v-.47h.55a.79.79,0,0,0,.54-.15A.65.65,0,0,0,209,92V80.93a.62.62,0,0,0-.15-.46.74.74,0,0,0-.54-.16h-.55v-.46h.47a2.34,2.34,0,0,0,.85-.16,4.35,4.35,0,0,0,.85-.47h.16V92a.65.65,0,0,0,.15.47,1,1,0,0,0,.55.15h.54Z" fill="#fff"/><path d="M221.59,88.76a4.45,4.45,0,0,1-1.16,3.18,3.69,3.69,0,0,1-2.87,1.31,3.76,3.76,0,0,1-2.94-1.31,4.64,4.64,0,0,1-1.09-3.18,4.7,4.7,0,0,1,1.09-3.1,3.66,3.66,0,0,1,2.94-1.4,3.55,3.55,0,0,1,2.95,1.4A4.94,4.94,0,0,1,221.59,88.76Zm-6.82.08a4.53,4.53,0,0,0,.78,2.94,2.58,2.58,0,0,0,2,1,2.37,2.37,0,0,0,2-1.09,5.89,5.89,0,0,0-.08-6,2.34,2.34,0,0,0-1.94-1,2.46,2.46,0,0,0-1.93,1A4.89,4.89,0,0,0,214.77,88.84Z" fill="#fff"/><path d="M226.72,95.5h.55V96H223.7V95.5h.47a.79.79,0,0,0,.54-.15.8.8,0,0,0,.15-.55V85.66a1,1,0,0,0-.15-.54.74.74,0,0,0-.54-.16h-.47V84.5h.7a3,3,0,0,0,.7-.08,1.73,1.73,0,0,0,.69-.31H226v1.78a4.12,4.12,0,0,1,1.16-1.16,3,3,0,0,1,1.47-.39,3.31,3.31,0,0,1,2.56,1,4.75,4.75,0,0,1,1,3.33A4.66,4.66,0,0,1,231.06,92a3.36,3.36,0,0,1-2.55,1.17,3.74,3.74,0,0,1-1.48-.31,3.66,3.66,0,0,1-1.08-.78V94.8a.63.63,0,0,0,.23.55A1,1,0,0,0,226.72,95.5ZM226,91.08a2.49,2.49,0,0,0,.93,1.17,2.64,2.64,0,0,0,1.39.38,2.27,2.27,0,0,0,1.86-1,4.57,4.57,0,0,0,.78-2.95,5.34,5.34,0,0,0-.62-2.79,1.83,1.83,0,0,0-1.71-.93,2.56,2.56,0,0,0-1.39.39A3.3,3.3,0,0,0,226,86.74Z" fill="#fff"/><path d="M247.12,93.1h-3.41v-.47h.47a.64.64,0,0,0,.46-.15c.11,0,.16-.18.16-.39V86.28a1.32,1.32,0,0,0-.39-1.09,1.42,1.42,0,0,0-1-.31,3.26,3.26,0,0,0-1.24.31,2.28,2.28,0,0,0-1,1.17v5.73c0,.21.06.34.16.39a.64.64,0,0,0,.46.15h.47v.47H239v-.47h.47a.62.62,0,0,0,.46-.15c.11,0,.16-.18.16-.39V86.28a1.32,1.32,0,0,0-.39-1.09,1.4,1.4,0,0,0-1-.31,3.26,3.26,0,0,0-1.24.31,2.2,2.2,0,0,0-1,1.24v5.66q0,.31.15.39a.66.66,0,0,0,.47.15h.46v.47h-3.25v-.47h.46a.66.66,0,0,0,.47-.15q.15-.08.15-.39V85.35a.75.75,0,0,0-.08-.39.44.44,0,0,0-.31-.08h-.62v-.46h.55a4,4,0,0,0,.77-.08,1.71,1.71,0,0,0,.62-.23h.16v1.32a5.23,5.23,0,0,1,1.16-.93,3.6,3.6,0,0,1,1.32-.24,2.53,2.53,0,0,1,1.24.31,1.72,1.72,0,0,1,.85.93,5.89,5.89,0,0,1,1.16-.93,3,3,0,0,1,1.47-.31,2.33,2.33,0,0,1,1.63.55,1.73,1.73,0,0,1,.62,1.39v5.89c0,.21.05.34.16.39a.64.64,0,0,0,.46.15h.62Z" fill="#fff"/><path d="M250.47,88.76a4.41,4.41,0,0,0,.77,2.94,2.83,2.83,0,0,0,2.17.93,2.63,2.63,0,0,0,1.71-.62,3.7,3.7,0,0,0,1-1.39l.39.15a4.11,4.11,0,0,1-1.09,1.63,2.93,2.93,0,0,1-2.17.85,4,4,0,0,1-2.95-1.16,4.72,4.72,0,0,1-1.08-3.33,4.79,4.79,0,0,1,1.08-3.26,3.58,3.58,0,0,1,2.79-1.24,3.63,3.63,0,0,1,2.56,1,4.59,4.59,0,0,1,1.09,3.49Zm5-.47a4,4,0,0,0-.62-2.63,2,2,0,0,0-1.71-.85,2.4,2.4,0,0,0-1.93.93,3.92,3.92,0,0,0-.7,2.55Z" fill="#fff"/><path d="M258.93,93.1v-.47h.39a.76.76,0,0,0,.54-.15A.61.61,0,0,0,260,92V85.35a.87.87,0,0,0-.08-.39.44.44,0,0,0-.31-.08H259v-.46h.54a3,3,0,0,0,.7-.08A1.64,1.64,0,0,0,261,84h.15v1.78a5.74,5.74,0,0,1,1.4-1.16,2.94,2.94,0,0,1,1.47-.39,2.5,2.5,0,0,1,1.94.7,3.09,3.09,0,0,1,.62,2.09v5a.65.65,0,0,0,.15.47,1,1,0,0,0,.55.15h.38v.47h-3.25v-.47h.39a.79.79,0,0,0,.54-.15.65.65,0,0,0,.15-.47V86.82a2.54,2.54,0,0,0-.38-1.47,1.44,1.44,0,0,0-1.17-.47,2.9,2.9,0,0,0-1.47.47,4.13,4.13,0,0,0-1.32,1.32V92a.61.61,0,0,0,.16.47,1,1,0,0,0,.54.15h.39v.47Z" fill="#fff"/><path d="M274.84,91.47a1.84,1.84,0,0,1-.62,1.24,2.23,2.23,0,0,1-1.48.47,2,2,0,0,1-1.47-.62,3.18,3.18,0,0,1-.54-2.17V84.88H269.1v-.46h.7a1,1,0,0,0,1-.62,5.2,5.2,0,0,0,.46-1.78l.08-.62h.46v3h2.48v.46h-2.48V90.7q0,1.15.39,1.47a1.31,1.31,0,0,0,.85.31,1.64,1.64,0,0,0,.93-.31,1.27,1.27,0,0,0,.47-.85Z" fill="#fff"/></g></g></svg>