<svg xmlns="http://www.w3.org/2000/svg" viewBox="0 0 338.39 252.33"><title>minervasystem-2</title><g id="Layer_2" data-name="Layer 2"><g id="Layer_1-2" data-name="Layer 1"><path d="M269.81,0C248,0,228,18.25,215,50.08l6.15,2.51C233.08,23.4,250.82,6.65,269.81,6.65c34.15,0,61.93,53.61,61.93,119.52S304,245.68,269.81,245.68c-16.71,0-32.45-12.91-44.3-36.37l-5.94,3c13.05,25.81,30.89,40,50.24,40,37.82,0,68.58-56.6,68.58-126.16S307.63,0,269.81,0Z" fill="#fff"/><path d="M21.17,99.3,11.72,61.22H.17v3.35H.84q3.35,0,3.34,3.35V118.8q0,3.35-3.34,3.35H.17v3.35H11.55v-3.35h-.67q-3.35,0-3.35-3.35V77.63l9,32.47h5.35L30.13,77v43.1A1.85,1.85,0,0,1,28,122.15H27.2v3.35H42.77v-3.35h-.84a1.85,1.85,0,0,1-2.09-2.09V66.66a1.85,1.85,0,0,1,2.09-2.09h.84V61.22H30.63Z" fill="#fff"/><path d="M71.89,64.57h3.93V61.22H52.39v3.35h3.93a2.59,2.59,0,0,1,2.93,2.93v51.72a2.59,2.59,0,0,1-2.93,2.93H52.39v3.35H75.82v-3.35H71.89A2.59,2.59,0,0,1,69,119.22V67.5A2.59,2.59,0,0,1,71.89,64.57Z" fill="#fff"/><path d="M101.1,61.22H88v3.35h1.51q3.35,0,3.34,3.35v50.46q0,3.77-3.34,3.77H88v3.35H101.1v-3.35H99.59q-3.34,0-3.35-3.77V73.11l18.41,52.39H121V68.34q0-3.77,3.35-3.77h1.51V61.22H112.81v3.35h1.51q3.34,0,3.35,3.77V110Z" fill="#fff"/><path d="M152.4,122.15h-4.94a2.22,2.22,0,0,1-2.51-2.51V93.53h4.18q5,0,5,7.53v2.51h3.35V80.14h-3.35v2.51q0,7.53-5,7.53H145V67.08a2.22,2.22,0,0,1,2.51-2.51h4.44q9.28,0,11.8,17.07H167L165.7,61.22H131.39v3.35h1.34a2.22,2.22,0,0,1,2.51,2.51v52.56a2.22,2.22,0,0,1-2.51,2.51h-1.34v3.35H166l2-20.42H164.7Q161.52,122.15,152.4,122.15Z" fill="#fff"/><path d="M206.38,120.64q-2.59,0-2.76-5.77l-.26-10.3q-.17-10.36-9.54-11.71,14.66-1.68,14.65-15.4,0-10.8-9.12-14.4a27.41,27.41,0,0,0-10.21-1.84H172.9v3.35H174a2.22,2.22,0,0,1,2.51,2.51v52.56a2.22,2.22,0,0,1-2.51,2.51H172.9v3.35h17.66v-3.35h-1.84a2.22,2.22,0,0,1-2.51-2.51V93.69h2.51q5,0,5.27,10.72l.34,10.37q.33,11.73,10,11.72t9.7-16.07h-3.34Q209.22,120.64,206.38,120.64ZM188.3,90.35h-2.09V67.08c0-1.67.7-2.51,2.09-2.51a11.25,11.25,0,0,1,6.95,2.34q3.51,2.76,3.51,10.55T195.25,88A11.2,11.2,0,0,1,188.3,90.35Z" fill="#fff"/><path d="M232.32,64.57H235V61.22H215.92v3.35h1.84q1.85,0,2.43,2.34l12.63,58.59h6.45l12-58.17a3.35,3.35,0,0,1,3.51-2.76h1.92V61.22H241.36v3.35h3q2.76,0,2.76,2.43a16.77,16.77,0,0,1-.33,3.26l-8,41.93-8.21-42.6a15.7,15.7,0,0,1-.33-2.68C230.23,65.35,230.93,64.57,232.32,64.57Z" fill="#fff"/><path d="M282.79,122.15h-2.6v3.35h19.67v-3.35h-.92c-1.56,0-2.57-.89-3-2.68L282,61.22h-5.94l-14.23,56q-1.17,4.94-4.6,4.94v3.35h14.23v-3.35h-3.35a2.37,2.37,0,0,1-2.68-2.68,16.3,16.3,0,0,1,.59-3.68l2.84-11.05H282.7l2.35,10.88a22.42,22.42,0,0,1,.5,4.18C285.55,121.37,284.63,122.15,282.79,122.15Zm-13-20.76,6.53-25.94,5.53,25.94Z" fill="#fff"/><path d="M19.42,183.85a6.85,6.85,0,0,0-7,7,6.85,6.85,0,0,0,7,7,7,7,0,1,0,0-14.07Z" fill="#fff"/><path d="M74.15,163.6,62.1,154.23a12.8,12.8,0,0,1-4.77-10.54,10,10,0,0,1,1.92-6.37A6,6,0,0,1,64.11,135q2.92,0,5.94,4.27,2.42,3.76,4,12.38h3.35l-.67-19H73.4c-.12,2-.42,2.93-.93,2.93a3.09,3.09,0,0,1-1.67-1,11.56,11.56,0,0,0-7.53-2.93q-6.36,0-10.21,3.52A14.35,14.35,0,0,0,48.46,146q0,10.54,6.19,15.23l12.89,10q4.42,4.11,4.43,12a13,13,0,0,1-2.59,8.37,7.55,7.55,0,0,1-5.86,2.93q-4.35,0-8.12-5.69-2.92-4.77-4.43-13.14H47.62l1,21.17H52c.39-2.06.86-3.1,1.42-3.1A5.89,5.89,0,0,1,55.82,195a14.62,14.62,0,0,0,8.95,2.93q6.87,0,11-3.69a17.57,17.57,0,0,0,5.1-13Q80.84,169.13,74.15,163.6Z" fill="#fff"/><path d="M113.23,136h2.93c1.51,0,2.26.73,2.26,2.18a13.09,13.09,0,0,1-.75,3.77l-8,22.84-7.12-24.1a11.26,11.26,0,0,1-.67-2.68c0-1.33.78-2,2.35-2h2.34v-3.34H86.87V136h1.59a3,3,0,0,1,3,2.26l10.8,32.23v20.17a2.59,2.59,0,0,1-2.93,2.92H96.83v3.35h20.58v-3.35H114.9c-2,0-2.92-1-2.92-3v-22l10-27.79c1.34-3.17,3.32-4.77,5.94-4.77v-3.34H113.23Z" fill="#fff"/><path d="M159.85,163.6l-12.06-9.37A12.8,12.8,0,0,1,143,143.69a9.91,9.91,0,0,1,1.93-6.37A6,6,0,0,1,149.8,135q2.94,0,5.94,4.27,2.43,3.76,4,12.38h3.35l-.67-19h-3.35c-.11,2-.42,2.93-.92,2.93a3.05,3.05,0,0,1-1.67-1,11.6,11.6,0,0,0-7.53-2.93q-6.36,0-10.21,3.52A14.35,14.35,0,0,0,134.15,146q0,10.54,6.2,15.23l12.88,10q4.44,4.11,4.44,12a13.11,13.11,0,0,1-2.59,8.37,7.55,7.55,0,0,1-5.86,2.93q-4.35,0-8.12-5.69-2.92-4.77-4.44-13.14h-3.34l1,21.17h3.35c.39-2.06.86-3.1,1.42-3.1a5.89,5.89,0,0,1,2.43,1.18,14.62,14.62,0,0,0,8.95,2.93q6.87,0,11-3.69a17.57,17.57,0,0,0,5.1-13Q166.54,169.13,159.85,163.6Z" fill="#fff"/><path d="M175.24,132.64l-1.92,21.42h3.35Q180.35,136,185.45,136c1.79,0,2.68.84,2.68,2.52v52.14c0,2-1,2.92-2.93,2.92h-3.43v3.35H204.2v-3.35h-3.43a2.59,2.59,0,0,1-2.93-2.92V138.5c0-1.68.89-2.52,2.68-2.52q5.1,0,8.79,18.08h3.34l-1.92-21.42Z" fill="#fff"/><path d="M253.75,176.49H250.4q-3.18,17.07-12.3,17.07h-4.94a2.21,2.21,0,0,1-2.51-2.51V164.94h4.18q5,0,5,7.53V175h3.35V151.55h-3.35v2.51q0,7.53-5,7.53h-4.18V138.5a2.22,2.22,0,0,1,2.51-2.52h4.43q9.3,0,11.8,17.08h3.35l-1.34-20.42H217.09V136h1.34a2.22,2.22,0,0,1,2.51,2.52v52.55a2.22,2.22,0,0,1-2.51,2.51h-1.34v3.35h34.65Z" fill="#fff"/><path d="M257.93,193.56h-.67v3.35h11.38v-3.35H268q-3.35,0-3.35-3.34V149l9,32.47h5.36l8.28-33.14v43.1a1.85,1.85,0,0,1-2.09,2.09h-.84v3.35h15.57v-3.35H299a1.85,1.85,0,0,1-2.09-2.09V138.08A1.85,1.85,0,0,1,299,136h.84v-3.34H287.72l-9.45,38.08-9.46-38.08H257.26V136h.67q3.35,0,3.35,3.35v50.89Q261.28,193.57,257.93,193.56Z" fill="#fff"/><path d="M6.61,50.4a3.24,3.24,0,0,0,1.16-.68,2.76,2.76,0,0,0,.71-1,3.37,3.37,0,0,0,.24-1.29v-.21a2.56,2.56,0,0,0-.6-1.72,3,3,0,0,0-1.5-1V44.3a3.28,3.28,0,0,0,.83-.37,2.67,2.67,0,0,0,.67-.58,2.4,2.4,0,0,0,.44-.76,2.63,2.63,0,0,0,.16-1v-.21a3.44,3.44,0,0,0-.24-1.29,2.72,2.72,0,0,0-.71-1,3.37,3.37,0,0,0-1.16-.67A4.46,4.46,0,0,0,5,38.19H0v1.39H1.07v9.68H0v1.39H5A4.46,4.46,0,0,0,6.61,50.4ZM2.56,39.58H4.93a2.66,2.66,0,0,1,1.71.52,1.74,1.74,0,0,1,.66,1.44v.1a2,2,0,0,1-.62,1.52A2.46,2.46,0,0,1,5,43.71H2.56Zm0,9.68V45.1H5a2.46,2.46,0,0,1,1.69.56,2,2,0,0,1,.62,1.52v.11a1.75,1.75,0,0,1-.66,1.45,2.66,2.66,0,0,1-1.71.52Z" fill="#fff"/><path d="M15.5,49.59a4.41,4.41,0,0,0,1.53,1,6,6,0,0,0,2.11.34A6.07,6.07,0,0,0,21,50.64a3.82,3.82,0,0,0,1.35-.75,3.23,3.23,0,0,0,.82-1.15,3.92,3.92,0,0,0,.27-1.47v-.21a2.94,2.94,0,0,0-.92-2.27,5.42,5.42,0,0,0-2.89-1.15,12.82,12.82,0,0,1-1.46-.3,4,4,0,0,1-1-.42,1.81,1.81,0,0,1-.63-.63,1.71,1.71,0,0,1-.22-.88V41.3a1.64,1.64,0,0,1,.22-.84,1.9,1.9,0,0,1,.58-.62,3.08,3.08,0,0,1,.82-.38,3.51,3.51,0,0,1,1-.13,3.81,3.81,0,0,1,1.13.16,3.17,3.17,0,0,1,.94.46,2.21,2.21,0,0,1,.65.77,2.27,2.27,0,0,1,.24,1.06v.65h1.5v-.75a3.49,3.49,0,0,0-.3-1.43,3.28,3.28,0,0,0-.86-1.2,4.26,4.26,0,0,0-1.4-.81,6,6,0,0,0-3.54-.06,3.75,3.75,0,0,0-1.3.69,3,3,0,0,0-.85,1.05,2.92,2.92,0,0,0-.3,1.33v.21a3.13,3.13,0,0,0,.28,1.39,2.86,2.86,0,0,0,.82,1,4.38,4.38,0,0,0,1.29.68,8.88,8.88,0,0,0,1.7.38,5.43,5.43,0,0,1,2.35.75,1.71,1.71,0,0,1,.72,1.49v.11a2.06,2.06,0,0,1-.71,1.63,3.09,3.09,0,0,1-2.09.61,3.6,3.6,0,0,1-2.5-.81,3.17,3.17,0,0,1-.9-2.46v-.43h-1.5v.53a5,5,0,0,0,.32,1.81A4.23,4.23,0,0,0,15.5,49.59Z" fill="#fff"/><polygon points="37.23 49.26 31.07 49.26 31.07 45.1 37.02 45.1 37.02 43.71 31.07 43.71 31.07 39.58 37.13 39.58 37.13 38.19 29.58 38.19 29.58 50.65 37.23 50.65 37.23 49.26" fill="#fff"/><path d="M51.39,50.65H53L49.22,38.19H46.4L42.63,50.65h1.6l.91-3.1h5.34Zm-5.84-4.48,2.15-7.34h.22l2.15,7.34Z" fill="#fff"/><rect x="59.6" y="45.38" width="5.34" height="1.28" fill="#fff"/><path d="M76.72,43.28a1.1,1.1,0,0,0-.8.34,1.11,1.11,0,0,0-.33.8,1.14,1.14,0,0,0,2.28,0,1.12,1.12,0,0,0-.34-.8A1.1,1.1,0,0,0,76.72,43.28Z" fill="#fff"/><path d="M76.72,37.94a4,4,0,0,0-3.22,1.34A5.55,5.55,0,0,0,72.34,43v2.78A5.53,5.53,0,0,0,73.5,49.6a4.65,4.65,0,0,0,6.45,0,5.52,5.52,0,0,0,1.15-3.79V43A5.55,5.55,0,0,0,80,39.28,4.05,4.05,0,0,0,76.72,37.94Zm2.89,7.76a4.83,4.83,0,0,1-.72,2.84,2.83,2.83,0,0,1-4.33,0,4.83,4.83,0,0,1-.72-2.84V43.14A6.3,6.3,0,0,1,74,41.58a3.63,3.63,0,0,1,.54-1.21,2.61,2.61,0,0,1,.9-.79,2.88,2.88,0,0,1,2.52,0,2.56,2.56,0,0,1,.91.79,3.63,3.63,0,0,1,.54,1.21,6.3,6.3,0,0,1,.18,1.56Z" fill="#fff"/><path d="M88,45.36a3.5,3.5,0,0,0,1.26.79,4.61,4.61,0,0,0,1.61.27A3.46,3.46,0,0,0,92.63,46a3,3,0,0,0,1.17-1.23H94v1.85a3.36,3.36,0,0,1-.21,1.22,3,3,0,0,1-.57.95,2.45,2.45,0,0,1-.87.61,2.9,2.9,0,0,1-1.12.22,2.67,2.67,0,0,1-2-.71A2.48,2.48,0,0,1,88.57,47h-1.5a4.16,4.16,0,0,0,.3,1.61,3.46,3.46,0,0,0,.86,1.23,3.79,3.79,0,0,0,1.32.78,5.22,5.22,0,0,0,1.67.26,4.69,4.69,0,0,0,1.69-.3,3.92,3.92,0,0,0,2.27-2.22,4.57,4.57,0,0,0,.33-1.79V42.11a4.37,4.37,0,0,0-.32-1.68,3.78,3.78,0,0,0-.9-1.32,4.37,4.37,0,0,0-1.37-.86,5,5,0,0,0-3.47,0,4.11,4.11,0,0,0-1.37.87,3.86,3.86,0,0,0-.9,1.34,4.29,4.29,0,0,0-.32,1.7v.21a4.58,4.58,0,0,0,.29,1.71A3.63,3.63,0,0,0,88,45.36Zm.37-3.24a3.24,3.24,0,0,1,.2-1.13,2.6,2.6,0,0,1,.57-.91,2.44,2.44,0,0,1,.9-.61,3.34,3.34,0,0,1,2.33,0,2.54,2.54,0,0,1,.9.6,2.47,2.47,0,0,1,.57.9,3.07,3.07,0,0,1,.2,1.1v.34a2.77,2.77,0,0,1-.22,1.07,2.55,2.55,0,0,1-.59.85,2.79,2.79,0,0,1-.9.56,3,3,0,0,1-1.13.21A3.25,3.25,0,0,1,90,44.9a2.51,2.51,0,0,1-1.47-1.43,2.78,2.78,0,0,1-.22-1.13Z" fill="#fff"/></g></g></svg>