<svg xmlns="http://www.w3.org/2000/svg" viewBox="0 0 348.35 145.63"><title>minervasystem-1</title><g id="Layer_2" data-name="Layer 2"><g id="Layer_1-2" data-name="Layer 1"><path d="M19.12,55.42,10.58,21H.15v3H.76q3,0,3,3V73a2.67,2.67,0,0,1-3,3H.15v3H10.43v-3h-.6q-3,0-3-3V35.85l8.09,29.32h4.84l7.48-29.93V74.17a1.67,1.67,0,0,1-1.89,1.89h-.75v3H38.63v-3h-.76A1.67,1.67,0,0,1,36,74.17V25.94a1.67,1.67,0,0,1,1.89-1.89h.76V21h-11Z" fill="#fff"/><path d="M64.93,24.05h3.56V21H47.32v3h3.55a2.34,2.34,0,0,1,2.65,2.65V73.41a2.34,2.34,0,0,1-2.65,2.65H47.32v3H68.49v-3H64.93a2.34,2.34,0,0,1-2.64-2.65V26.7A2.34,2.34,0,0,1,64.93,24.05Z" fill="#fff"/><path d="M91.31,21H79.52v3h1.36c2,0,3,1,3,3V72.66c0,2.27-1,3.4-3,3.4H79.52v3H91.31v-3H90q-3,0-3-3.4V31.76l16.63,47.32h5.74V27.45c0-2.26,1-3.4,3-3.4h1.36V21H101.9v3h1.36c2,0,3,1.14,3,3.4V65.1Z" fill="#fff"/><path d="M137.65,76.06h-4.46a2,2,0,0,1-2.27-2.27V50.21h3.78q4.55,0,4.54,6.8v2.27h3V38.11h-3v2.27c0,4.54-1.51,6.8-4.54,6.8h-3.78V26.32a2,2,0,0,1,2.27-2.27h4q8.38,0,10.65,15.42h3L149.67,21h-31v3h1.21a2,2,0,0,1,2.26,2.27V73.79a2,2,0,0,1-2.26,2.27h-1.21v3H150l1.81-18.44h-3Q145.89,76.06,137.65,76.06Z" fill="#fff"/><path d="M186.41,74.7q-2.35,0-2.5-5.22l-.23-9.29q-.15-9.37-8.61-10.59,13.23-1.5,13.23-13.91,0-9.75-8.24-13A24.86,24.86,0,0,0,170.83,21H156.17v3h1a2,2,0,0,1,2.27,2.27V73.79a2,2,0,0,1-2.27,2.27h-1v3h16v-3h-1.66a2,2,0,0,1-2.27-2.27V50.36h2.27q4.53,0,4.76,9.67l.3,9.38q.3,10.57,9,10.58t8.76-14.51h-3Q189,74.7,186.41,74.7ZM170.08,47.34h-1.89v-21c0-1.51.63-2.27,1.89-2.27a10.12,10.12,0,0,1,6.27,2.12q3.18,2.49,3.18,9.52t-3.18,9.53A10.12,10.12,0,0,1,170.08,47.34Z" fill="#fff"/><path d="M218,24.05h2.72c1.67,0,2.5.73,2.5,2.2a14.34,14.34,0,0,1-.31,2.94l-7.25,37.87-7.41-38.47a14.24,14.24,0,0,1-.3-2.42c0-1.41.63-2.12,1.89-2.12h2.42V21H195v3h1.67c1.1,0,1.83.71,2.19,2.12l11.41,52.91h5.82l10.81-52.53a3,3,0,0,1,3.18-2.5h1.73V21H218Z" fill="#fff"/><path d="M267.29,73.64,254.74,21h-5.37L236.52,71.6q-1.05,4.45-4.16,4.46v3h12.85v-3h-3a2.14,2.14,0,0,1-2.42-2.42,15,15,0,0,1,.53-3.33l2.57-10h12.47l2.12,9.82a20.23,20.23,0,0,1,.45,3.78c0,1.41-.83,2.12-2.49,2.12h-2.34v3h17.76v-3H270C268.6,76.06,267.69,75.25,267.29,73.64ZM243.7,57.31l5.9-23.43,5,23.43Z" fill="#fff"/><path d="M67,113.5,56.09,105a11.6,11.6,0,0,1-4.31-9.53,9,9,0,0,1,1.74-5.74,5.44,5.44,0,0,1,4.38-2.12q2.66,0,5.37,3.86,2.19,3.39,3.63,11.18h3l-.6-17.16h-3c-.1,1.77-.37,2.65-.83,2.65A2.73,2.73,0,0,1,64,87.27a10.45,10.45,0,0,0-6.8-2.64,13.11,13.11,0,0,0-9.22,3.17,12.94,12.94,0,0,0-4.16,9.83q0,9.53,5.59,13.76L61,120.46q4,3.71,4,10.81a11.7,11.7,0,0,1-2.35,7.55,6.77,6.77,0,0,1-5.29,2.65q-3.93,0-7.33-5.14a34.58,34.58,0,0,1-4-11.87H43l.91,19.13h3c.35-1.87.78-2.8,1.29-2.8a5.25,5.25,0,0,1,2.19,1.06,13.21,13.21,0,0,0,8.09,2.64q6.2,0,9.9-3.32A15.9,15.9,0,0,0,73,129.45Q73,118.5,67,113.5Z" fill="#fff"/><path d="M102.27,88.56h2.65c1.36,0,2,.65,2,2a11.86,11.86,0,0,1-.68,3.4L99.1,114.56,92.67,92.79a9.9,9.9,0,0,1-.6-2.42c0-1.21.7-1.81,2.12-1.81H96.3v-3H78.46v3H79.9a2.74,2.74,0,0,1,2.72,2l9.75,29.1v18.22a2.33,2.33,0,0,1-2.64,2.64H87.46v3h18.59v-3h-2.26c-1.77,0-2.65-.9-2.65-2.72V118l9.07-25.09c1.21-2.88,3-4.31,5.37-4.31v-3H102.27Z" fill="#fff"/><path d="M144.38,113.5,133.49,105a11.6,11.6,0,0,1-4.31-9.53,9,9,0,0,1,1.74-5.74,5.45,5.45,0,0,1,4.39-2.12q2.64,0,5.36,3.86,2.19,3.39,3.63,11.18h3l-.61-17.16h-3c-.1,1.77-.38,2.65-.83,2.65a2.75,2.75,0,0,1-1.52-.91,10.44,10.44,0,0,0-6.8-2.64,13.13,13.13,0,0,0-9.22,3.17,13,13,0,0,0-4.16,9.83q0,9.53,5.59,13.76l11.65,9.07q4,3.71,4,10.81a11.76,11.76,0,0,1-2.34,7.55,6.79,6.79,0,0,1-5.29,2.65q-3.93,0-7.33-5.14-2.65-4.31-4-11.87h-3l.91,19.13h3c.35-1.87.78-2.8,1.28-2.8a5.25,5.25,0,0,1,2.19,1.06,13.23,13.23,0,0,0,8.09,2.64q6.19,0,9.9-3.32a15.86,15.86,0,0,0,4.61-11.72Q150.42,118.5,144.38,113.5Z" fill="#fff"/><path d="M158.29,85.53l-1.74,19.35h3q3.33-16.32,7.94-16.32c1.61,0,2.42.75,2.42,2.27v47.09a2.34,2.34,0,0,1-2.65,2.64h-3.1v3h20.26v-3h-3.1a2.33,2.33,0,0,1-2.64-2.64V90.83c0-1.52.8-2.27,2.41-2.27q4.62,0,7.94,16.32h3l-1.73-19.35Z" fill="#fff"/><path d="M215.05,140.56h-4.46a2,2,0,0,1-2.26-2.26V114.71h3.78q4.53,0,4.53,6.8v2.27h3V102.62h-3v2.26q0,6.81-4.53,6.81h-3.78V90.83a2,2,0,0,1,2.26-2.27h4q8.39,0,10.66,15.42h3l-1.21-18.45h-31v3h1.21a2,2,0,0,1,2.27,2.27V138.3a2,2,0,0,1-2.27,2.26h-1.21v3h31.29l1.82-18.45h-3Q223.29,140.56,215.05,140.56Z" fill="#fff"/><path d="M251.34,119.93l-8.54-34.4H232.36v3H233a2.67,2.67,0,0,1,3,3v46a2.67,2.67,0,0,1-3,3h-.61v3h10.28v-3H242c-2,0-3-1-3-3V100.35l8.08,29.33h4.84l7.48-29.93v38.92a1.67,1.67,0,0,1-1.88,1.89h-.76v3h14.06v-3h-.76a1.67,1.67,0,0,1-1.89-1.89V90.45a1.67,1.67,0,0,1,1.89-1.89h.76v-3h-11Z" fill="#fff"/><path d="M337.66,32.68Q329.2,19.1,315.15,19.1T292.64,32.68q-10.69,17.73-10.7,49.69t10.7,49.68q8.46,13.59,22.51,13.58t22.51-13.58q10.69-17.73,10.69-49.68T337.66,32.68ZM326,126.3q-3.83,12.95-10.85,12.94T304.29,126.3q-3.82-12.14-3.83-43.93t3.83-43.94q3.84-12.94,10.86-12.94T326,38.43q3.84,12.15,3.84,43.94T326,126.3Z" fill="#fff"/><path d="M6,11.26a3.11,3.11,0,0,0,1-.62,2.54,2.54,0,0,0,.64-.94,2.92,2.92,0,0,0,.22-1.16V8.35a2.31,2.31,0,0,0-.55-1.56A2.69,2.69,0,0,0,6,5.93V5.74a2.52,2.52,0,0,0,.75-.33,2.5,2.5,0,0,0,1-1.21,2.57,2.57,0,0,0,.14-.85v-.2A2.92,2.92,0,0,0,7.66,2,2.5,2.5,0,0,0,7,1.06,3.09,3.09,0,0,0,6,.45,4.1,4.1,0,0,0,4.55.22H0V1.48H1v8.75H0v1.25H4.55A4.11,4.11,0,0,0,6,11.26ZM2.32,1.48H4.45A2.45,2.45,0,0,1,6,2a1.56,1.56,0,0,1,.59,1.3v.1A1.71,1.71,0,0,1,6,4.71a2.22,2.22,0,0,1-1.53.5H2.32Zm0,8.75V6.46H4.5A2.18,2.18,0,0,1,6,7a1.75,1.75,0,0,1,.56,1.38v.09A1.56,1.56,0,0,1,6,9.75a2.39,2.39,0,0,1-1.55.48Z" fill="#fff"/><path d="M14,10.53a3.72,3.72,0,0,0,1.38.86,5.38,5.38,0,0,0,1.91.32A5.3,5.3,0,0,0,19,11.47a3.52,3.52,0,0,0,1.22-.68,2.87,2.87,0,0,0,.74-1,3.53,3.53,0,0,0,.25-1.32v-.2a2.65,2.65,0,0,0-.84-2.05,4.94,4.94,0,0,0-2.61-1Q17,5,16.4,4.88a3.91,3.91,0,0,1-.94-.38,1.72,1.72,0,0,1-.57-.57,1.53,1.53,0,0,1-.19-.8V3a1.45,1.45,0,0,1,.19-.76,1.77,1.77,0,0,1,.53-.56,2.53,2.53,0,0,1,.74-.35,3.24,3.24,0,0,1,.89-.12,3.38,3.38,0,0,1,1,.15,2.6,2.6,0,0,1,.85.42,1.88,1.88,0,0,1,.59.69,2.12,2.12,0,0,1,.22,1v.58h1.35V3.38a3.26,3.26,0,0,0-.27-1.3A2.82,2.82,0,0,0,20,1,3.89,3.89,0,0,0,18.76.27,5,5,0,0,0,17.06,0a4.81,4.81,0,0,0-1.5.22,3.27,3.27,0,0,0-1.17.62,2.78,2.78,0,0,0-.77.94A2.72,2.72,0,0,0,13.35,3v.19a2.73,2.73,0,0,0,.26,1.26,2.57,2.57,0,0,0,.74.91A4.1,4.1,0,0,0,15.51,6a8.15,8.15,0,0,0,1.54.34A5,5,0,0,1,19.16,7a1.54,1.54,0,0,1,.65,1.35v.1a1.86,1.86,0,0,1-.63,1.47,2.82,2.82,0,0,1-1.89.55A3.19,3.19,0,0,1,15,9.71a2.85,2.85,0,0,1-.81-2.22V7.11H12.87v.48a4.33,4.33,0,0,0,.29,1.63A3.68,3.68,0,0,0,14,10.53Z" fill="#fff"/><polygon points="33.63 10.23 28.07 10.23 28.07 6.46 33.44 6.46 33.44 5.21 28.07 5.21 28.07 1.48 33.53 1.48 33.53 0.23 26.71 0.23 26.71 11.48 33.63 11.48 33.63 10.23" fill="#fff"/><path d="M46.42,11.48h1.44L44.45.22H41.91L38.5,11.48H40l.82-2.8h4.82ZM41.14,7.43l2-6.63h.19l1.95,6.63Z" fill="#fff"/><rect x="53.83" y="6.72" width="4.82" height="1.16" fill="#fff"/><path d="M69.3,4.82a1,1,0,0,0-.72.31,1,1,0,0,0-.31.72,1,1,0,0,0,2.06,0A1,1,0,0,0,70,5.13,1,1,0,0,0,69.3,4.82Z" fill="#fff"/><path d="M69.3,0a3.64,3.64,0,0,0-2.91,1.21,5,5,0,0,0-1,3.39V7.11a5,5,0,0,0,1,3.42,4.18,4.18,0,0,0,5.82,0,5,5,0,0,0,1.05-3.42V4.6a5,5,0,0,0-1.05-3.39A3.64,3.64,0,0,0,69.3,0Zm2.6,7a4.32,4.32,0,0,1-.65,2.57,2.54,2.54,0,0,1-3.9,0A4.32,4.32,0,0,1,66.7,7V4.7a5.58,5.58,0,0,1,.16-1.41,3.08,3.08,0,0,1,.49-1.1,2.49,2.49,0,0,1,3.08-.71,2.33,2.33,0,0,1,.82.71,3.08,3.08,0,0,1,.49,1.1A5.58,5.58,0,0,1,71.9,4.7Z" fill="#fff"/><path d="M79.46,6.7a3.32,3.32,0,0,0,1.15.71,4.19,4.19,0,0,0,1.44.25,3.13,3.13,0,0,0,1.61-.41,2.64,2.64,0,0,0,1.06-1.11h.2V7.82a3.21,3.21,0,0,1-.19,1.1,2.6,2.6,0,0,1-.51.85,2.32,2.32,0,0,1-.79.56,2.75,2.75,0,0,1-1,.19,2.4,2.4,0,0,1-1.78-.64A2.24,2.24,0,0,1,80,8.2H78.64a3.8,3.8,0,0,0,.28,1.46,3.21,3.21,0,0,0,.77,1.11,3.44,3.44,0,0,0,1.19.7,4.6,4.6,0,0,0,1.51.24,4,4,0,0,0,1.53-.28,3.58,3.58,0,0,0,1.23-.78A3.5,3.5,0,0,0,86,9.43a4.09,4.09,0,0,0,.3-1.61V3.76A3.94,3.94,0,0,0,86,2.25a3.54,3.54,0,0,0-.81-1.19A3.84,3.84,0,0,0,83.93.28a4.54,4.54,0,0,0-3.14,0,3.71,3.71,0,0,0-1.24.79,3.48,3.48,0,0,0-.81,1.21,4,4,0,0,0-.29,1.53V4a4.16,4.16,0,0,0,.27,1.55A3.21,3.21,0,0,0,79.46,6.7Zm.34-2.92a2.8,2.8,0,0,1,.18-1,2.51,2.51,0,0,1,.51-.83,2.32,2.32,0,0,1,.82-.55,3,3,0,0,1,2.1,0,2.37,2.37,0,0,1,1.33,1.35,2.81,2.81,0,0,1,.18,1V4a2.39,2.39,0,0,1-.2,1,2.21,2.21,0,0,1-.53.77,2.57,2.57,0,0,1-.82.51,2.79,2.79,0,0,1-1,.18,2.82,2.82,0,0,1-1-.17,2.29,2.29,0,0,1-.8-.51A2.31,2.31,0,0,1,80,5a2.73,2.73,0,0,1-.19-1Z" fill="#fff"/><path d="M315.15,76.11a6.26,6.26,0,1,0,6.25,6.26A6.26,6.26,0,0,0,315.15,76.11Z" fill="#fff"/></g></g></svg>