<svg xmlns="http://www.w3.org/2000/svg" viewBox="0 0 239.59 239.59"><title>mothermoon-2</title><g id="Layer_2" data-name="Layer 2"><g id="Layer_1-2" data-name="Layer 1"><path d="M124.54,178.15a13.11,13.11,0,0,1,4.43.73,181.44,181.44,0,0,0,56.24-62.43h-2.65V71.73h5.84V88.64a8.77,8.77,0,0,1,6.74-3.2,13.2,13.2,0,0,1,3.3.4,178.23,178.23,0,0,0,8.84-55.41h-175V209.16a169.19,169.19,0,0,0,79.63-19.92,15.42,15.42,0,0,1,3-6.71A11.74,11.74,0,0,1,124.54,178.15ZM136,137.81a23.79,23.79,0,0,0-6.07-.9,7.53,7.53,0,0,0-6.34,3.37,14.4,14.4,0,0,0-2.42,8.59v13.6h-5.84V132.13h5.84V136a10.42,10.42,0,0,1,8.76-4.55,19.75,19.75,0,0,1,6.07.9Zm11.15-51.7h6.51V76h5.85V86.11h9.21v5.62h-9.21V107a6.44,6.44,0,0,0,.84,3.54,2.67,2.67,0,0,0,2.3,1.18,2.62,2.62,0,0,0,2.25-1.18,6.85,6.85,0,0,0,1.12-3.26h5.85q-.8,5-2.7,7.25-2.19,2.64-6.52,2.64a8.6,8.6,0,0,1-6.68-2.64,10.76,10.76,0,0,1-2.31-7.25V91.73h-6.51Zm-43.59,63.55H82.78A8.11,8.11,0,0,0,85,155.73a7.26,7.26,0,0,0,5.28,2,8.09,8.09,0,0,0,5.17-1.4,6.06,6.06,0,0,0,1.85-3.71h5.85c-.68,3.48-2,6.09-4,7.81s-5.06,2.75-8.88,2.75a12.3,12.3,0,0,1-9.44-3.87q-3.87-4.22-3.87-11.86,0-7.47,3.76-11.79a12.08,12.08,0,0,1,9.55-4.16,11.9,11.9,0,0,1,9.49,4.16q3.83,4.32,3.82,11.79Zm.17-33.21H98.12V94.93c0-2.7-.75-4-2.25-4-2,0-2.92,1.34-2.92,4v21.52H87.33V94.93c0-2.7-.75-4-2.25-4-2,0-2.92,1.34-2.92,4v21.52H76.54V86.11h4.72v2.42A5.12,5.12,0,0,1,86,85.44a5.21,5.21,0,0,1,4.72,2.69,6.72,6.72,0,0,1,5.39-2.69,7.18,7.18,0,0,1,5.56,2.13,8.05,8.05,0,0,1,2.08,6Zm11.26-26a12.6,12.6,0,0,1,19.1,0c2.32,2.89,3.48,6.59,3.48,11.13s-1.16,8.24-3.48,11.12a12.6,12.6,0,0,1-19.1,0q-3.48-4.32-3.48-11.12C111.51,97.08,112.67,93.38,115,90.49Z" fill="#fff"/><path d="M188.4,97v13.39a180.82,180.82,0,0,0,8.24-19.23,5.43,5.43,0,0,0-1.5-.22Q190.54,90.89,188.4,97Z" fill="#fff"/><path d="M90.25,136.91a7.21,7.21,0,0,0-7.47,7.58H97.72a7.22,7.22,0,0,0-2.19-5.5A7.12,7.12,0,0,0,90.25,136.91Z" fill="#fff"/><path d="M124.54,111.67a6,6,0,0,0,5.23-2.58q2-2.64,2-7.47t-2-7.48a6.58,6.58,0,0,0-10.45,0c-1.32,1.77-2,4.26-2,7.48s.65,5.71,2,7.47A6,6,0,0,0,124.54,111.67Z" fill="#fff"/><path d="M188.4,116.45v-6.11c-1,2.06-2.09,4.09-3.19,6.11Z" fill="#fff"/><path d="M198.85,92.63A6.79,6.79,0,0,1,200.09,97v19.5h5.84v-20a11,11,0,0,0-2.92-8,9.53,9.53,0,0,0-4.57-2.69c-.58,1.77-1.17,3.53-1.8,5.27A4.06,4.06,0,0,1,198.85,92.63Z" fill="#fff"/><path d="M199.64,131.46a6.7,6.7,0,0,0-5.39,2.69,5.21,5.21,0,0,0-4.72-2.69,5.11,5.11,0,0,0-4.72,3.09v-2.42h-4.72v30.34h5.62V141q0-4,2.92-4c1.5,0,2.24,1.35,2.24,4v21.52h5.62V141c0-2.69,1-4,2.92-4q2.25,0,2.25,4v21.52h5.62V139.55a8.05,8.05,0,0,0-2.08-6A7.2,7.2,0,0,0,199.64,131.46Z" fill="#fff"/><path d="M129,178.88a174.45,174.45,0,0,1-17,10.36,22,22,0,0,0-.43,4.42q0,6.79,3.48,11.12a12.6,12.6,0,0,0,19.1,0q3.48-4.32,3.48-11.12t-3.48-11.13A11.67,11.67,0,0,0,129,178.88Zm.8,22.25a6.58,6.58,0,0,1-10.45,0c-1.32-1.76-2-4.25-2-7.47s.65-5.71,2-7.47a6.57,6.57,0,0,1,10.45,0q2,2.64,2,7.47T129.77,201.13Z" fill="#fff"/><path d="M159.06,178.15a11.73,11.73,0,0,0-9.55,4.38Q146,186.86,146,193.66t3.49,11.12a12.6,12.6,0,0,0,19.1,0q3.48-4.32,3.48-11.12t-3.48-11.13A11.74,11.74,0,0,0,159.06,178.15Zm5.22,23a6.58,6.58,0,0,1-10.45,0q-2-2.64-2-7.47t2-7.47a6.57,6.57,0,0,1,10.45,0q2,2.64,2,7.47T164.28,201.13Z" fill="#fff"/><path d="M195,177.48a8.19,8.19,0,0,0-7.3,3.71v-3h-5.62v30.34H188V189q1.52-6.06,6.52-6.06a4.87,4.87,0,0,1,3.76,1.51,5.28,5.28,0,0,1,1.41,3.82v20.23h5.84V188.26q0-5.22-2.75-8C201,178.41,198.4,177.48,195,177.48Z" fill="#fff"/><path d="M239.59,239.59H0V0H239.59ZM5.16,234.43H234.43V5.16H5.16Z" fill="#fff"/></g></g></svg>