<svg xmlns="http://www.w3.org/2000/svg" viewBox="0 0 147.19 150.36"><title>mothermoon-1</title><g id="Layer_2" data-name="Layer 2"><g id="Layer_1-2" data-name="Layer 1"><path d="M77.59,124.27a10.93,10.93,0,0,1,3.73.62,152.75,152.75,0,0,0,47.31-52.53H126.4V34.74h4.91V49a7.39,7.39,0,0,1,5.67-2.7,10.63,10.63,0,0,1,2.78.35A150,150,0,0,0,147.19,0H0V150.36A142.31,142.31,0,0,0,67,133.6,13,13,0,0,1,69.55,128,9.88,9.88,0,0,1,77.59,124.27Zm9.64-33.94a20.21,20.21,0,0,0-5.1-.76,6.38,6.38,0,0,0-5.35,2.84,12.14,12.14,0,0,0-2,7.23v11.44H69.84V85.56h4.91v3.26A8.79,8.79,0,0,1,82.13,85a16.51,16.51,0,0,1,5.1.76Zm9.38-43.49h5.48V38.33H107v8.51h7.75v4.73H107v12.8a5.4,5.4,0,0,0,.71,3,2.27,2.27,0,0,0,1.94,1,2.21,2.21,0,0,0,1.89-1,5.86,5.86,0,0,0,.95-2.74h4.91a12.74,12.74,0,0,1-2.27,6.1,6.71,6.71,0,0,1-5.48,2.22A7.23,7.23,0,0,1,104,70.71a9,9,0,0,1-1.94-6.1v-13H96.61ZM59.94,100.3H42.46a6.81,6.81,0,0,0,1.84,5.11,6.09,6.09,0,0,0,4.44,1.65,6.82,6.82,0,0,0,4.35-1.18,5.12,5.12,0,0,0,1.56-3.12h4.91a11.15,11.15,0,0,1-3.35,6.57c-1.77,1.54-4.25,2.31-7.47,2.31a10.3,10.3,0,0,1-7.94-3.26q-3.25-3.54-3.26-10t3.17-9.92a10.17,10.17,0,0,1,8-3.5,10.06,10.06,0,0,1,8,3.5q3.21,3.63,3.21,9.92Zm.14-27.94H55.36V54.26c0-2.27-.63-3.4-1.89-3.4C51.83,50.86,51,52,51,54.26v18.1H46.28V54.26c0-2.27-.63-3.4-1.89-3.4-1.64,0-2.45,1.13-2.45,3.4v18.1H37.21V46.84h4v2a4.31,4.31,0,0,1,4-2.6,4.39,4.39,0,0,1,4,2.27,5.65,5.65,0,0,1,4.54-2.27,6,6,0,0,1,4.67,1.8,6.78,6.78,0,0,1,1.75,5Zm9.47-21.83a10.59,10.59,0,0,1,16.07,0,14.4,14.4,0,0,1,2.93,9.36,14.39,14.39,0,0,1-2.93,9.35,10.59,10.59,0,0,1-16.07,0,14.44,14.44,0,0,1-2.93-9.35A14.45,14.45,0,0,1,69.55,50.53Z" fill="#fff"/><path d="M77.59,68.34A5,5,0,0,0,82,66.17a10.29,10.29,0,0,0,1.66-6.28A10.32,10.32,0,0,0,82,53.6a5.54,5.54,0,0,0-8.79,0,10.39,10.39,0,0,0-1.65,6.29,10.36,10.36,0,0,0,1.65,6.28A5,5,0,0,0,77.59,68.34Z" fill="#fff"/><path d="M48.74,89.57A6.06,6.06,0,0,0,42.46,96H55a6.09,6.09,0,0,0-1.85-4.63A6,6,0,0,0,48.74,89.57Z" fill="#fff"/><path d="M131.31,56V67.22a151.22,151.22,0,0,0,6.93-16.17,4.44,4.44,0,0,0-1.26-.19Q133.11,50.86,131.31,56Z" fill="#fff"/><path d="M140.1,52.32a5.73,5.73,0,0,1,1,3.64v16.4h4.92V55.58a9.26,9.26,0,0,0-2.46-6.71,8,8,0,0,0-3.84-2.25c-.49,1.48-1,3-1.52,4.43A3.41,3.41,0,0,1,140.1,52.32Z" fill="#fff"/><path d="M131.31,72.36V67.22c-.86,1.74-1.76,3.45-2.68,5.14Z" fill="#fff"/><path d="M140.77,85a5.65,5.65,0,0,0-4.54,2.27,4.39,4.39,0,0,0-4-2.27,4.31,4.31,0,0,0-4,2.6v-2h-4v25.52h4.73V93c0-2.27.81-3.41,2.45-3.41,1.26,0,1.89,1.14,1.89,3.41v18.1h4.73V93c0-2.27.82-3.41,2.46-3.41,1.26,0,1.89,1.14,1.89,3.41v18.1h4.72V91.8a6.75,6.75,0,0,0-1.75-5A6,6,0,0,0,140.77,85Z" fill="#fff"/><path d="M81.32,124.89A150.26,150.26,0,0,1,67,133.6a18.25,18.25,0,0,0-.37,3.72,14.44,14.44,0,0,0,2.93,9.35,10.59,10.59,0,0,0,16.07,0,16.4,16.4,0,0,0,0-18.71A9.72,9.72,0,0,0,81.32,124.89ZM82,143.6a5.52,5.52,0,0,1-8.79,0,12.8,12.8,0,0,1,0-12.57A5.54,5.54,0,0,1,82,131a12.73,12.73,0,0,1,0,12.57Z" fill="#fff"/><path d="M106.63,124.27a9.88,9.88,0,0,0-8,3.69,16.4,16.4,0,0,0,0,18.71,10.59,10.59,0,0,0,16.07,0,16.4,16.4,0,0,0,0-18.71A9.86,9.86,0,0,0,106.63,124.27ZM111,143.6a5.52,5.52,0,0,1-8.79,0,12.8,12.8,0,0,1,0-12.57,5.54,5.54,0,0,1,8.79,0,12.8,12.8,0,0,1,0,12.57Z" fill="#fff"/><path d="M136.89,123.71a6.91,6.91,0,0,0-6.14,3.11v-2.55H126v25.52h4.92v-16.4c.85-3.4,2.67-5.1,5.48-5.1a4.06,4.06,0,0,1,3.16,1.28,4.44,4.44,0,0,1,1.19,3.21v17h4.91v-17q0-4.4-2.31-6.71C141.88,124.49,139.73,123.71,136.89,123.71Z" fill="#fff"/></g></g></svg>