<svg xmlns="http://www.w3.org/2000/svg" viewBox="0 0 258.23 78.02">
  <defs>
    <style>
      .a {
        fill: #fff;
      }
    </style>
  </defs>
  <g>
    <path class="a" d="M245.63,0V0H184.87l-5.5,36.8h-8.74l2.26-15.11H160.76L158.5,36.8h-8.84L155.16,0h-5.4l-1.09,7.34h-10l-4.4,29.46h-8.84l4.4-29.46h-10L121,0h-5.51L110,36.8h-9L94.52,19,92.15,11h-.24c0,.58-.08,1.92-.17,4s-.18,3.89-.29,5.39-.27,2.9-.47,4.22L89.16,36.8H80.75L86.25,0h-8.2l-5.5,36.8H63.71L69.21,0h-8.3l-5.5,36.8h-9L40,19,37.58,11h-.24c0,.58-.07,1.92-.16,4s-.19,3.89-.3,5.39-.27,2.9-.46,4.22L34.59,36.8h-8.4L31.69,0h-20L0,78H20l5.5-36.8h8.84L28.87,78h8.2l5.5-36.8h9L58.1,58.84,60.5,67h.24a131.78,131.78,0,0,1,.83-13.61l1.82-12.17h8.4L66.29,78h8.3l5.5-36.8h23.48l-1.1,7.33H87.84l-1.21,8.07H99.19L98.09,64H85.53L83.43,78H104.2l5.5-36.8h8.84L113,78h8.2l5.5-36.8h9l6.54,17.62L144.67,67h.24a128.92,128.92,0,0,1,.83-13.61l1.82-12.17H156L150.46,78h8.3l5.5-36.8h8.84L167.6,78H183l4.41-29.47h-10l1.09-7.33h28.79l-1.1,7.33h-10L191.79,78h15.4l5.5-36.8H236l-1.09,7.33H220.44l-1,6.82h12.31l-1.11,7.43H218.31l-1.16,7.78h15.07L231.1,78h14.53v0l.94,0L258.23,0Z"/>
    <path class="a" d="M104.18,25.79h.24a132.25,132.25,0,0,1,.83-13.62L107.07,0H95.24l6.54,17.63Z"/>
    <path class="a" d="M49.62,25.79h.24a129.37,129.37,0,0,1,.83-13.62L52.51,0H40.67l6.54,17.63Z"/>
    <polygon class="a" points="176.13 0 164 0 161.91 14.01 174.03 14.01 176.13 0"/>
    <path class="a" d="M132.64,52.18h-.25c0,.58-.07,1.91-.16,4s-.19,3.89-.3,5.38-.26,2.91-.46,4.23L129.64,78h11.84L135,60.25Z"/>
    <path class="a" d="M48.47,52.18h-.24c0,.58-.08,1.91-.16,4s-.19,3.89-.3,5.38-.27,2.91-.47,4.23L45.48,78H57.31L50.84,60.25Z"/>
  </g>
</svg>
