<svg xmlns="http://www.w3.org/2000/svg" viewBox="0 0 220.07 94.65"><title>self-made</title><g id="Layer_2" data-name="Layer 2"><g id="Layer_1-2" data-name="Layer 1"><path d="M39,43.84l2-2.11a7.14,7.14,0,0,0,5,2.11,9,9,0,0,0,6.84-3.05,16.4,16.4,0,0,0,4-8.67q1.61-9.61-6.37-12.42c-4.42-1.57-6.27-4.53-5.54-8.91a10.85,10.85,0,0,1,2.58-5.62q2.31-2.58,4.65-2.58,5.16,0,6.64,8l1.25-.47L60,.71h-.7L57,2.12A6.63,6.63,0,0,0,52.49.71,9.37,9.37,0,0,0,45.62,4a13.79,13.79,0,0,0-3.6,7.5q-1.47,8.79,6.48,11.72,6.41,2.36,5.15,9.85a13.17,13.17,0,0,1-2.73,6.56A6,6,0,0,1,46.31,42q-5.4,0-6.88-9.37l-1.25.47.08,10.78Z" fill="#fff"/><path d="M81.64,41.26H76.71q-2.34,0-1.71-3.75l2.5-15h4q3.27,0,2.3,5.86L83.52,30h1.64L88,13.13H86.33l-.27,1.64q-1,5.86-4.26,5.86h-4L80.09,7q.61-3.75,3-3.75h4.68c2.82,0,4.53,2.81,5.16,8.44l1.25-.47-.23-9.84H74.23L74,3.06h.7q2.34,0,1.72,3.75L71.21,37.74q-.63,3.75-3,3.75h-.7l-.28,1.64H87.18l3.64-10.54-1.09-.47Q85.86,41.26,81.64,41.26Z" fill="#fff"/><path d="M114,41.26h-4.22c-1.56,0-2.14-1.25-1.72-3.75l5.13-30.7q.61-3.75,3-3.75h1.4l.28-1.64H107.33l-.27,1.64h.7q2.34,0,1.72,3.75l-5.17,30.93q-.63,3.75-3,3.75h-.7l-.28,1.64h19.22l3.6-10.31-1.09-.47Q118.25,41.26,114,41.26Z" fill="#fff"/><path d="M139.73,1.42l-.27,1.64h.7q2.34,0,1.72,3.75l-5.17,30.93q-.63,3.75-3,3.75H133l-.28,1.64h10.32l.27-1.64h-1.17c-1.56,0-2.14-1.25-1.72-3.75L143,22.28h4c2.19,0,2.95,1.95,2.3,5.85l-.23,1.41h1.64l2.74-16.41h-1.64l-.24,1.41q-1,5.87-4.26,5.86h-4L145.59,7q.63-3.75,3-3.75h4.69q4.22,0,5.15,8.44l1.25-.47-.23-9.84Z" fill="#fff"/><polygon points="0 72.98 20.16 72.98 20.55 70.63 0.39 70.63 0 72.98" fill="#fff"/><path d="M56.43,56.81q.63-3.75,3-3.75h.47l.27-1.64h-7.5L39.94,84l-.89-32.57h-7.5l-.28,1.64h.47c1.56,0,2.14,1.25,1.72,3.75L28.29,87.74c-.41,2.5-1.41,3.75-3,3.75h-.47l-.27,1.64h7.74l.27-1.64h-.47q-2.58,0-1.95-3.75L35.8,54l1,39.14h1.17L53,54.7l-5.52,33q-.63,3.75-3,3.75h-.47l-.27,1.64h9.37l.28-1.64H53c-1.56,0-2.14-1.25-1.72-3.75Z" fill="#fff"/><path d="M81.87,87.28,78.6,50.71l-1.53.71L62.72,86.81q-1.89,4.68-5,4.68l-.27,1.64h9.37l.28-1.64H65.93c-1.57,0-2.2-.86-1.92-2.57A8.91,8.91,0,0,1,64.56,87l3.6-8.91h8.9L77.69,87a7.9,7.9,0,0,1-.08,1.88c-.29,1.71-1.22,2.57-2.78,2.57H73.66l-.27,1.64H85.11l.27-1.64Q82.22,91.49,81.87,87.28Zm-12.93-11,6.72-16.41,1.25,16.41Z" fill="#fff"/><path d="M109.47,51.42h-11l-.28,1.64h.71q2.34,0,1.71,3.75L95.44,87.74q-.63,3.75-3,3.75h-.71l-.27,1.64h12q4.28,0,8.75-4.68,5.13-5.4,6.89-15.94,1.68-10.08-1.52-16.17A8.55,8.55,0,0,0,109.47,51.42Zm5.86,21.09q-1.69,10.08-5.28,14.77-3.08,4-6.76,4h-2.35q-2.34,0-1.71-3.75L104.31,57q.63-3.75,3-3.75h1.41A6.16,6.16,0,0,1,115,57.51Q117,62.67,115.33,72.51Z" fill="#fff"/><path d="M132.26,51.42,132,53.06h.7c1.56,0,2.14,1.25,1.72,3.75l-5.17,30.93c-.41,2.5-1.41,3.75-3,3.75h-.7l-.27,1.64h19.92l3.63-10.54-1.09-.47q-3.87,9.13-8.09,9.14h-4.92c-1.56,0-2.14-1.25-1.72-3.75l2.51-15h4q3.28,0,2.3,5.86L141.55,80h1.64L146,63.13h-1.64l-.28,1.64q-1,5.87-4.26,5.86h-4L138.12,57q.63-3.75,3-3.75h4.69q4.22,0,5.15,8.44l1.25-.47L152,51.42Z" fill="#fff"/><path d="M216.1,15.9C212.5,6.35,206.92.72,200.39.06c-13.23-1.34-26.11,18.78-28.75,44.84s6,48.35,19.2,49.68a11.15,11.15,0,0,0,1.29.07c6.1,0,12.19-4.37,17.27-12.44,5.3-8.43,8.92-20,10.18-32.47S219.61,25.22,216.1,15.9Zm1.49,33.64c-1.23,12.21-4.74,23.43-9.88,31.61-5,8-11,12-16.67,11.44-12.12-1.22-19.93-22.53-17.41-47.49C176.08,20.89,187.36,2,199.09,2c.37,0,.73,0,1.1,0,5.74.58,10.72,5.75,14,14.55C217.63,25.64,218.83,37.34,217.59,49.54Z" fill="#fff"/><rect x="194.5" y="29.13" width="2" height="38.67" transform="translate(127.63 238.1) rotate(-84.23)" fill="#fff"/><path d="M196.4,18.69a2.87,2.87,0,0,0,2.8-1.33A2.73,2.73,0,0,0,201.51,19a3.23,3.23,0,0,0,2.36-.6A2.82,2.82,0,0,0,205,16.3a2.82,2.82,0,0,0-.65-2.23A3.23,3.23,0,0,0,202.11,13a2.74,2.74,0,0,0-2.58,1.1,2.85,2.85,0,0,0-2.48-1.86,3.25,3.25,0,0,0-2.6.72,3.13,3.13,0,0,0-1.07,2.16,3.14,3.14,0,0,0,.62,2.33A3.26,3.26,0,0,0,196.4,18.69Zm4.14-3.78a2.35,2.35,0,0,1,2.72.27,1.31,1.31,0,0,1,.28,1,1.33,1.33,0,0,1-.47.9,2.34,2.34,0,0,1-2.72-.28,1.34,1.34,0,0,1-.28-1A1.29,1.29,0,0,1,200.54,14.91Zm-5.76.36a1.58,1.58,0,0,1,.6-1.11,2.52,2.52,0,0,1,2.92.3,1.63,1.63,0,0,1-.23,2.31,2.55,2.55,0,0,1-2.93-.29A1.55,1.55,0,0,1,194.78,15.27Z" fill="#fff"/><path d="M195.43,28.28a2.83,2.83,0,0,0,2.8-1.33,2.68,2.68,0,0,0,2.31,1.59A3.18,3.18,0,0,0,202.9,28,2.84,2.84,0,0,0,204,25.89a2.81,2.81,0,0,0-.65-2.22,3.19,3.19,0,0,0-2.19-1.06,2.71,2.71,0,0,0-2.58,1.1,2.84,2.84,0,0,0-2.48-1.86,3.29,3.29,0,0,0-2.6.71,3.21,3.21,0,0,0-1.07,2.17,3.15,3.15,0,0,0,.62,2.33A3.27,3.27,0,0,0,195.43,28.28Zm4.14-3.78a1.86,1.86,0,0,1,1.41-.3,1.81,1.81,0,0,1,1.31.58,1.34,1.34,0,0,1-.19,1.87,1.75,1.75,0,0,1-1.4.3,1.8,1.8,0,0,1-1.32-.57,1.35,1.35,0,0,1-.28-1A1.33,1.33,0,0,1,199.57,24.5Zm-5.76.37a1.58,1.58,0,0,1,.6-1.11,2.52,2.52,0,0,1,2.92.3,1.56,1.56,0,0,1,.37,1.2,1.58,1.58,0,0,1-.6,1.11,2.08,2.08,0,0,1-1.51.32,2.05,2.05,0,0,1-1.42-.62A1.52,1.52,0,0,1,193.81,24.87Z" fill="#fff"/><path d="M192.29,34.8a18.46,18.46,0,0,1,5.26,1.43,11.86,11.86,0,0,1,3.12,1.94,2.09,2.09,0,0,0,1,.53c.57.06.9-.28,1-1l.47-4.64c.06-.61-.15-.93-.61-1s-.74.23-.8.84l-.39,3.87a12.8,12.8,0,0,0-3.07-2,17.83,17.83,0,0,0-5.76-1.62c-.59-.06-.92.17-1,.71S191.7,34.74,192.29,34.8Z" fill="#fff"/><path d="M198.26,63.88c-.89-.09-1.38.26-1.46,1.06s.33,1.24,1.22,1.33a3.3,3.3,0,0,1,2.12.88,1.66,1.66,0,0,1,.5,1.4,1.69,1.69,0,0,1-.77,1.27,3.29,3.29,0,0,1-2.25.43c-.77-.07-1.8-.86-3.11-2.35a32.57,32.57,0,0,0-5.22-4.71,4,4,0,0,0-1.83-.85q-1.32-.14-1.5,1.65l-.63,6.21c-.09.9.22,1.39.92,1.46s1.1-.35,1.19-1.25l.54-5.34a38.38,38.38,0,0,1,5.17,4.71q2.44,2.68,4.22,2.86a5.38,5.38,0,0,0,3.72-.88,4.36,4.36,0,0,0,.64-6.27A5.46,5.46,0,0,0,198.26,63.88Z" fill="#fff"/></g></g></svg>