<svg xmlns="http://www.w3.org/2000/svg" viewBox="0 0 314.8 159.63"><title>semihumanlab-1</title><g id="Layer_2" data-name="Layer 2"><g id="Layer_1-2" data-name="Layer 1"><path d="M58,33a25.1,25.1,0,0,0,5.66,6.06,14.06,14.06,0,0,0,11.95,1.42A8.45,8.45,0,0,0,79,38.39a4.63,4.63,0,0,0,1.32-3.31,5.87,5.87,0,0,0-2.81-5.16,22.61,22.61,0,0,0-7.91-2.85,22.49,22.49,0,0,1-10.33-4.6Q55.44,19.2,55.44,13a11,11,0,0,1,2.22-6.88,14.49,14.49,0,0,1,5.86-4.5A19.42,19.42,0,0,1,71.39,0a19.88,19.88,0,0,1,9.47,2.12,15.4,15.4,0,0,1,6.22,6l-5,5a15.27,15.27,0,0,0-4.5-4.84A11,11,0,0,0,71.2,6.42a10.63,10.63,0,0,0-6.13,1.69,5.35,5.35,0,0,0-2.48,4.67,5.31,5.31,0,0,0,2.62,4.93,23.06,23.06,0,0,0,6.91,2.48,32.63,32.63,0,0,1,7.42,2.45,16.8,16.8,0,0,1,5.72,4.27,9.43,9.43,0,0,1,2.22,6.32A13.25,13.25,0,0,1,83,43.76q-4.5,3.9-12.38,3.9a22.1,22.1,0,0,1-9.76-2.12,20,20,0,0,1-7.72-6.88Z" fill="#fff"/><path d="M100.92.66h29.19V7.55h-22V19.79h18.4v6.89h-18.4V40.11h22V47H100.92Z" fill="#fff"/><path d="M151.89.66l15.16,24.69L182.47.66h6.62V47h-7.15V28q0-4.17.17-7.91c.11-2.49.29-5,.56-7.45L169,33.69h-4.37l-13.3-21q.39,3.7.53,7.41c.09,2.48.13,5.1.13,7.88V47h-7.15V.66Z" fill="#fff"/><path d="M225.76,47H203.65V40.38h7.48V7.28h-7.48V.66h22.11V7.28h-7.48v33.1h7.48Z" fill="#fff"/><path d="M63.45,56.93V76.72h23.1V56.93H93.7v46.34H86.55V83.61H63.45v19.66H56.3V56.93Z" fill="#fff"/><path d="M146.66,56.86v28.6a18.24,18.24,0,0,1-2.42,9.37,17.31,17.31,0,0,1-6.62,6.48,20.84,20.84,0,0,1-19.23,0,17.26,17.26,0,0,1-6.65-6.48,18.24,18.24,0,0,1-2.42-9.37V56.86h7.15v28a11.79,11.79,0,0,0,5.89,10.4A11.17,11.17,0,0,0,128,96.78a11.88,11.88,0,0,0,5.89-1.52A11.61,11.61,0,0,0,138.22,91a11.78,11.78,0,0,0,1.62-6.16v-28Z" fill="#fff"/><path d="M169.3,56.93l15.15,24.69,15.43-24.69h6.62v46.34h-7.15v-19q0-4.17.16-7.91t.57-7.45L186.44,90h-4.37l-13.3-21q.39,3.7.53,7.41c.08,2.47.13,5.1.13,7.88v19h-7.15V56.93Z" fill="#fff"/><path d="M253.36,103.27,249,91.75H229.6l-4.37,11.52H218l17.94-46.34h7.28L261,103.27ZM235.76,75.6l-3.51,9.26h14.16l-3.64-9.53c-.57-1.54-1.15-3.21-1.72-5s-1.15-3.58-1.72-5.39c-.62,1.85-1.22,3.71-1.82,5.56S236.33,74.05,235.76,75.6Z" fill="#fff"/><path d="M304.8,56.93H312v46.34h-6.56L278.45,67.92q.41,4,.76,8t.37,8v19.27h-7.15V56.93h6.42L305.79,93q-.6-4.83-.79-10.42c-.14-3.73-.2-7.2-.2-10.43Z" fill="#fff"/><path d="M85.16,152.65v6.88H56.3V113.19h7.15v39.46Z" fill="#fff"/><path d="M129.84,159.53,125.48,148h-19.4l-4.37,11.52H94.43l17.94-46.34h7.28l17.81,46.34Zm-17.6-27.67-3.51,9.27h14.16l-3.64-9.53c-.57-1.55-1.15-3.21-1.72-5s-1.15-3.59-1.72-5.4c-.62,1.86-1.22,3.71-1.82,5.56S112.81,130.32,112.24,131.86Z" fill="#fff"/><path d="M168.24,113.19q6.75,0,10.19,3t3.44,8.67a10.55,10.55,0,0,1-1.48,5.57,10.07,10.07,0,0,1-4.41,3.83,13.38,13.38,0,0,1,4.07,2.22,11.38,11.38,0,0,1,3.08,3.81,12.09,12.09,0,0,1,1.19,5.62,14.24,14.24,0,0,1-1.39,6.69,11.07,11.07,0,0,1-3.64,4.17,14.58,14.58,0,0,1-5,2.15,24,24,0,0,1-5.43.63h-20V113.19Zm-1.19,6.89h-11v12.31h11.78a8.07,8.07,0,0,0,4.8-1.65,5.34,5.34,0,0,0,2.09-4.51,5.19,5.19,0,0,0-2.22-4.73A9.9,9.9,0,0,0,167.05,120.08Zm1.12,19.2H156.06v13.37H168.5a10.46,10.46,0,0,0,6.16-1.69,5.94,5.94,0,0,0,2.38-5.2,5.25,5.25,0,0,0-1.39-3.9,7.83,7.83,0,0,0-3.41-2A14.16,14.16,0,0,0,168.17,139.28Z" fill="#fff"/><rect x="194.21" y="113.21" width="117" height="46.42" fill="#fff"/><rect y="0.61" width="46.42" height="159.01" fill="#fff"/><rect x="235.49" y="0.42" width="79.31" height="46.42" fill="#fff"/></g></g></svg>