<svg xmlns="http://www.w3.org/2000/svg" viewBox="0 0 250.56 117.68"><title>transhumanism-1</title><g id="Layer_2" data-name="Layer 2"><g id="Layer_1-2" data-name="Layer 1"><path d="M104.25,5.56,101,43a6.11,6.11,0,0,1-6.08,5.57H54.28A6.09,6.09,0,0,1,48.21,42l3.1-35.32A6.1,6.1,0,0,0,45.24,0h-30A6.1,6.1,0,0,0,9.13,5.57L0,111.06a6.1,6.1,0,0,0,6.08,6.62h30a6.1,6.1,0,0,0,6.08-5.57l2.22-26a6.1,6.1,0,0,1,6.08-5.58H91.12a6.09,6.09,0,0,1,6.07,6.62l-2,23.91a6.09,6.09,0,0,0,6.08,6.61h30a6.09,6.09,0,0,0,6.07-5.57L146.44,6.62A6.09,6.09,0,0,0,140.37,0H110.32A6.09,6.09,0,0,0,104.25,5.56Z" fill="#fff"/><path d="M246.6,58.74l-24.79-.1a4,4,0,0,1-3.94-4.29l2-23.66a4,4,0,0,0-3.94-4.29L196,26.32a4,4,0,0,0-4,3.64L190,54.87a4,4,0,0,1-4,3.64l-26-.1a4,4,0,0,0-4,3.64L154.42,81a4,4,0,0,0,3.94,4.29l24.8.1a4,4,0,0,1,3.94,4.3l-2,23.65a4,4,0,0,0,3.94,4.3l19.87.07a4,4,0,0,0,4-3.64L215,89.14a4,4,0,0,1,4-3.64l26.05.1A4,4,0,0,0,249,82L250.54,63A4,4,0,0,0,246.6,58.74Z" fill="#fff"/></g></g></svg>